<?xml version="1.0" encoding="UTF-8"?>
<svg width="36px" height="40px" viewBox="0 0 36 40" version="1.1" xmlns="http://www.w3.org/2000/svg" xmlns:xlink="http://www.w3.org/1999/xlink">
    <title>aicode</title>
    <defs>
        <linearGradient x1="50%" y1="1.54379321%" x2="50%" y2="97.9143787%" id="linearGradient-1">
            <stop stop-color="#031937" offset="0%"></stop>
            <stop stop-color="#1292BD" offset="100%"></stop>
        </linearGradient>
        <linearGradient x1="50%" y1="-3.42174206e-14%" x2="50%" y2="100%" id="linearGradient-2">
            <stop stop-color="#46A8EC" offset="0%"></stop>
            <stop stop-color="#ADF6F8" offset="100%"></stop>
        </linearGradient>
        <linearGradient x1="77.823615%" y1="22.7672553%" x2="23.1382428%" y2="77.2327447%" id="linearGradient-3">
            <stop stop-color="#46A8EC" offset="0%"></stop>
            <stop stop-color="#ADF6F8" offset="100%"></stop>
        </linearGradient>
    </defs>
    <g id="页面-1" stroke="none" stroke-width="1" fill="none" fill-rule="evenodd">
        <g id="AICODE_3" transform="translate(-1188.000000, -885.000000)">
            <g id="编组-6" transform="translate(480.000000, 587.000000)">
                <g id="编组-3" transform="translate(492.000000, 211.000000)">
                    <g id="编组" transform="translate(214.000000, 87.000000)">
                        <path d="M20,1.81698095 C20.6830924,1.81698095 21.3661848,1.99367209 21.9782609,2.34705436 L34.2987689,9.46030301 C34.910845,9.81368528 35.4054102,10.3169151 35.7469564,10.9084905 C36.0885026,11.5000659 36.2770298,12.1799868 36.2770298,12.8867513 L36.2770298,27.1132487 C36.2770298,27.8200132 36.0885026,28.4999341 35.7469564,29.0915095 C35.4054102,29.6830849 34.910845,30.1863147 34.2987689,30.539697 L21.9782609,37.6529456 C20.7541088,38.3597102 19.2458912,38.3597102 18.0217391,37.6529456 L5.70123105,30.539697 C4.47707897,29.8329325 3.72297019,28.5267777 3.72297019,27.1132487 L3.72297019,12.8867513 C3.72297019,11.4732223 4.47707897,10.1670675 5.70123105,9.46030301 L18.0217391,2.34705436 C18.6338152,1.99367209 19.3169076,1.81698095 20,1.81698095 Z" id="多边形" stroke="url(#linearGradient-2)" stroke-width="2.08695652" fill="url(#linearGradient-1)"></path>
                        <path d="M17.8436814,11.3043478 C18.0899061,11.3043478 18.2896047,11.5039979 18.2896047,11.7502787 C18.2896047,11.821045 18.2726726,11.8907953 18.2403881,11.9537644 L14.12027,19.9898257 C14.1169952,19.9962131 14.1169952,20.0037869 14.12027,20.0101743 L15.5416529,22.7826533 L21.053746,12.0316834 C21.2508994,11.6471469 21.6190572,11.3854983 22.0378986,11.3202713 C22.0755933,11.3098857 22.1153107,11.3043478 22.1563186,11.3043478 L26.9451235,11.3043478 C27.2795837,11.3043478 27.5859171,11.4915618 27.7385368,11.7892382 L31.6352409,19.3895429 C31.8317313,19.7727866 31.8317313,20.2272134 31.6352409,20.6104571 L27.7385368,28.2107618 C27.5859171,28.5084382 27.2795837,28.6956522 26.9451235,28.6956522 L22.1563186,28.6956522 C22.0855684,28.6956522 22.015834,28.6788102 21.9528793,28.6465184 C21.7337842,28.5341363 21.6472555,28.2653806 21.7596119,28.0462356 L25.87973,20.0101743 C25.8830048,20.0037869 25.8830048,19.9962131 25.87973,19.9898257 L24.4582383,17.2173913 L18.946254,27.9683166 C18.7489327,28.3531808 18.3803153,28.6149475 17.9610307,28.679895 C17.9229116,28.690329 17.883457,28.6956522 17.8436814,28.6956522 L13.0548765,28.6956522 C12.7204163,28.6956522 12.4140829,28.5084382 12.2614632,28.2107618 L8.36475911,20.6104571 C8.1682687,20.2272134 8.1682687,19.7727866 8.36475911,19.3895429 L12.2614632,11.7892382 C12.4140829,11.4915618 12.7204163,11.3043478 13.0548765,11.3043478 L17.8436814,11.3043478 Z M24.8631057,12.909699 L22.4072997,12.909699 L15.1368399,27.090301 L17.5926557,27.090301 L24.8631057,12.909699 Z M26.491057,13.2525975 L25.3601064,15.4583724 L27.307874,19.2572773 L27.318905,19.2791969 C27.546879,19.7408135 27.543202,20.2837286 27.307874,20.7427227 L24.0534351,27.090301 L26.5092857,27.090301 L30.144533,19.9999554 L26.5772233,13.0421907 C26.5545958,13.1144128 26.5258095,13.1848148 26.491057,13.2525975 Z M15.9465649,12.909699 L13.4907143,12.909699 L9.85546702,19.9999554 L13.4227767,26.9578093 C13.4454042,26.8855872 13.4741905,26.8151852 13.508943,26.7474025 L14.6398295,24.5416722 L12.692126,20.7427227 C12.456798,20.2837286 12.453121,19.7408135 12.681095,19.2791969 L12.692126,19.2572773 L15.9465649,12.909699 Z" id="形状" fill="url(#linearGradient-3)" fill-rule="nonzero"></path>
                    </g>
                </g>
            </g>
        </g>
    </g>
</svg>