<?xml version="1.0" encoding="UTF-8"?>
<svg width="36px" height="40px" viewBox="0 0 36 40" version="1.1" xmlns="http://www.w3.org/2000/svg" xmlns:xlink="http://www.w3.org/1999/xlink">
    <title>logo</title>
    <defs>
        <linearGradient x1="50%" y1="1.54379321%" x2="50%" y2="97.9143787%" id="linearGradient-1">
            <stop stop-color="#031937" offset="0%"></stop>
            <stop stop-color="#1292BD" offset="100%"></stop>
        </linearGradient>
        <linearGradient x1="50%" y1="-3.42174206e-14%" x2="50%" y2="100%" id="linearGradient-2">
            <stop stop-color="#46A8EC" offset="0%"></stop>
            <stop stop-color="#ADF6F8" offset="100%"></stop>
        </linearGradient>
        <filter x="-15.3%" y="-13.6%" width="130.7%" height="126.3%" filterUnits="objectBoundingBox" id="filter-3">
            <feOffset dx="0" dy="0" in="SourceAlpha" result="shadowOffsetOuter1"></feOffset>
            <feGaussianBlur stdDeviation="1" in="shadowOffsetOuter1" result="shadowBlurOuter1"></feGaussianBlur>
            <feColorMatrix values="0 0 0 0 0.0470588235   0 0 0 0 0.152941176   0 0 0 0 0.231372549  0 0 0 0.16 0" type="matrix" in="shadowBlurOuter1" result="shadowMatrixOuter1"></feColorMatrix>
            <feMerge>
                <feMergeNode in="shadowMatrixOuter1"></feMergeNode>
                <feMergeNode in="SourceGraphic"></feMergeNode>
            </feMerge>
        </filter>
        <path d="M10.5869565,6.60869565 C11.2446875,6.94101129 11.7628034,7.84680839 12.1413043,9.32608696 C12.4706445,10.6132327 12.7410999,12.0227132 12.9526706,13.5545285 L12.9530317,13.5544785 C13.0171122,14.0174417 12.9635474,14.4890878 12.7972805,14.9258906 C11.936492,17.189055 10.7863805,19.0556148 9.34782609,20.5259047 C7.907729,21.9977714 6.01898372,23.475655 3.68159025,24.9595557 C3.23586882,25.2412357 2.71949078,25.3911718 2.19222359,25.3913043 L0,25.3913043 L0,25.3913043 L0,0 L3.63310712,0 C3.84022259,2.95020414e-16 4.03889258,0.0821007743 4.18558561,0.228312844 L10.5869565,6.60869565 L10.5869565,6.60869565 Z" id="path-4"></path>
        <path d="M14.5549551,1.39570944 C10.917274,-1.1840007 7.68176673,-0.187623893 4.8484334,4.38483987 C4.33149682,5.21907767 1.11180111,6.03955371 0.717998614,6.74353553 C-0.704924524,9.28722688 -0.0128955389,11.2220095 2.79408557,12.5478834 L14.5549551,1.39570944 Z" id="path-6"></path>
        <path d="M0,3.55271368e-15 C0,3.55271368e-15 0.534903915,0.0334816928 1.33695652,0.597889082 C2.2173913,1.2174543 4.21624668,3.62062593 4.7173913,7.34788908 C4.94927536,9.07252676 3.37681159,10.1848456 0,10.6848456 C0,3.5616152 0,3.55271368e-15 0,3.55271368e-15 Z" id="path-8"></path>
        <path d="M0,1.76086957 C0.485507246,2.7173913 0.913043478,3.22463768 1.2826087,3.2826087 C1.65217391,3.34057971 2.65217391,2.94202899 4.2826087,2.08695652 L5.32608696,0.695652174 C5.16737486,0.570803713 5.05143283,0.469354438 4.97826087,0.391304348 C4.90508891,0.313254258 4.80363964,0.182819475 4.67391304,0 C3.52163982,0.325214362 2.6846833,0.586083927 2.16304348,0.782608696 C1.64140366,0.979133464 0.920389167,1.30522042 0,1.76086957 Z" id="path-10"></path>
        <path d="M0,0.195652174 C0.144927536,1.24637681 0.391304348,1.91304348 0.739130435,2.19565217 C1.0707389,2.46508405 1.56700726,2.27017502 2.22793551,1.61092509 C2.28863495,1.55212378 2.30819738,1.4631329 2.27861753,1.38398013 L1.86766093,0.285461545 C1.80486681,0.11760801 1.63606926,0.0138667004 1.45795068,0.0336576542 L0,0.195652174 L0,0.195652174 Z" id="path-12"></path>
        <path d="M10.5869565,6.60869565 C11.2446875,6.94101129 11.7628034,7.84680839 12.1413043,9.32608696 C12.4706445,10.6132327 12.7410999,12.0227132 12.9526706,13.5545285 L12.9530317,13.5544785 C13.0171122,14.0174417 12.9635474,14.4890878 12.7972805,14.9258906 C11.936492,17.189055 10.7863805,19.0556148 9.34782609,20.5259047 C7.907729,21.9977714 6.01898372,23.475655 3.68159025,24.9595557 C3.23586882,25.2412357 2.71949078,25.3911718 2.19222359,25.3913043 L0,25.3913043 L0,25.3913043 L0,0 L3.63310712,0 C3.84022259,2.95020414e-16 4.03889258,0.0821007743 4.18558561,0.228312844 L10.5869565,6.60869565 L10.5869565,6.60869565 Z" id="path-14"></path>
        <path d="M14.5549551,1.39570944 C10.917274,-1.1840007 7.68176673,-0.187623893 4.8484334,4.38483987 C4.33149682,5.21907767 1.11180111,6.03955371 0.717998614,6.74353553 C-0.704924524,9.28722688 -0.0128955389,11.2220095 2.79408557,12.5478834 L14.5549551,1.39570944 Z" id="path-16"></path>
        <path d="M0,0 C0,0 0.534903915,0.0334816928 1.33695652,0.597889082 C2.2173913,1.2174543 4.21624668,3.62062593 4.7173913,7.34788908 C4.94927536,9.07252676 3.37681159,10.1848456 0,10.6848456 C0,3.5616152 0,0 0,0 Z" id="path-18"></path>
        <path d="M0,1.76086957 C0.485507246,2.7173913 0.913043478,3.22463768 1.2826087,3.2826087 C1.65217391,3.34057971 2.65217391,2.94202899 4.2826087,2.08695652 L5.32608696,0.695652174 C5.16737486,0.570803713 5.05143283,0.469354438 4.97826087,0.391304348 C4.90508891,0.313254258 4.80363964,0.182819475 4.67391304,0 C3.52163982,0.325214362 2.6846833,0.586083927 2.16304348,0.782608696 C1.64140366,0.979133464 0.920389167,1.30522042 0,1.76086957 Z" id="path-20"></path>
        <path d="M0,0.195652174 C0.144927536,1.24637681 0.391304348,1.91304348 0.739130435,2.19565217 C1.0707389,2.46508405 1.56700726,2.27017502 2.22793551,1.61092509 C2.28863495,1.55212378 2.30819738,1.4631329 2.27861753,1.38398013 L1.86766093,0.285461545 C1.80486681,0.11760801 1.63606926,0.0138667004 1.45795068,0.0336576542 L0,0.195652174 L0,0.195652174 Z" id="path-22"></path>
        <linearGradient x1="49.2509426%" y1="6.72205347e-16%" x2="41.8556409%" y2="63.685991%" id="linearGradient-24">
            <stop stop-color="#36AED1" offset="0%"></stop>
            <stop stop-color="#2D648E" offset="100%"></stop>
        </linearGradient>
        <path d="M10.5869565,6.60869565 C11.2446875,6.94101129 11.7628034,7.84680839 12.1413043,9.32608696 C12.4706445,10.6132327 12.7410999,12.0227132 12.9526706,13.5545285 L12.9530317,13.5544785 C13.0171122,14.0174417 12.9635474,14.4890878 12.7972805,14.9258906 C11.936492,17.189055 10.7863805,19.0556148 9.34782609,20.5259047 C7.907729,21.9977714 6.01898372,23.475655 3.68159025,24.9595557 C3.23586882,25.2412357 2.71949078,25.3911718 2.19222359,25.3913043 L0,25.3913043 L0,25.3913043 L0,0 L3.63310712,0 C3.84022259,2.95020414e-16 4.03889258,0.0821007743 4.18558561,0.228312844 L10.5869565,6.60869565 L10.5869565,6.60869565 Z" id="path-25"></path>
        <linearGradient x1="50%" y1="0%" x2="46.9125638%" y2="76.8904055%" id="linearGradient-27">
            <stop stop-color="#57D2F6" offset="0%"></stop>
            <stop stop-color="#429ADC" offset="100%"></stop>
        </linearGradient>
        <path d="M1.5,8.45652174 C1.6427065,7.17105698 1.82024273,6.1964193 2.0326087,5.5326087 C2.24497466,4.86879809 2.64352539,4.04271114 3.22826087,3.05434783 C5.22739786,2.6324593 6.69841236,2.25564771 7.64130435,1.92391304 C8.58419634,1.59217838 9.72912388,0.95087403 11.076087,0 L13.0434783,0.77173913 L13.6847826,8.45652174 L6.81521739,19.076087 L0,19.076087 L1.5,8.45652174 Z" id="path-28"></path>
        <path d="M14.5549551,1.39570944 C10.917274,-1.1840007 7.68176673,-0.187623893 4.8484334,4.38483987 C4.33149682,5.21907767 1.11180111,6.03955371 0.717998614,6.74353553 C-0.704924524,9.28722688 -0.0128955389,11.2220095 2.79408557,12.5478834 L14.5549551,1.39570944 Z" id="path-30"></path>
        <path d="M0,0 C0,0 0.534903915,0.0334816928 1.33695652,0.597889082 C2.2173913,1.2174543 4.21624668,3.62062593 4.7173913,7.34788908 C4.94927536,9.07252676 3.37681159,10.1848456 0,10.6848456 C0,3.5616152 0,0 0,0 Z" id="path-32"></path>
        <linearGradient x1="53.6656306%" y1="-3.46944695e-15%" x2="50%" y2="100%" id="linearGradient-34">
            <stop stop-color="#18586B" offset="0%"></stop>
            <stop stop-color="#1D7191" offset="100%"></stop>
        </linearGradient>
        <linearGradient x1="50%" y1="0%" x2="50%" y2="100%" id="linearGradient-35">
            <stop stop-color="#1D8CC0" offset="0%"></stop>
            <stop stop-color="#1D4C80" offset="100%"></stop>
        </linearGradient>
        <path d="M4.65217391,0 C3.49358696,1.51306017 2.6385145,2.60001669 2.08695652,3.26086957 C1.53539854,3.92172244 0.83974637,4.80578041 0,5.91304348 C0.330684428,6.35074589 0.59880037,6.68407922 0.804347826,6.91304348 C1.00989528,7.14200773 1.31424311,7.44635556 1.7173913,7.82608696 C2.06092223,7.74664551 2.31454541,7.68142812 2.47826087,7.63043478 C2.64197633,7.57944144 2.83038212,7.50697768 3.04347826,7.41304348 C3.24439456,7.66480831 3.40381485,7.84596773 3.52173913,7.95652174 C3.63966341,8.06707575 3.95850399,8.28809024 4.47826087,8.61956522 C4.9057971,7.29347826 5.1557971,6.04347826 5.22826087,4.86956522 C5.30072464,3.69565217 5.10869565,2.07246377 4.65217391,0 Z" id="path-36"></path>
        <linearGradient x1="100%" y1="12.6847994%" x2="16.2927154%" y2="87.3152006%" id="linearGradient-38">
            <stop stop-color="#3095B4" offset="0%"></stop>
            <stop stop-color="#113D67" offset="100%"></stop>
        </linearGradient>
        <path d="M0,1.76086957 C0.485507246,2.7173913 0.913043478,3.22463768 1.2826087,3.2826087 C1.65217391,3.34057971 2.65217391,2.94202899 4.2826087,2.08695652 L5.32608696,0.695652174 C5.16737486,0.570803713 5.05143283,0.469354438 4.97826087,0.391304348 C4.90508891,0.313254258 4.80363964,0.182819475 4.67391304,0 C3.52163982,0.325214362 2.6846833,0.586083927 2.16304348,0.782608696 C1.64140366,0.979133464 0.920389167,1.30522042 0,1.76086957 Z" id="path-39"></path>
        <path d="M0,0.195652174 C0.144927536,1.24637681 0.391304348,1.91304348 0.739130435,2.19565217 C1.0707389,2.46508405 1.56700726,2.27017502 2.22793551,1.61092509 C2.28863495,1.55212378 2.30819738,1.4631329 2.27861753,1.38398013 L1.86766093,0.285461545 C1.80486681,0.11760801 1.63606926,0.0138667004 1.45795068,0.0336576542 L0,0.195652174 L0,0.195652174 Z" id="path-41"></path>
        <circle id="path-43" cx="2.66304348" cy="1.16304348" r="1"></circle>
        <filter x="-450.0%" y="-450.0%" width="1000.0%" height="1000.0%" filterUnits="objectBoundingBox" id="filter-44">
            <feOffset dx="0" dy="0" in="SourceAlpha" result="shadowOffsetOuter1"></feOffset>
            <feGaussianBlur stdDeviation="1.5" in="shadowOffsetOuter1" result="shadowBlurOuter1"></feGaussianBlur>
            <feColorMatrix values="0 0 0 0 0.545098039   0 0 0 0 0.949019608   0 0 0 0 1  0 0 0 1 0" type="matrix" in="shadowBlurOuter1" result="shadowMatrixOuter1"></feColorMatrix>
            <feOffset dx="0" dy="0" in="SourceAlpha" result="shadowOffsetOuter2"></feOffset>
            <feGaussianBlur stdDeviation="0.5" in="shadowOffsetOuter2" result="shadowBlurOuter2"></feGaussianBlur>
            <feColorMatrix values="0 0 0 0 0.545098039   0 0 0 0 0.949019608   0 0 0 0 1  0 0 0 1 0" type="matrix" in="shadowBlurOuter2" result="shadowMatrixOuter2"></feColorMatrix>
            <feMerge>
                <feMergeNode in="shadowMatrixOuter1"></feMergeNode>
                <feMergeNode in="shadowMatrixOuter2"></feMergeNode>
            </feMerge>
        </filter>
    </defs>
    <g id="页面-1" stroke="none" stroke-width="1" fill="none" fill-rule="evenodd">
        <g id="AICODE_3" transform="translate(-696.000000, -885.000000)">
            <g id="编组-6" transform="translate(480.000000, 587.000000)">
                <g id="编组-3" transform="translate(0.000000, 211.000000)">
                    <g id="logo" transform="translate(214.000000, 87.000000)">
                        <path d="M20,1.81698095 C20.6830924,1.81698095 21.3661848,1.99367209 21.9782609,2.34705436 L34.2987689,9.46030301 C34.910845,9.81368528 35.4054102,10.3169151 35.7469564,10.9084905 C36.0885026,11.5000659 36.2770298,12.1799868 36.2770298,12.8867513 L36.2770298,27.1132487 C36.2770298,27.8200132 36.0885026,28.4999341 35.7469564,29.0915095 C35.4054102,29.6830849 34.910845,30.1863147 34.2987689,30.539697 L21.9782609,37.6529456 C20.7541088,38.3597102 19.2458912,38.3597102 18.0217391,37.6529456 L5.70123105,30.539697 C4.47707897,29.8329325 3.72297019,28.5267777 3.72297019,27.1132487 L3.72297019,12.8867513 C3.72297019,11.4732223 4.47707897,10.1670675 5.70123105,9.46030301 L18.0217391,2.34705436 C18.6338152,1.99367209 19.3169076,1.81698095 20,1.81698095 Z" id="多边形" stroke="url(#linearGradient-2)" stroke-width="2.08695652" fill="url(#linearGradient-1)"></path>
                        <g id="编组-6" transform="translate(6.956522, 2.826087)">
                            <g id="编组-5" filter="url(#filter-3)" transform="translate(0.000000, -0.000000)">
                                <g id="编组-4" transform="translate(13.043478, 0.000000)">
                                    <g id="路径-7" transform="translate(0.000000, 6.000000)">
                                        <mask id="mask-5" fill="white">
                                            <use xlink:href="#path-4"></use>
                                        </mask>
                                        <use id="蒙版" fill="#CB6E1A" xlink:href="#path-4"></use>
                                        <rect id="矩形" fill="#EE7C46" mask="url(#mask-5)" x="0" y="0" width="1" height="13.2173913"></rect>
                                        <path d="M1.5,14.8152174 C1.6427065,13.5297526 1.82024273,12.555115 2.0326087,11.8913043 C2.24497466,11.2274937 2.64352539,10.4014068 3.22826087,9.41304348 C5.22739786,8.99115496 6.69841236,8.61434336 7.64130435,8.2826087 C8.58419634,7.95087403 9.72912388,7.30956968 11.076087,6.35869565 L13.0434783,7.13043478 L13.6847826,14.8152174 L6.81521739,25.4347826 L0,25.4347826 L1.5,14.8152174 Z" fill="#FEA355" mask="url(#mask-5)"></path>
                                        <g id="路径-10" mask="url(#mask-5)">
                                            <g transform="translate(-0.717999, 15.169508)">
                                                <mask id="mask-7" fill="white">
                                                    <use xlink:href="#path-6"></use>
                                                </mask>
                                                <use id="蒙版" stroke="none" fill="#FFFFFF" fill-rule="evenodd" xlink:href="#path-6"></use>
                                                <path d="M6.76147687,-2.53907317 C6.7542305,2.12034712 8.29770876,5.92107176 11.3919117,8.86310074 C14.4861146,11.8051297 10.9281435,12.7073036 0.717998614,11.5696225 L0.717998614,-2.37602969 L6.76147687,-2.53907317 Z" id="路径-10" stroke="none" fill="#C8F4FD" fill-rule="evenodd" mask="url(#mask-7)"></path>
                                            </g>
                                        </g>
                                    </g>
                                    <g id="路径-6-+-路径-8-+-路径-9蒙版" transform="translate(0.000000, 18.804285)">
                                        <path d="M3.72826087,6.11962821 C3.88768116,6.20658473 4.72826087,6.80803401 6.25,7.92397604 C4.95289855,9.94571517 3.79710145,11.0254253 2.7826087,11.1631065 C1.76811594,11.3007876 0.84057971,11.1377442 0,10.673976 L0,6.11962821 C2.32608696,6.03267169 3.56884058,6.03267169 3.72826087,6.11962821 Z" id="路径-11" fill="#87BFD9"></path>
                                        <mask id="mask-9" fill="white">
                                            <use xlink:href="#path-8"></use>
                                        </mask>
                                        <use id="蒙版" fill="#FFFFFF" xlink:href="#path-8"></use>
                                        <rect id="矩形" fill="#CBD3DF" mask="url(#mask-9)" x="0" y="3.13043478" width="1" height="2.34782609"></rect>
                                        <path d="M0,-0.358632657 L0,2.56528039 C0.384057971,2.57252676 0.786231884,2.48557024 1.20652174,2.30441082 C1.62681159,2.1232514 2.05072464,1.64861372 2.47826087,0.880497778 L0,-0.358632657 Z" id="路径-6" fill="#D5FBFE" mask="url(#mask-9)"></path>
                                        <path d="M0,7.76093256 C0,7.76093256 1.36594203,8.59064271 4.09782609,10.250063 L0,11.4131065 C0,8.97832387 0,7.76093256 0,7.76093256 Z" id="路径-8" fill="#B0E9FE" mask="url(#mask-9)"></path>
                                        <polygon id="路径-9" fill="#2E6889" mask="url(#mask-9)" points="0 9.77180213 3.30434783 10.7935413 0 11.0218021"></polygon>
                                        <g id="编组-2" mask="url(#mask-9)">
                                            <g transform="translate(0.000000, 5.337020)">
                                                <path d="M0,0 C0.110945992,0 0.848397956,0.183495473 2.21235589,0.55048642 C2.6070494,0.654665237 2.84192828,1.05944661 2.73713561,1.45397707 C2.73166137,1.47458685 2.72529779,1.49495008 2.71847401,1.51515795 L2.46150044,2.23131382 C2.37458757,2.47353001 2.19764379,2.67291724 1.96747423,2.78800202 L0,3.77173913 L0,3.77173913 C0,1.88043478 0,0.623188406 0,0 Z" id="路径-4" fill="#08273B"></path>
                                                <path d="M4.63397436e-16,0.72826087 C0.0579710145,0.72826087 0.735507246,0.898550725 2.0326087,1.23913043 L4.63397436e-16,2.42391304 C4.63397436e-16,1.74275362 4.63397436e-16,1.17753623 4.63397436e-16,0.72826087 Z" id="路径-5" fill="#224A66"></path>
                                                <circle id="椭圆形" fill="#03121F" cx="1.30434783" cy="2.4673913" r="1"></circle>
                                            </g>
                                        </g>
                                    </g>
                                    <g id="编组">
                                        <path d="M0,6 L3.67523124,6 C3.83703297,6 3.99485736,6.05015029 4.12698101,6.14354804 L4.55434783,6.44565217 L4.55434783,6.44565217" id="路径-12" stroke="#FFFFFF" stroke-width="0.5"></path>
                                        <path d="M3.24765431,7.43370839 C3.05214191,7.2160445 3.853714,6.37556159 4.22521632,5.86652841 C6.63478829,2.56492832 8.39929281,0.63323872 9.26509154,0.0549026718 C10.2562047,-0.607140854 11.3722807,4.86527454 11.6764112,8.5437942 C11.8413341,10.5385706 10.900526,12.0944085 10.5902311,12.5488097 C10.3078243,12.9623711 7.80961033,11.1339944 6.74515393,10.1327406 C6.24143261,9.65892791 5.43498555,9.19991168 4.74658272,8.69615892 C3.9802629,8.13538882 3.35064647,7.54836952 3.24765431,7.43370839 Z" id="路径" fill="#A54C00"></path>
                                        <path d="M9.2826087,1.43478261 C8.12402175,2.94784278 7.26894928,4.0347993 6.7173913,4.69565217 C6.16583333,5.35650505 5.47018115,6.24056302 4.63043478,7.34782609 C4.96111921,7.7855285 5.22923515,8.11886183 5.43478261,8.34782609 C5.64033006,8.57679034 5.94467789,8.88113817 6.34782609,9.26086957 C6.69135701,9.18142812 6.9449802,9.11621073 7.10869565,9.06521739 C7.27241111,9.01422405 7.46081691,8.94176028 7.67391304,8.84782609 C7.87482935,9.09959092 8.03424964,9.28075034 8.15217391,9.39130435 C8.27009819,9.50185836 8.58893877,9.72287285 9.10869565,10.0543478 C9.53623188,8.72826087 9.78623188,7.47826087 9.85869565,6.30434783 C9.93115942,5.13043478 9.73913043,3.50724638 9.2826087,1.43478261 Z" id="路径-2" fill="#803100"></path>
                                        <path d="M3.22887326,7.26768194 C3.31909897,6.93248106 3.91861892,6.28662875 4.22521632,5.86652841 C6.63478829,2.56492832 8.39929281,0.63323872 9.26509154,0.0549026718 C10.2562047,-0.607140854 11.3722807,4.86527454 11.6764112,8.5437942 C11.8413341,10.5385706 10.900526,12.0944085 10.5902311,12.5488097 L10.5543478,12.5978261" id="路径" stroke="#FFFFFF" stroke-width="0.5"></path>
                                    </g>
                                    <g id="编组-3" transform="translate(2.793478, 17.336957)">
                                        <mask id="mask-11" fill="white">
                                            <use xlink:href="#path-10"></use>
                                        </mask>
                                        <use id="路径-3" fill="#050F1A" xlink:href="#path-10"></use>
                                        <g id="蒙版-+-路径-14蒙版" mask="url(#mask-11)">
                                            <g transform="translate(1.923913, 0.380435)">
                                                <mask id="mask-13" fill="white">
                                                    <use xlink:href="#path-12"></use>
                                                </mask>
                                                <use id="蒙版" stroke="none" fill="#092338" fill-rule="evenodd" xlink:href="#path-12"></use>
                                                <path d="M1.5326087,-0.380434783 L1.29461376,1.15331033 C1.25876228,1.38435326 1.30500154,1.62065474 1.42529474,1.82114341 L1.92391304,2.65217391 L1.92391304,2.65217391 L3.05434783,1.69565217 L1.5326087,-0.380434783 Z" id="蒙版" stroke="none" fill="#113147" fill-rule="evenodd" mask="url(#mask-13)"></path>
                                                <path d="M1.16304348,-0.467391304 C1.16304348,-0.410948822 1.18708596,0.215644028 1.23517093,1.41238725 L1.23526239,1.41238167 C1.23818787,1.46031724 1.27941891,1.49680512 1.32735448,1.49387964 C1.33125797,1.49364141 1.33514094,1.49314012 1.33897694,1.49237919 C1.54315791,1.45351453 1.70914324,1.41253692 1.83695652,1.36956522 C1.98501172,1.31978804 2.20602622,1.22558514 2.5,1.08695652 L1.83695652,-0.565217391 C1.38768116,-0.557971014 1.16304348,-0.525362319 1.16304348,-0.467391304 Z" id="路径-14" stroke="none" fill="#365E77" fill-rule="evenodd" mask="url(#mask-13)"></path>
                                            </g>
                                        </g>
                                        <circle id="椭圆形" fill="#FFFFFF" mask="url(#mask-11)" transform="translate(2.663043, 1.163043) rotate(30.000000) translate(-2.663043, -1.163043) " cx="2.66304348" cy="1.16304348" r="1"></circle>
                                    </g>
                                </g>
                                <g id="编组-4" transform="translate(6.521739, 15.695652) scale(-1, 1) translate(-6.521739, -15.695652) ">
                                    <g id="路径-7" transform="translate(0.000000, 6.000000)">
                                        <mask id="mask-15" fill="white">
                                            <use xlink:href="#path-14"></use>
                                        </mask>
                                        <use id="蒙版" fill="#CB6E1A" xlink:href="#path-14"></use>
                                        <path d="M1.5,14.8152174 C1.6427065,13.5297526 1.82024273,12.555115 2.0326087,11.8913043 C2.24497466,11.2274937 2.64352539,10.4014068 3.22826087,9.41304348 C5.22739786,8.99115496 6.69841236,8.61434336 7.64130435,8.2826087 C8.58419634,7.95087403 9.72912388,7.30956968 11.076087,6.35869565 L13.0434783,7.13043478 L13.6847826,14.8152174 L6.81521739,25.4347826 L0,25.4347826 L1.5,14.8152174 Z" fill="#FEA355" mask="url(#mask-15)"></path>
                                        <g id="路径-10" mask="url(#mask-15)">
                                            <g transform="translate(-0.717999, 15.169508)">
                                                <mask id="mask-17" fill="white">
                                                    <use xlink:href="#path-16"></use>
                                                </mask>
                                                <use id="蒙版" stroke="none" fill="#FFFFFF" fill-rule="evenodd" xlink:href="#path-16"></use>
                                                <path d="M6.76147687,-2.53907317 C6.7542305,2.12034712 8.29770876,5.92107176 11.3919117,8.86310074 C14.4861146,11.8051297 10.9281435,12.7073036 0.717998614,11.5696225 L0.717998614,-2.37602969 L6.76147687,-2.53907317 Z" id="路径-10" stroke="none" fill="#C8F4FD" fill-rule="evenodd" mask="url(#mask-17)"></path>
                                            </g>
                                        </g>
                                    </g>
                                    <g id="路径-6-+-路径-8-+-路径-9蒙版" transform="translate(0.000000, 18.804285)">
                                        <path d="M3.72826087,6.11962821 C3.88768116,6.20658473 4.72826087,6.80803401 6.25,7.92397604 C4.95289855,9.94571517 3.79710145,11.0254253 2.7826087,11.1631065 C1.76811594,11.3007876 0.84057971,11.1377442 0,10.673976 L0,6.11962821 C2.32608696,6.03267169 3.56884058,6.03267169 3.72826087,6.11962821 Z" id="路径-11" fill="#87BFD9"></path>
                                        <mask id="mask-19" fill="white">
                                            <use xlink:href="#path-18"></use>
                                        </mask>
                                        <use id="蒙版" fill="#FFFFFF" xlink:href="#path-18"></use>
                                        <path d="M0,-0.358632657 L0,2.56528039 C0.384057971,2.57252676 0.786231884,2.48557024 1.20652174,2.30441082 C1.62681159,2.1232514 2.05072464,1.64861372 2.47826087,0.880497778 L0,-0.358632657 Z" id="路径-6" fill="#D5FBFE" mask="url(#mask-19)"></path>
                                        <path d="M0,7.76093256 C0,7.76093256 1.36594203,8.59064271 4.09782609,10.250063 L0,11.4131065 C0,8.97832387 0,7.76093256 0,7.76093256 Z" id="路径-8" fill="#B0E9FE" mask="url(#mask-19)"></path>
                                        <polygon id="路径-9" fill="#2E6889" mask="url(#mask-19)" points="0 9.77180213 3.30434783 10.7935413 0 11.0218021"></polygon>
                                        <g id="编组-2" mask="url(#mask-19)">
                                            <g transform="translate(0.000000, 5.337020)">
                                                <path d="M0,0 C0.110945992,0 0.848397956,0.183495473 2.21235589,0.55048642 C2.6070494,0.654665237 2.84192828,1.05944661 2.73713561,1.45397707 C2.73166137,1.47458685 2.72529779,1.49495008 2.71847401,1.51515795 L2.46150044,2.23131382 C2.37458757,2.47353001 2.19764379,2.67291724 1.96747423,2.78800202 L0,3.77173913 L0,3.77173913 C0,1.88043478 0,0.623188406 0,0 Z" id="路径-4" fill="#08273B"></path>
                                                <path d="M4.63397436e-16,0.72826087 C0.0579710145,0.72826087 0.735507246,0.898550725 2.0326087,1.23913043 L4.63397436e-16,2.42391304 C4.63397436e-16,1.74275362 4.63397436e-16,1.17753623 4.63397436e-16,0.72826087 Z" id="路径-5" fill="#224A66"></path>
                                                <circle id="椭圆形" fill="#03121F" cx="1.30434783" cy="2.4673913" r="1"></circle>
                                            </g>
                                        </g>
                                    </g>
                                    <g id="编组">
                                        <path d="M0,6 L3.67523124,6 C3.83703297,6 3.99485736,6.05015029 4.12698101,6.14354804 L4.55434783,6.44565217 L4.55434783,6.44565217" id="路径-12" stroke="#FFFFFF" stroke-width="0.5"></path>
                                        <path d="M3.24765431,7.43370839 C3.05214191,7.2160445 3.853714,6.37556159 4.22521632,5.86652841 C6.63478829,2.56492832 8.39929281,0.63323872 9.26509154,0.0549026718 C10.2562047,-0.607140854 11.3722807,4.86527454 11.6764112,8.5437942 C11.8413341,10.5385706 10.900526,12.0944085 10.5902311,12.5488097 C10.3078243,12.9623711 7.80961033,11.1339944 6.74515393,10.1327406 C6.24143261,9.65892791 5.43498555,9.19991168 4.74658272,8.69615892 C3.9802629,8.13538882 3.35064647,7.54836952 3.24765431,7.43370839 Z" id="路径" fill="#A54C00"></path>
                                        <path d="M9.2826087,1.43478261 C8.12402175,2.94784278 7.26894928,4.0347993 6.7173913,4.69565217 C6.16583333,5.35650505 5.47018115,6.24056302 4.63043478,7.34782609 C4.96111921,7.7855285 5.22923515,8.11886183 5.43478261,8.34782609 C5.64033006,8.57679034 5.94467789,8.88113817 6.34782609,9.26086957 C6.69135701,9.18142812 6.9449802,9.11621073 7.10869565,9.06521739 C7.27241111,9.01422405 7.46081691,8.94176028 7.67391304,8.84782609 C7.87482935,9.09959092 8.03424964,9.28075034 8.15217391,9.39130435 C8.27009819,9.50185836 8.58893877,9.72287285 9.10869565,10.0543478 C9.53623188,8.72826087 9.78623188,7.47826087 9.85869565,6.30434783 C9.93115942,5.13043478 9.73913043,3.50724638 9.2826087,1.43478261 Z" id="路径-2" fill="#803100"></path>
                                        <path d="M3.22887326,7.26768194 C3.31909897,6.93248106 3.91861892,6.28662875 4.22521632,5.86652841 C6.63478829,2.56492832 8.39929281,0.63323872 9.26509154,0.0549026718 C10.2562047,-0.607140854 11.3722807,4.86527454 11.6764112,8.5437942 C11.8413341,10.5385706 10.900526,12.0944085 10.5902311,12.5488097 L10.5543478,12.5978261" id="路径" stroke="#FFFFFF" stroke-width="0.5"></path>
                                    </g>
                                    <g id="编组-3" transform="translate(2.793478, 17.336957)">
                                        <mask id="mask-21" fill="white">
                                            <use xlink:href="#path-20"></use>
                                        </mask>
                                        <use id="路径-3" fill="#050F1A" xlink:href="#path-20"></use>
                                        <g id="蒙版-+-路径-14蒙版" mask="url(#mask-21)">
                                            <g transform="translate(1.923913, 0.380435)">
                                                <mask id="mask-23" fill="white">
                                                    <use xlink:href="#path-22"></use>
                                                </mask>
                                                <use id="蒙版" stroke="none" fill="#092338" fill-rule="evenodd" xlink:href="#path-22"></use>
                                                <path d="M1.5326087,-0.380434783 L1.29461376,1.15331033 C1.25876228,1.38435326 1.30500154,1.62065474 1.42529474,1.82114341 L1.92391304,2.65217391 L1.92391304,2.65217391 L3.05434783,1.69565217 L1.5326087,-0.380434783 Z" id="蒙版" stroke="none" fill="#113147" fill-rule="evenodd" mask="url(#mask-23)"></path>
                                                <path d="M1.16304348,-0.467391304 C1.16304348,-0.410948822 1.18708596,0.215644028 1.23517093,1.41238725 L1.23526239,1.41238167 C1.23818787,1.46031724 1.27941891,1.49680512 1.32735448,1.49387964 C1.33125797,1.49364141 1.33514094,1.49314012 1.33897694,1.49237919 C1.54315791,1.45351453 1.70914324,1.41253692 1.83695652,1.36956522 C1.98501172,1.31978804 2.20602622,1.22558514 2.5,1.08695652 L1.83695652,-0.565217391 C1.38768116,-0.557971014 1.16304348,-0.525362319 1.16304348,-0.467391304 Z" id="路径-14" stroke="none" fill="#365E77" fill-rule="evenodd" mask="url(#mask-23)"></path>
                                            </g>
                                        </g>
                                        <circle id="椭圆形" fill="#FFFFFF" mask="url(#mask-21)" transform="translate(2.663043, 1.163043) rotate(30.000000) translate(-2.663043, -1.163043) " cx="2.66304348" cy="1.16304348" r="1"></circle>
                                    </g>
                                </g>
                            </g>
                            <g id="编组-4" transform="translate(13.043478, -0.000000)">
                                <g id="路径-7" transform="translate(0.000000, 6.000000)">
                                    <mask id="mask-26" fill="white">
                                        <use xlink:href="#path-25"></use>
                                    </mask>
                                    <use id="蒙版" fill="url(#linearGradient-24)" xlink:href="#path-25"></use>
                                    <g id="编组-7" mask="url(#mask-26)">
                                        <g transform="translate(0.000000, 6.358696)">
                                            <mask id="mask-29" fill="white">
                                                <use xlink:href="#path-28"></use>
                                            </mask>
                                            <use id="蒙版" stroke="none" fill="url(#linearGradient-27)" fill-rule="evenodd" xlink:href="#path-28"></use>
                                            <g id="编组-7" stroke="none" stroke-width="1" fill="none" fill-rule="evenodd" mask="url(#mask-29)">
                                                <g transform="translate(1.304348, -0.217391)" stroke="#8BF2FF" stroke-width="0.5">
                                                    <line x1="7.80434783" y1="0" x2="7.34782609" y2="3.5326087" id="路径-16"></line>
                                                    <circle id="椭圆形" cx="8.34782609" cy="4.81521739" r="1"></circle>
                                                    <circle id="椭圆形" cx="9.86956522" cy="7.59782609" r="1"></circle>
                                                    <circle id="椭圆形" cx="6.30434783" cy="8.81521739" r="1"></circle>
                                                    <line x1="8.36521739" y1="5.19565217" x2="8.36521739" y2="7.08695652" id="路径-18"></line>
                                                    <line x1="9.80434783" y1="7.94565217" x2="7.79347826" y2="10.3913043" id="路径-19"></line>
                                                    <line x1="9" y1="6.35869565" x2="9.7173913" y2="7.29347826" id="路径-20"></line>
                                                    <line x1="1.06521739" y1="9.22826087" x2="5.95652174" y2="8.88043478" id="路径-22"></line>
                                                    <polyline id="路径-23" points="6.15217391 4.4673913 4.15217391 3.70652174 1.40946282e-17 6.05434783"></polyline>
                                                    <line x1="7.57608696" y1="2.32608696" x2="11.2608696" y2="2.84782609" id="路径-17"></line>
                                                </g>
                                            </g>
                                        </g>
                                    </g>
                                    <g id="路径-10" mask="url(#mask-26)">
                                        <g transform="translate(-0.717999, 15.169508)">
                                            <mask id="mask-31" fill="white">
                                                <use xlink:href="#path-30"></use>
                                            </mask>
                                            <use id="蒙版" stroke="none" fill="#FFFFFF" fill-rule="evenodd" xlink:href="#path-30"></use>
                                            <path d="M6.76147687,-2.53907317 C6.7542305,2.12034712 8.29770876,5.92107176 11.3919117,8.86310074 C14.4861146,11.8051297 10.9281435,12.7073036 0.717998614,11.5696225 L0.717998614,-2.37602969 L6.76147687,-2.53907317 Z" id="路径-10" stroke="none" fill="#C8F4FD" fill-rule="evenodd" mask="url(#mask-31)"></path>
                                        </g>
                                    </g>
                                </g>
                                <g id="路径-6-+-路径-8-+-路径-9蒙版" transform="translate(0.000000, 18.804285)">
                                    <path d="M3.72826087,6.11962821 C3.88768116,6.20658473 4.72826087,6.80803401 6.25,7.92397604 C4.95289855,9.94571517 3.79710145,11.0254253 2.7826087,11.1631065 C1.76811594,11.3007876 0.84057971,11.1377442 0,10.673976 L0,6.11962821 C2.32608696,6.03267169 3.56884058,6.03267169 3.72826087,6.11962821 Z" id="路径-11" fill="#87BFD9"></path>
                                    <mask id="mask-33" fill="white">
                                        <use xlink:href="#path-32"></use>
                                    </mask>
                                    <use id="蒙版" fill="#FFFFFF" xlink:href="#path-32"></use>
                                    <path d="M0,-0.358632657 L0,2.56528039 C0.384057971,2.57252676 0.786231884,2.48557024 1.20652174,2.30441082 C1.62681159,2.1232514 2.05072464,1.64861372 2.47826087,0.880497778 L0,-0.358632657 Z" id="路径-6" fill="#D5FBFE" mask="url(#mask-33)"></path>
                                    <path d="M0,7.76093256 C0,7.76093256 1.36594203,8.59064271 4.09782609,10.250063 L0,11.4131065 C0,8.97832387 0,7.76093256 0,7.76093256 Z" id="路径-8" fill="#B0E9FE" mask="url(#mask-33)"></path>
                                    <polygon id="路径-9" fill="#2E6889" mask="url(#mask-33)" points="0 9.77180213 3.30434783 10.7935413 0 11.0218021"></polygon>
                                    <g id="编组-2" mask="url(#mask-33)">
                                        <g transform="translate(0.000000, 5.337020)">
                                            <path d="M0,0 C0.110945992,0 0.848397956,0.183495473 2.21235589,0.55048642 C2.6070494,0.654665237 2.84192828,1.05944661 2.73713561,1.45397707 C2.73166137,1.47458685 2.72529779,1.49495008 2.71847401,1.51515795 L2.46150044,2.23131382 C2.37458757,2.47353001 2.19764379,2.67291724 1.96747423,2.78800202 L0,3.77173913 L0,3.77173913 C0,1.88043478 0,0.623188406 0,0 Z" id="路径-4" fill="#08273B"></path>
                                            <path d="M4.63397436e-16,0.72826087 C0.0579710145,0.72826087 0.735507246,0.898550725 2.0326087,1.23913043 L4.63397436e-16,2.42391304 C4.63397436e-16,1.74275362 4.63397436e-16,1.17753623 4.63397436e-16,0.72826087 Z" id="路径-5" fill="#224A66"></path>
                                            <circle id="椭圆形" fill="#03121F" cx="1.30434783" cy="2.4673913" r="1"></circle>
                                        </g>
                                    </g>
                                </g>
                                <g id="编组">
                                    <path d="M0,6 L3.67523124,6 C3.83703297,6 3.99485736,6.05015029 4.12698101,6.14354804 L4.55434783,6.44565217 L4.55434783,6.44565217" id="路径-12" stroke="#FFFFFF" stroke-width="0.5"></path>
                                    <path d="M3.24765431,7.43370839 C3.05214191,7.2160445 3.853714,6.37556159 4.22521632,5.86652841 C6.63478829,2.56492832 8.39929281,0.63323872 9.26509154,0.0549026718 C10.2562047,-0.607140854 11.3722807,4.86527454 11.6764112,8.5437942 C11.8413341,10.5385706 10.900526,12.0944085 10.5902311,12.5488097 C10.3078243,12.9623711 7.80961033,11.1339944 6.74515393,10.1327406 C6.24143261,9.65892791 5.43498555,9.19991168 4.74658272,8.69615892 C3.9802629,8.13538882 3.35064647,7.54836952 3.24765431,7.43370839 Z" id="路径" fill="url(#linearGradient-34)"></path>
                                    <g id="路径-13" transform="translate(4.630435, 1.434783)">
                                        <mask id="mask-37" fill="white">
                                            <use xlink:href="#path-36"></use>
                                        </mask>
                                        <use id="蒙版" fill="url(#linearGradient-35)" xlink:href="#path-36"></use>
                                        <polygon fill="#113D67" mask="url(#mask-37)" points="0.0869565217 6.64130435 3.14130435 6.64130435 5.01086957 7.73913043 4.60869565 9.07608696 0.826086957 7.48913043"></polygon>
                                        <path d="M0.663043478,4.05434783 C0.77173913,4.05434783 1.71376812,4 3.48913043,3.89130435 L0.826086957,7.27173913 L-0.423913043,5.79347826 C0.192028986,4.63405797 0.554347826,4.05434783 0.663043478,4.05434783 Z" id="路径-15" fill="url(#linearGradient-38)" mask="url(#mask-37)"></path>
                                    </g>
                                    <path d="M3.22887326,7.26768194 C3.31909897,6.93248106 3.91861892,6.28662875 4.22521632,5.86652841 C6.63478829,2.56492832 8.39929281,0.63323872 9.26509154,0.0549026718 C10.2562047,-0.607140854 11.3722807,4.86527454 11.6764112,8.5437942 C11.8413341,10.5385706 10.900526,12.0944085 10.5902311,12.5488097 L10.5543478,12.5978261" id="路径" stroke="#FFFFFF" stroke-width="0.5"></path>
                                </g>
                                <g id="编组-3" transform="translate(2.793478, 17.336957)">
                                    <mask id="mask-40" fill="white">
                                        <use xlink:href="#path-39"></use>
                                    </mask>
                                    <use id="路径-3" fill="#050F1A" xlink:href="#path-39"></use>
                                    <g id="蒙版-+-路径-14蒙版" mask="url(#mask-40)">
                                        <g transform="translate(1.923913, 0.380435)">
                                            <mask id="mask-42" fill="white">
                                                <use xlink:href="#path-41"></use>
                                            </mask>
                                            <use id="蒙版" stroke="none" fill="#092338" fill-rule="evenodd" xlink:href="#path-41"></use>
                                            <path d="M1.5326087,-0.380434783 L1.29461376,1.15331033 C1.25876228,1.38435326 1.30500154,1.62065474 1.42529474,1.82114341 L1.92391304,2.65217391 L1.92391304,2.65217391 L3.05434783,1.69565217 L1.5326087,-0.380434783 Z" id="蒙版" stroke="none" fill="#113147" fill-rule="evenodd" mask="url(#mask-42)"></path>
                                            <path d="M1.16304348,-0.467391304 C1.16304348,-0.410948822 1.18708596,0.215644028 1.23517093,1.41238725 L1.23526239,1.41238167 C1.23818787,1.46031724 1.27941891,1.49680512 1.32735448,1.49387964 C1.33125797,1.49364141 1.33514094,1.49314012 1.33897694,1.49237919 C1.54315791,1.45351453 1.70914324,1.41253692 1.83695652,1.36956522 C1.98501172,1.31978804 2.20602622,1.22558514 2.5,1.08695652 L1.83695652,-0.565217391 C1.38768116,-0.557971014 1.16304348,-0.525362319 1.16304348,-0.467391304 Z" id="路径-14" stroke="none" fill="#365E77" fill-rule="evenodd" mask="url(#mask-42)"></path>
                                        </g>
                                    </g>
                                    <g id="椭圆形" mask="url(#mask-40)" transform="translate(2.663043, 1.163043) rotate(30.000000) translate(-2.663043, -1.163043) ">
                                        <use fill="black" fill-opacity="1" filter="url(#filter-44)" xlink:href="#path-43"></use>
                                        <use fill="#8BF2FF" fill-rule="evenodd" xlink:href="#path-43"></use>
                                    </g>
                                </g>
                            </g>
                        </g>
                    </g>
                </g>
            </g>
        </g>
    </g>
</svg>