<?xml version="1.0" encoding="utf-8"?>
<!-- Generator: Adobe Illustrator 27.4.0, SVG Export Plug-In . SVG Version: 6.00 Build 0)  -->
<svg version="1.1" id="Layer_1" xmlns:xodm="http://www.corel.com/coreldraw/odm/2003"
	 xmlns="http://www.w3.org/2000/svg" xmlns:xlink="http://www.w3.org/1999/xlink" x="0px" y="0px" viewBox="0 0 2500 2500"
	 style="enable-background:new 0 0 2500 2500;" xml:space="preserve">
<style type="text/css">
	.st0{fill:none;}
	.st1{fill:#00EBAB;}
</style>
<g>
	<circle cx="1250" cy="1250" r="1223.5"/>
</g>
<g id="Layer_x0020_1">
	<g id="_2405588477232">
		<rect x="360.8" y="409.9" class="st0" width="1778.3" height="1778.3"/>
		<g>
			<g>
				<g>
					<path d="M521.6,950.5v697.1c0,44.8,23.5,85.4,62.6,108.1l603.9,348.6c38.4,22.1,86.1,22.1,124.5,0l603.9-348.6
						c38.4-22.1,62.6-63.3,62.6-108.1V950.5c0-44.8-23.5-85.4-62.6-108.1l-603.9-348.6c-38.4-22.1-86.1-22.1-124.5,0L584.2,842.3
						c-38.4,22.1-61.9,63.3-61.9,108.1H521.6z"/>
				</g>
				<g>
					<g>
						<g>
							<path class="st1" d="M1381.6,1434.2l-86.1,236.2c-2.1,6.4-2.1,13.5,0,20.6l148,406.2l171.4-98.9l-205.6-564.1
								C1404.4,1421.4,1386.6,1421.4,1381.6,1434.2z"/>
						</g>
						<g>
							<path class="st1" d="M1554.5,1037.2c-5-12.8-22.8-12.8-27.7,0l-86.1,236.2c-2.1,6.4-2.1,13.5,0,20.6l242.6,665.1l171.4-98.9
								L1554.5,1038V1037.2z"/>
						</g>
					</g>
				</g>
				<g>
					<path class="st1" d="M1250,520.1c4.3,0,8.5,1.4,12.1,3.6l653,377c7.8,4.3,12.1,12.8,12.1,21.3v754c0,8.5-5,17.1-12.1,21.3
						l-653,377c-3.6,2.1-7.8,3.6-12.1,3.6s-8.5-1.4-12.1-3.6l-653-377c-7.8-4.3-12.1-12.8-12.1-21.3V921.3c0-8.5,5-17.1,12.1-21.3
						l653-377c3.6-2.1,7.8-3.6,12.1-3.6l0,0V520.1z M1250,409.9c-23.5,0-46.2,5.7-67.6,17.8l-653,377c-42,24.2-67.6,68.3-67.6,116.7
						v754c0,48.4,25.6,92.5,67.6,116.7l653,377c20.6,12.1,44.1,17.8,67.6,17.8s46.2-5.7,67.6-17.8l653-377
						c42-24.2,67.6-68.3,67.6-116.7v-754c0-48.4-25.6-92.5-67.6-116.7l-653.7-377c-20.6-12.1-44.1-17.8-67.6-17.8l0,0H1250z"/>
				</g>
				<g>
					<path class="st1" d="M1194.5,868h-165.7c-12.1,0-23.5,7.8-27.7,19.2l-355,973.1l171.4,98.9l391.2-1072
						c3.6-10-3.6-19.9-13.5-19.9L1194.5,868z"/>
					<path class="st1" d="M1484.7,868H1319c-12.1,0-23.5,7.8-27.7,19.2L885.8,1998.3l171.4,98.9l441-1210c3.6-10-3.6-19.9-13.5-19.9
						V868z"/>
				</g>
			</g>
		</g>
	</g>
</g>
<path class="st1" d="M1875.2,372h-169.8V414h168.3v42.1h-168.3v126.3h210.4v-42.1h-168.3v-42.1h168.3V372
	C1915.7,372,1875.2,372,1875.2,372z"/>
</svg>
