<?xml version="1.0" encoding="UTF-8"?>
<svg id="Layer_2" data-name="Layer 2" xmlns="http://www.w3.org/2000/svg" xmlns:xlink="http://www.w3.org/1999/xlink" viewBox="0 0 204 204">
  <defs>
    <style>
      .cls-1 {
        fill: url(#linear-gradient);
      }

      .cls-2 {
        fill: #dde3f2;
      }

      .cls-3 {
        fill: url(#linear-gradient-8);
      }

      .cls-4 {
        fill: url(#linear-gradient-9);
      }

      .cls-5 {
        fill: url(#linear-gradient-3);
      }

      .cls-6 {
        fill: url(#linear-gradient-4);
      }

      .cls-7 {
        fill: url(#linear-gradient-2);
      }

      .cls-8 {
        fill: url(#linear-gradient-6);
      }

      .cls-9 {
        fill: url(#linear-gradient-7);
      }

      .cls-10 {
        fill: url(#linear-gradient-5);
      }

      .cls-11 {
        fill: url(#linear-gradient-10);
      }
    </style>
    <linearGradient id="linear-gradient" x1="54.05" y1="36.85" x2="110.76" y2="177.06" gradientUnits="userSpaceOnUse">
      <stop offset="0" stop-color="#303544"/>
      <stop offset="1" stop-color="#010214"/>
    </linearGradient>
    <linearGradient id="linear-gradient-2" x1="60.59" y1="34.21" x2="117.3" y2="174.41" xlink:href="#linear-gradient"/>
    <linearGradient id="linear-gradient-3" x1="65.75" y1="32.12" x2="122.47" y2="172.32" xlink:href="#linear-gradient"/>
    <linearGradient id="linear-gradient-4" x1="69.58" y1="30.57" x2="126.29" y2="170.78" xlink:href="#linear-gradient"/>
    <linearGradient id="linear-gradient-5" x1="74.93" y1="28.41" x2="131.65" y2="168.61" xlink:href="#linear-gradient"/>
    <linearGradient id="linear-gradient-6" x1="73.72" y1="28.9" x2="130.44" y2="169.1" xlink:href="#linear-gradient"/>
    <linearGradient id="linear-gradient-7" x1="74.82" y1="28.45" x2="131.53" y2="168.66" xlink:href="#linear-gradient"/>
    <linearGradient id="linear-gradient-8" x1="74.46" y1="28.6" x2="131.17" y2="168.8" xlink:href="#linear-gradient"/>
    <linearGradient id="linear-gradient-9" x1="72.18" y1="29.52" x2="128.89" y2="169.73" xlink:href="#linear-gradient"/>
    <linearGradient id="linear-gradient-10" x1="74.67" y1="28.51" x2="131.38" y2="168.72" xlink:href="#linear-gradient"/>
  </defs>
  <g id="Layer_1-2" data-name="Layer 1">
    <g>
      <circle class="cls-2" cx="102" cy="102" r="102"/>
      <g>
        <path class="cls-1" d="m104.29,36.82c-.02-.85-.04-.88-.91-.81-.02,0-.03,0-.05,0-2.02.21-4.06.23-6.08.5-1.42.19-2.85.38-4.25.65-2,.38-3.98.83-5.94,1.39-2.29.65-4.53,1.42-6.75,2.27-2.67,1.03-5.23,2.27-7.75,3.63-2.86,1.55-5.58,3.3-8.19,5.25-2.01,1.5-3.94,3.09-5.76,4.81-1.45,1.37-2.88,2.75-4.2,4.25-1.72,1.96-3.39,3.97-4.91,6.09-1.56,2.19-3.01,4.45-4.31,6.8-1.34,2.43-2.55,4.91-3.58,7.47-1.29,3.21-2.37,6.5-3.15,9.87-.34,1.47-.71,2.94-.93,4.44-.25,1.75-.52,3.51-.65,5.28-.16,2.19-.28,4.37-.27,6.57.04,1.92.06,3.83.22,5.74.15,1.85.39,3.68.7,5.5.31,1.77.66,3.54,1.13,5.29.62,2.34,1.3,4.66,2.14,6.94,1.06,2.88,2.3,5.66,3.73,8.37,1.48,2.82,3.16,5.52,5.01,8.11,1.84,2.58,3.87,5.01,6.05,7.3,2.46,2.59,5.11,4.98,7.94,7.16,1.86,1.43,3.8,2.75,5.79,4,2.21,1.4,4.51,2.63,6.87,3.75,1.98.94,4.01,1.77,6.08,2.5,1.75.62,3.51,1.18,5.3,1.66,1.31.35,2.63.67,3.96.95,1.77.37,3.54.71,5.34.89,1.52.16,3.03.35,4.56.42,1.54.07,3.08.16,4.63.13.31,0,.45-.15.44-.46,0-.71-.02-1.42-.02-2.13,0-.3-.12-.45-.44-.46-1.6-.05-3.21-.13-4.81-.17-1.5-.03-2.98-.24-4.47-.43-1.76-.23-3.5-.55-5.24-.92-2.8-.6-5.55-1.38-8.24-2.34-2.66-.94-5.25-2.07-7.76-3.38-1.77-.92-3.5-1.9-5.19-2.96-1.65-1.03-3.23-2.16-4.78-3.34-1.41-1.08-2.8-2.18-4.1-3.39-1.48-1.38-2.95-2.76-4.32-4.27-1.09-1.2-2.14-2.43-3.16-3.69-1.39-1.74-2.67-3.55-3.88-5.42-1.44-2.2-2.73-4.49-3.87-6.85-.93-1.93-1.78-3.9-2.51-5.92-1.03-2.85-1.91-5.74-2.53-8.71-.26-1.25-.5-2.51-.71-3.77-.13-.75-.18-1.5-.3-2.25-.28-1.79-.41-3.59-.46-5.38-.05-1.69-.03-3.39,0-5.09.03-1.52.14-3.02.29-4.52.14-1.34.35-2.69.56-4.03.41-2.68,1.05-5.3,1.8-7.89.72-2.51,1.63-4.96,2.67-7.36,1.15-2.64,2.45-5.2,3.93-7.67,1.33-2.23,2.8-4.36,4.39-6.42,1.31-1.7,2.71-3.33,4.15-4.91,1.17-1.28,2.43-2.46,3.71-3.62,1.55-1.42,3.17-2.75,4.85-4.02,1.64-1.24,3.36-2.36,5.1-3.45,2.05-1.28,4.18-2.39,6.34-3.44,1.43-.69,2.91-1.27,4.39-1.86,2.19-.86,4.42-1.56,6.69-2.17,1.86-.5,3.75-.9,5.65-1.23,1.34-.23,2.68-.47,4.02-.58,1.86-.15,3.71-.38,5.58-.38.39,0,.52-.19.5-.55-.03-.59-.05-1.17-.06-1.76Z"/>
        <path class="cls-7" d="m114.74,43.62c-.73-.17-1.47-.17-2.2-.27-2.62-.39-5.26-.39-7.9-.5-.5-.02-.97.16-1.47.17-1.08.02-2.16-.06-3.23.16-1.18.24-2.39.24-3.58.44-2.01.34-4,.71-5.98,1.21-2.58.64-5.11,1.44-7.58,2.43-3.01,1.2-5.93,2.61-8.72,4.27-3.11,1.85-6.06,3.94-8.81,6.3-1.94,1.67-3.79,3.44-5.52,5.34-1.93,2.13-3.72,4.38-5.36,6.73-1.67,2.4-3.12,4.93-4.43,7.54-.68,1.35-1.28,2.74-1.86,4.14-.42,1.01-.85,2.03-1.18,3.07-.67,2.1-1.31,4.21-1.8,6.37-.49,2.17-.91,4.35-1.18,6.55-.32,2.57-.44,5.17-.43,7.61.04,3.1.21,6.04.66,8.96.33,2.14.72,4.26,1.28,6.35.4,1.5.84,3,1.36,4.47.69,1.97,1.45,3.91,2.3,5.81,1.38,3.05,3.04,5.94,4.88,8.72,2.07,3.12,4.42,6.02,7.02,8.71,1.22,1.27,2.51,2.47,3.84,3.63,2.04,1.78,4.19,3.4,6.43,4.91,2.37,1.6,4.87,2.99,7.45,4.24,2.62,1.27,5.32,2.34,8.09,3.19,1.47.46,2.96.87,4.46,1.24,1.26.31,2.54.52,3.81.77.21.04.48.07.53-.22.15-.79.27-1.58.39-2.37.03-.22-.08-.4-.33-.42-.68-.05-1.34-.24-2-.37-1.55-.3-3.08-.67-4.59-1.11-2.74-.81-5.42-1.78-8.03-2.98-1.81-.83-3.58-1.75-5.3-2.76-1.73-1.02-3.4-2.12-5.02-3.31-1.83-1.34-3.58-2.78-5.25-4.32-1.36-1.26-2.7-2.54-3.91-3.95-1.39-1.63-2.78-3.26-4.01-5.03-1.27-1.83-2.49-3.68-3.57-5.63-.86-1.55-1.65-3.14-2.37-4.77-.64-1.46-1.25-2.92-1.76-4.43-.5-1.49-.97-3-1.39-4.51-.31-1.1-.59-2.21-.77-3.34-.18-1.16-.41-2.3-.57-3.47-.28-2.05-.49-4.11-.55-6.17-.08-2.84,0-5.67.38-8.5.17-1.28.3-2.57.51-3.85.43-2.69,1.14-5.31,1.95-7.91.36-1.13.79-2.24,1.22-3.34.6-1.56,1.26-3.09,2.01-4.58,1.15-2.29,2.42-4.51,3.86-6.65,1.43-2.13,2.99-4.17,4.68-6.09.99-1.12,2.01-2.22,3.09-3.25,1.79-1.71,3.63-3.35,5.61-4.84,3.07-2.33,6.33-4.36,9.8-6.04,2.42-1.17,4.9-2.19,7.46-3.04,2.52-.84,5.1-1.49,7.71-1.95,1.65-.29,3.31-.56,4.99-.69,1.89-.14,3.78-.3,5.68-.32,1.34-.01,2.68.12,4.01.21,1.56.11,3.11.2,4.65.46.32.05.5-.05.55-.38.11-.72.23-1.43.35-2.15.05-.3-.07-.46-.37-.52Z"/>
        <path class="cls-5" d="m122.9,52.63c-1.2-.34-2.4-.71-3.6-1.04-1.91-.52-3.85-.89-5.8-1.19-2.12-.33-4.25-.57-6.4-.58-1.88,0-3.76.02-5.64.19-1.46.13-2.91.29-4.36.5-1.85.27-3.68.64-5.48,1.12-2.81.75-5.54,1.71-8.21,2.89-3.25,1.44-6.33,3.15-9.25,5.17-2.26,1.57-4.42,3.28-6.41,5.17-2.33,2.22-4.49,4.59-6.4,7.19-1.18,1.61-2.32,3.24-3.31,4.97-1.5,2.61-2.81,5.32-3.91,8.13-.99,2.54-1.75,5.14-2.39,7.78-.49,2.02-.82,4.08-1.04,6.15-.19,1.82-.27,3.66-.31,5.5-.04,2.05.1,4.1.33,6.14.15,1.32.28,2.64.53,3.94.47,2.42,1.05,4.82,1.82,7.17.73,2.25,1.58,4.44,2.59,6.58,1.43,3.01,3.09,5.87,5.02,8.59,1.63,2.3,3.43,4.45,5.36,6.48,1.52,1.6,3.18,3.07,4.9,4.45,2.04,1.63,4.19,3.1,6.43,4.45,3.03,1.83,6.24,3.26,9.53,4.53.27.1.47.06.56-.21.26-.74.51-1.49.76-2.24.07-.22-.02-.35-.24-.42-.72-.22-1.41-.55-2.12-.82-2.09-.78-4.07-1.8-6-2.89-2.18-1.23-4.26-2.62-6.23-4.17-1.29-1.01-2.55-2.05-3.74-3.17-.8-.75-1.55-1.55-2.31-2.35-2.31-2.43-4.34-5.06-6.12-7.89-1.71-2.7-3.16-5.54-4.33-8.53-.63-1.61-1.21-3.24-1.67-4.9-.46-1.62-.81-3.26-1.14-4.91-.33-1.72-.51-3.45-.69-5.18-.15-1.44-.18-2.9-.12-4.4-.08-1.62.06-3.28.23-4.94.12-1.17.23-2.34.43-3.49.22-1.28.48-2.55.79-3.81.49-2,1.07-3.97,1.81-5.89.98-2.54,2.12-5,3.46-7.37,1.75-3.09,3.78-5.99,6.12-8.64,2.03-2.3,4.22-4.47,6.66-6.36,1.62-1.26,3.27-2.49,5.02-3.57,1.76-1.09,3.6-2.04,5.46-2.96,2.3-1.12,4.7-1.96,7.13-2.72,1.78-.55,3.61-.95,5.44-1.3,1.64-.31,3.29-.58,4.94-.67,2.74-.15,5.49-.22,8.25-.05,1.64.1,3.26.27,4.88.54,2.65.44,5.26,1.06,7.8,1.95.35.12.51.03.62-.3.21-.66.43-1.32.67-1.97.15-.39.02-.58-.35-.68Z"/>
        <path class="cls-6" d="m62.65,90.94c1.09-3.31,2.55-6.45,4.36-9.44,1.38-2.28,2.96-4.42,4.72-6.41,2.17-2.46,4.58-4.67,7.26-6.59,2.08-1.48,4.23-2.83,6.53-3.96,1.92-.94,3.88-1.77,5.9-2.45,1.79-.6,3.62-1.04,5.47-1.4,1.94-.38,3.89-.64,5.87-.74,1.87-.1,3.73-.06,5.6,0,1.89.06,3.76.32,5.6.66,2.37.43,4.68,1.08,6.95,1.92,2.03.75,4.02,1.58,5.91,2.64.4.23.62.13.82-.23.32-.6.63-1.2.99-1.78.18-.3.14-.47-.17-.62-1.1-.53-2.18-1.09-3.29-1.6-1.69-.77-3.43-1.39-5.19-1.96-2.63-.86-5.33-1.45-8.08-1.81-2.35-.31-4.72-.49-7.23-.42-.83,0-1.78.03-2.74.15-1.28.17-2.58.24-3.86.45-1.8.3-3.57.68-5.33,1.16-3.49.96-6.82,2.3-10,4-3.62,1.94-6.96,4.31-9.96,7.12-2.28,2.14-4.38,4.45-6.21,6.99-1.87,2.59-3.48,5.33-4.82,8.22-1.16,2.51-2.08,5.11-2.8,7.79-.72,2.66-1.18,5.37-1.47,8.1-.2,1.91-.14,3.85-.1,5.78.05,2.29.32,4.55.69,6.8.29,1.78.71,3.54,1.24,5.27.38,1.24.78,2.47,1.25,3.68.55,1.41,1.13,2.81,1.81,4.16,1.13,2.25,2.41,4.42,3.87,6.47,1.48,2.08,3.11,4.03,4.88,5.86,1.61,1.67,3.38,3.16,5.21,4.58,1.68,1.3,3.46,2.44,5.27,3.54.25.15.4.12.56-.14.41-.67.71-1.41,1.17-2.05.14-.2.05-.33-.15-.44-.58-.32-1.17-.63-1.72-1-1.31-.87-2.6-1.77-3.84-2.75-1.97-1.55-3.82-3.23-5.5-5.09-.5-.56-1.03-1.11-1.48-1.71-1.07-1.41-2.17-2.8-3.11-4.32-.9-1.44-1.75-2.91-2.49-4.44-.65-1.35-1.25-2.72-1.78-4.12-.5-1.35-.94-2.71-1.31-4.1-.46-1.71-.79-3.45-1.03-5.21-.25-1.84-.43-3.68-.48-5.52-.09-2.95.17-5.88.68-8.8.37-2.12.88-4.2,1.55-6.24Z"/>
        <path class="cls-10" d="m109.13,104.24c.07.41.25.6.68.56.31-.03.62,0,.93,0h0c.28-.01.56,0,.83-.01.74,0,.78-.06.66-.81-.33-1.95-1.32-3.5-2.97-4.56-1.78-1.15-3.71-1.54-5.78-.76-1.39.53-2.55,1.34-3.4,2.59-.69,1.01-1.08,2.11-1.18,3.32-.02.28.05.4.35.39.74-.03,1.48-.04,2.22-.05.32,0,.46-.12.51-.45.29-1.83,1.67-3,3.57-3.06,1.68-.06,3.31,1.16,3.59,2.85Z"/>
        <path class="cls-8" d="m129.35,84.16c.6-.53,1.21-1.05,1.82-1.57.2-.17.23-.32.04-.54-1.08-1.23-2.28-2.35-3.54-3.39-1.49-1.23-3.06-2.34-4.73-3.32-2.32-1.36-4.75-2.45-7.31-3.22-1.62-.49-3.28-.88-4.96-1.12-1.45-.21-2.92-.35-4.38-.36-1.29,0-2.59,0-3.89.13-2.25.22-4.47.63-6.63,1.29-2.1.64-4.13,1.45-6.08,2.48-1.36.71-2.65,1.52-3.91,2.39-1.86,1.28-3.56,2.75-5.11,4.41-1.7,1.81-3.21,3.76-4.49,5.89-2.14,3.56-3.64,7.38-4.39,11.49-.38,2.07-.57,4.16-.61,6.26-.03,1.53.13,3.05.33,4.57.19,1.43.46,2.83.82,4.22.65,2.49,1.57,4.88,2.76,7.16,1.17,2.24,2.57,4.32,4.2,6.26.2.24.3.16.47,0,.47-.42.94-.85,1.43-1.24.51-.4.56-.51.14-1.02-1.63-2.01-2.99-4.19-4.11-6.53-1.22-2.54-1.98-5.22-2.52-7.97-.31-1.6-.34-3.22-.39-4.84-.08-2.31.14-4.58.6-6.85.57-2.86,1.52-5.57,2.86-8.14,1.21-2.32,2.69-4.47,4.44-6.43,1.28-1.44,2.7-2.71,4.21-3.9,1.23-.97,2.53-1.84,3.9-2.58,1.41-.76,2.87-1.42,4.37-2,2.46-.95,5-1.55,7.59-1.77,2.22-.19,4.47-.3,6.71,0,1.69.22,3.37.49,5,.95,1.81.51,3.56,1.19,5.27,2.01,3.22,1.55,6.06,3.63,8.6,6.12.37.37.72.77,1.07,1.16.13.14.24.21.42.05Z"/>
        <path class="cls-9" d="m115.81,102.42c.07.3.22.4.53.34.69-.15,1.39-.3,2.09-.41.42-.07.5-.27.4-.64-.88-3.27-2.67-5.91-5.44-7.87-1.77-1.25-3.75-2.02-5.88-2.36-2.12-.33-4.23-.1-6.25.6-2.91,1-5.23,2.8-6.97,5.35-.76,1.12-1.3,2.33-1.72,3.62-.63,1.95-.75,3.93-.46,5.94.04.3.19.36.48.33.75-.05,1.44-.34,2.18-.42.26-.03.34-.23.34-.48,0-.45,0-.9,0-1.34,0,0,0,0,0,0,0-.49-.06-1,0-1.48.57-3.85,2.67-6.59,6.16-8.23,1.94-.91,4-1.12,6.15-.74,1.84.32,3.46,1.04,4.88,2.21,1.78,1.46,2.98,3.32,3.52,5.58Z"/>
        <path class="cls-3" d="m126.73,92.12c.65-.39,1.3-.77,1.96-1.15.3-.17.3-.36.12-.64-1.11-1.77-2.44-3.38-3.91-4.86-1.29-1.3-2.72-2.43-4.25-3.43-2.32-1.51-4.81-2.63-7.47-3.42-2.62-.78-5.29-1.05-7.48-1.1-2.65,0-4.73.35-6.79.85-1.38.33-2.72.79-4.03,1.36-1.02.44-2.03.92-2.99,1.48-1.83,1.09-3.55,2.34-5.12,3.81-1.5,1.4-2.81,2.95-3.95,4.64-1.47,2.19-2.6,4.54-3.42,7.06-.9,2.78-1.25,5.62-1.37,8.51-.04,1.04.17,2.06.27,3.09.21,2.15.77,4.21,1.51,6.24.52,1.41,1.18,2.75,1.89,4.08.14.26.24.34.52.15.61-.4,1.23-.78,1.87-1.12.35-.19.36-.39.18-.7-.32-.55-.61-1.11-.87-1.68-1.24-2.68-1.95-5.49-2.15-8.43-.17-2.46,0-4.89.54-7.31.65-2.91,1.81-5.58,3.45-8.04,1.37-2.06,3.02-3.9,4.98-5.44,1.14-.9,2.32-1.73,3.61-2.42,1.21-.65,2.46-1.2,3.77-1.65,1.45-.5,2.93-.84,4.44-1.1,1.41-.24,2.83-.19,4.25-.2,2.1-.03,4.15.37,6.15.93,2.09.59,4.05,1.49,5.9,2.63,1.63,1,3.1,2.18,4.46,3.52,1.3,1.28,2.4,2.69,3.39,4.21.14.22.28.32.53.17Z"/>
        <path class="cls-4" d="m131.14,72.55c-1.92-1.46-3.91-2.81-6.05-3.95-2.17-1.16-4.43-2.12-6.76-2.9-1.7-.57-3.44-1-5.2-1.33-2.04-.37-4.09-.65-6.16-.66-2.1-.02-4.2.01-6.29.25-1.29.15-2.57.38-3.83.65-2.02.44-4,1.04-5.94,1.77-2.22.83-4.33,1.89-6.38,3.08-2.06,1.2-3.98,2.6-5.79,4.15-2.12,1.81-4.04,3.82-5.75,6.03-2.34,3.01-4.23,6.27-5.67,9.8-.72,1.76-1.3,3.57-1.78,5.41-.35,1.33-.58,2.68-.82,4.04-.24,1.42-.27,2.86-.45,4.28-.11.84-.02,1.7-.02,2.55-.06,1.6.2,3.17.39,4.75.19,1.62.53,3.2.92,4.77.58,2.34,1.41,4.6,2.39,6.81.92,2.07,2.04,4.02,3.27,5.91,1.58,2.41,3.44,4.6,5.5,6.61.7.69,1.45,1.34,2.18,2.02.32.3.59.32.88-.06.4-.53.81-1.05,1.25-1.55.24-.28.19-.44-.08-.67-.73-.62-1.45-1.26-2.13-1.93-1.46-1.43-2.79-2.97-4-4.62-1.52-2.06-2.83-4.23-3.91-6.55-1.3-2.81-2.26-5.74-2.86-8.78-.39-1.97-.56-3.97-.68-5.96-.1-1.56.02-3.11.13-4.67.13-1.72.41-3.4.75-5.07.49-2.36,1.27-4.64,2.22-6.86,1.65-3.86,3.94-7.3,6.71-10.44.81-.91,1.7-1.74,2.6-2.58,2.15-2,4.51-3.71,7.06-5.15,3.2-1.79,6.58-3.11,10.16-3.92,1.93-.44,3.88-.72,5.84-.89,2.53-.22,5.06-.1,7.58.21,2.21.27,4.38.74,6.5,1.4,1.98.61,3.92,1.35,5.76,2.31,2.29,1.19,4.48,2.54,6.51,4.15.27.21.42.21.64-.06.46-.58.88-1.19,1.41-1.72.25-.25.14-.42-.09-.6Z"/>
        <path class="cls-11" d="m122.28,98.42c.68-.26,1.35-.53,2.03-.78.32-.12.36-.29.23-.6-.84-1.92-1.91-3.7-3.27-5.3-2.41-2.82-5.36-4.88-8.85-6.12-2.25-.8-4.58-1.27-6.92-1.13-1.49-.06-2.87.14-4.25.44-2.39.52-4.63,1.42-6.68,2.75-1.63,1.06-3.14,2.26-4.41,3.78-.84,1.01-1.63,2.06-2.3,3.18-.67,1.13-1.2,2.33-1.65,3.57-.7,1.93-1.06,3.93-1.18,5.97-.08,1.31.03,2.62.25,3.92.2,1.22.48,2.42.9,3.59.13.36.3.45.66.29.64-.27,1.29-.53,1.95-.75.33-.11.35-.24.25-.54-.7-2.3-1.08-4.63-.85-7.07.23-2.47.87-4.78,2.03-6.97,1.19-2.25,2.86-4.09,4.86-5.63,2.07-1.59,4.41-2.62,6.99-3.15,2.15-.44,4.28-.46,6.44-.11,1.92.31,3.72.92,5.4,1.85,3.54,1.95,6.14,4.78,7.77,8.49.13.3.31.41.62.3Z"/>
      </g>
    </g>
  </g>
</svg>