<svg width="364" height="350" viewBox="0 0 364 350" fill="none" xmlns="http://www.w3.org/2000/svg">
<circle cx="181.823" cy="174.83" r="174.83" fill="url(#paint0_linear_367_254)"/>
<circle cx="181.823" cy="174.83" r="166.088" stroke="#3EDAB4" stroke-opacity="0.5" stroke-width="17.483"/>
<g style="mix-blend-mode:multiply" opacity="0.5">
<path d="M240.985 276.922C226.071 284.243 209.305 288.388 191.575 288.47C191.395 288.471 191.216 288.472 191.036 288.472L128.622 288.471C128.622 288.291 128.623 288.112 128.623 287.932L128.623 238.7H191.439C226.168 238.484 254.255 210.364 254.255 175.707C254.255 140.992 226.072 112.835 191.265 112.714L190.792 112.712H128.623L128.623 206.601C128.337 233.091 106.082 254.48 78.6738 254.48V62.9414H191.439C253.755 63.1577 304.204 113.563 304.204 175.707C304.204 220.12 278.436 258.536 240.985 276.922Z" fill="#07846D"/>
</g>
<g filter="url(#filter0_d_367_254)">
<path d="M106.463 211.844C99.7703 211.844 93.9228 210.323 88.9203 207.281C83.9179 204.239 80.0308 200.014 77.2592 194.606C74.4876 189.13 73.1017 182.775 73.1017 175.542C73.1017 168.241 74.5214 161.819 77.3606 156.276C80.2674 150.665 84.3573 146.305 89.6301 143.195C94.9706 140.018 101.291 138.429 108.592 138.429C116.907 138.429 123.802 140.424 129.278 144.412C134.754 148.4 138.303 153.91 139.925 160.94H125.425C124.343 157.628 122.383 155.059 119.543 153.234C116.704 151.341 113.054 150.395 108.592 150.395C101.494 150.395 96.0184 152.659 92.1652 157.189C88.3119 161.65 86.3853 167.802 86.3853 175.644C86.3853 183.485 88.2781 189.569 92.0638 193.896C95.917 198.155 101.122 200.284 107.68 200.284C114.102 200.284 118.935 198.56 122.18 195.113C125.492 191.597 127.487 187 128.163 181.322H110.215V171.587H141.243V210.627H129.278L128.264 201.298C125.966 204.678 123.093 207.281 119.645 209.106C116.197 210.931 111.803 211.844 106.463 211.844ZM153.861 210.627V139.646H169.274L191.887 184.668L214.195 139.646H229.608V210.627H216.629V161.65L196.856 200.487H186.614L166.841 161.65V210.627H153.861ZM243.38 210.627V139.646H289.72V150.09H256.359V169.559H286.678V179.7H256.359V200.183H289.72V210.627H243.38Z" fill="white"/>
</g>
<defs>
<filter id="filter0_d_367_254" x="62.6118" y="134.933" width="237.598" height="94.3936" filterUnits="userSpaceOnUse" color-interpolation-filters="sRGB">
<feFlood flood-opacity="0" result="BackgroundImageFix"/>
<feColorMatrix in="SourceAlpha" type="matrix" values="0 0 0 0 0 0 0 0 0 0 0 0 0 0 0 0 0 0 127 0" result="hardAlpha"/>
<feOffset dy="6.99319"/>
<feGaussianBlur stdDeviation="5.24489"/>
<feComposite in2="hardAlpha" operator="out"/>
<feColorMatrix type="matrix" values="0 0 0 0 0 0 0 0 0 0 0 0 0 0 0 0 0 0 0.4 0"/>
<feBlend mode="normal" in2="BackgroundImageFix" result="effect1_dropShadow_367_254"/>
<feBlend mode="normal" in="SourceGraphic" in2="effect1_dropShadow_367_254" result="shape"/>
</filter>
<linearGradient id="paint0_linear_367_254" x1="13.1122" y1="-8.0385e-06" x2="368.016" y2="451.06" gradientUnits="userSpaceOnUse">
<stop stop-color="#07846D"/>
<stop offset="1" stop-color="#08705D"/>
</linearGradient>
</defs>
</svg>
