<svg width="450" height="450" viewBox="0 0 450 450" fill="none" xmlns="http://www.w3.org/2000/svg">
<circle cx="225" cy="225" r="225" fill="black"/>
<g clip-path="url(#clip0_1558_18845)">
<path d="M83.6758 275.076H127.69V319.091H83.6758V275.076Z" fill="white"/>
<path fill-rule="evenodd" clip-rule="evenodd" d="M124.027 278.739H87.339V315.409H124.008V278.739H124.027ZM83.6758 275.076V319.091H127.69V275.076H83.6758Z" fill="#0E0E18"/>
<path d="M367.772 275.076H323.758V319.091H367.772V275.076Z" fill="white"/>
<path fill-rule="evenodd" clip-rule="evenodd" d="M327.421 278.739H364.09V315.409H327.421V278.739ZM367.772 275.076V319.091H323.758V275.076H367.772Z" fill="#0E0E18"/>
<path d="M227.73 275.076H271.745V319.091H227.73V275.076Z" fill="white"/>
<path fill-rule="evenodd" clip-rule="evenodd" d="M268.066 278.739H231.397V315.409H268.066V278.739ZM227.715 275.076V319.091H271.729V275.076H227.715Z" fill="#0E0E18"/>
<path d="M227.73 227.398H271.745V271.413H227.73V227.398Z" fill="white"/>
<path fill-rule="evenodd" clip-rule="evenodd" d="M268.066 231.062H231.397V267.731H268.066V231.062ZM227.715 227.398V271.413H271.729V227.398H227.715Z" fill="#0E0E18"/>
<path d="M227.73 179.703H271.745V223.718H227.73V179.703Z" fill="white"/>
<path fill-rule="evenodd" clip-rule="evenodd" d="M268.066 183.384H231.397V220.053H268.066V183.384ZM227.715 179.721V223.735H271.729V179.721H227.715Z" fill="#0E0E18"/>
<path d="M250.193 154.488L271.745 132.025V176.04H227.73L250.193 154.507V154.488Z" fill="white"/>
<path fill-rule="evenodd" clip-rule="evenodd" d="M252.797 157.092L236.861 172.377H268.082V141.156L252.797 157.092ZM250.193 154.488L227.73 176.021H271.745V132.025L250.212 154.488H250.193Z" fill="#0E0E18"/>
<path d="M131.688 275.076H175.702V319.091H131.688V275.076Z" fill="white"/>
<path fill-rule="evenodd" clip-rule="evenodd" d="M172.019 278.739H135.35V315.409H172.019V278.739ZM131.668 275.076V319.091H175.682V275.076H131.668Z" fill="#0E0E18"/>
<path d="M131.688 227.398H175.702V271.413H131.688V227.398Z" fill="white"/>
<path fill-rule="evenodd" clip-rule="evenodd" d="M172.019 231.062H135.35V267.731H172.019V231.062ZM131.668 227.398V271.413H175.682V227.398H131.668Z" fill="#0E0E18"/>
<path d="M131.688 179.703H175.702V223.718H131.688V179.703Z" fill="white"/>
<path fill-rule="evenodd" clip-rule="evenodd" d="M172.019 183.384H135.35V220.053H172.019V183.384ZM131.668 179.721V223.735H175.682V179.721H131.668Z" fill="#0E0E18"/>
<path d="M131.688 132.025H175.702V176.04H131.688V132.025Z" fill="white"/>
<path fill-rule="evenodd" clip-rule="evenodd" d="M172.02 135.689H135.351V172.358H172.02V135.689ZM131.688 132.025V176.04H175.702V132.025H131.688Z" fill="#0E0E18"/>
<path d="M275.727 275.076H319.741V319.091H275.727V275.076Z" fill="white"/>
<path fill-rule="evenodd" clip-rule="evenodd" d="M316.078 278.739H279.408V315.409H316.078V278.739ZM275.727 275.076V319.091H319.741V275.076H275.727Z" fill="#0E0E18"/>
<path d="M275.727 227.398H319.741V271.413H275.727V227.398Z" fill="white"/>
<path fill-rule="evenodd" clip-rule="evenodd" d="M316.078 231.062H279.408V267.731H316.078V231.062ZM275.727 227.398V271.413H319.741V227.398H275.727Z" fill="#0E0E18"/>
<path d="M275.727 179.703H319.741V223.718H275.727V179.703Z" fill="white"/>
<path fill-rule="evenodd" clip-rule="evenodd" d="M316.078 183.384H279.408V220.053H316.078V183.384ZM275.727 179.721V223.735H319.741V179.721H275.727Z" fill="#0E0E18"/>
<path d="M275.727 132.025H319.741V176.04H275.727V132.025Z" fill="white"/>
<path fill-rule="evenodd" clip-rule="evenodd" d="M316.078 135.689H279.408V172.358H316.078V135.689ZM275.727 132.025V176.04H319.741V132.025H275.727Z" fill="#0E0E18"/>
<path d="M179.699 275.076H223.714V319.091H179.699V275.076Z" fill="white"/>
<path fill-rule="evenodd" clip-rule="evenodd" d="M220.05 278.739H183.381V315.409H220.05V278.739ZM179.699 275.076V319.091H223.714V275.076H179.699Z" fill="#0E0E18"/>
<path d="M179.699 227.398H223.714V271.413H179.699V227.398Z" fill="white"/>
<path fill-rule="evenodd" clip-rule="evenodd" d="M220.05 231.062H183.381V267.731H220.05V231.062ZM179.699 227.398V271.413H223.714V227.398H179.699Z" fill="#0E0E18"/>
<path d="M179.699 179.703H223.714V223.718H179.699V179.703Z" fill="white"/>
<path fill-rule="evenodd" clip-rule="evenodd" d="M220.05 183.384H183.381V220.053H220.05V183.384ZM179.699 179.721V223.735H223.714V179.721H179.699Z" fill="#0E0E18"/>
<path d="M179.699 132.025L201.269 154.47L223.714 176.04H179.699V132.025Z" fill="white"/>
<path fill-rule="evenodd" clip-rule="evenodd" d="M201.269 154.47L179.699 132.025V176.04H223.714L201.269 154.47ZM214.602 172.358L198.666 157.054L183.362 141.118V172.358H214.602Z" fill="#0E0E18"/>
<path d="M268.23 227.863H247.125V270.074H268.23V227.863Z" fill="#0E0E18"/>
<path d="M220.109 227.863H199.004V270.074H220.109V227.863Z" fill="#0E0E18"/>
</g>
<defs>
<clipPath id="clip0_1558_18845">
<rect width="284.095" height="187.066" fill="white" transform="translate(83.6758 132.025)"/>
</clipPath>
</defs>
</svg>
