<svg width="26" height="26" viewBox="0 0 26 26" fill="none" xmlns="http://www.w3.org/2000/svg">
<path d="M13 26C20.1797 26 26 20.1797 26 13C26 5.8203 20.1797 0 13 0C5.8203 0 0 5.8203 0 13C0 20.1797 5.8203 26 13 26Z" fill="#080A26"/>
<path d="M14.53 6.8271L9.34903 20.0909C9.34903 20.0909 9.24351 20.4075 8.88474 20.4708C8.56818 20.5341 8.33604 20.3652 8.21997 20.1753C8.125 20.017 8.125 19.8482 8.125 19.8482V6.5844C8.125 6.23619 8.4099 5.95129 8.75812 5.95129L13.918 5.94073C14.3823 5.95129 14.6883 6.40502 14.53 6.8271Z" fill="#FF0EA9"/>
<path d="M16.2289 8.06167C16.4399 7.58683 16.957 7.60794 17.1786 7.77677C17.2102 7.80842 17.2313 7.81898 17.2313 7.80842C18.8774 9.24349 19.8799 11.375 19.7532 13.7175C19.5422 17.6006 16.345 20.6712 12.4091 20.6712H12.2297C11.7971 20.6607 11.4594 20.2492 11.6493 19.7743L16.2289 8.06167Z" fill="#00DAFF"/>
</svg>
