<svg width="55" height="55" viewBox="0 0 55 55" fill="none" xmlns="http://www.w3.org/2000/svg">
<rect x="0.55" y="0.55" width="53.9" height="53.9" rx="26.95" fill="white"/>
<path d="M41.3372 31.763C41.4457 31.8492 41.5168 31.9234 41.6237 32.0114C41.6882 32.0648 41.6887 32.0648 41.752 32.0068C41.7962 31.966 41.839 31.9234 41.8844 31.8836C42.0666 31.7211 42.312 31.7291 42.4819 31.9059C42.5495 31.9768 42.6133 32.0517 42.6727 32.1301C42.8197 32.3228 42.805 32.5747 42.6391 32.7501C42.5925 32.7992 42.5431 32.8456 42.493 32.8905C42.4509 32.9277 42.4495 32.964 42.4793 33.0109C42.5405 33.1073 42.6001 33.2047 42.6575 33.3035C42.7306 33.4285 42.7956 33.5589 42.8573 33.6902C42.9159 33.8155 42.9159 33.8146 43.0376 33.7743C43.0965 33.753 43.1565 33.7352 43.2175 33.7209C43.4156 33.6809 43.6035 33.7818 43.6881 33.9763C43.7394 34.0962 43.7777 34.2219 43.8025 34.3507C43.8389 34.5344 43.7323 34.7384 43.5619 34.829C43.4959 34.8636 43.4234 34.8788 43.3543 34.9048C43.2709 34.9364 43.2636 34.9427 43.2773 35.0286C43.3215 35.2993 43.3525 35.5713 43.3543 35.8462C43.3551 35.9063 43.3766 35.9405 43.4361 35.9457C43.4872 35.9501 43.538 35.9602 43.5888 35.9656C43.7919 35.9878 43.9299 36.0943 43.9899 36.3041C43.9951 36.3221 44.0084 36.7004 43.9906 36.803C43.9516 37.0294 43.7843 37.1907 43.5642 37.1998C43.5167 37.2021 43.469 37.1988 43.4222 37.1902C43.3354 37.1736 43.278 37.212 43.257 37.3002C43.2052 37.5172 43.1357 37.7279 43.0612 37.937C43.0393 37.9974 43.0518 38.0505 43.0998 38.0929C43.1246 38.1152 43.2208 38.2243 43.2364 38.2605C43.2721 38.3439 43.1177 38.2142 43.082 38.1926C43.0005 38.1432 42.0007 37.5617 41.6284 37.3531C41.6549 37.1459 41.7511 36.8807 41.7898 36.6763C41.9872 35.635 41.783 34.6852 41.2117 33.8181C40.7366 33.0968 40.0859 32.6353 39.2867 32.4066C38.5833 32.205 37.8862 32.246 37.2024 32.5092C36.6366 32.7266 36.0171 33.0834 35.6772 33.6453C35.6382 33.6912 35.6197 33.6858 35.5583 33.657C35.3455 33.5453 34.5119 32.9736 34.1729 32.7657C34.0228 32.607 33.9233 32.3472 34.0361 32.1554C34.1167 32.0187 34.2249 31.9077 34.341 31.808C34.5041 31.668 34.7404 31.672 34.9137 31.8035C35.1286 31.9667 35.1283 31.966 35.337 31.7907C35.446 31.6991 35.5623 31.6179 35.6767 31.5341C35.7833 31.4564 35.7911 31.425 35.7412 31.303C35.6051 30.9701 35.6923 30.7173 35.9993 30.5527C36.0804 30.5073 36.1653 30.4694 36.2527 30.4396C36.487 30.3645 36.7028 30.4525 36.8302 30.6723C36.963 30.9018 36.9623 30.9013 37.2124 30.8407C37.3445 30.8086 37.4785 30.7859 37.6121 30.7604C37.7454 30.7346 37.7657 30.7124 37.7733 30.5735C37.7763 30.504 37.7863 30.4349 37.803 30.3678C37.8383 30.2334 37.9021 30.1154 38.0344 30.0625C38.2864 29.9613 38.541 29.9419 38.7885 30.0749C38.9343 30.1533 39.0024 30.2882 39.0043 30.463C39.0071 30.7248 39.0087 30.7271 39.2515 30.7685C39.4113 30.7957 39.5675 30.8364 39.7245 30.8753C39.8436 30.905 39.8743 30.8933 39.9209 30.7725C40.0381 30.4665 40.3303 30.3104 40.6747 30.4886C40.7723 30.5391 40.8749 30.5761 40.9602 30.6576C41.1323 30.8219 41.1443 31.0645 41.0736 31.2415C41.0635 31.2663 41.0514 31.2901 41.0417 31.3152C40.9945 31.4381 40.9895 31.51 40.9895 31.51C40.9895 31.51 41.2306 31.6783 41.3372 31.763Z" fill="#5F5F5F"/>
<path d="M41.5735 37.2527C41.6734 37.3536 43.011 38.124 43.1264 38.1968C43.1607 38.2015 43.1871 38.2254 43.2181 38.2388C43.242 38.2612 43.263 38.2842 43.2848 38.3092C43.3906 38.4654 43.3888 38.6302 43.3275 38.8027C43.2885 38.8943 43.242 38.9821 43.1878 39.0645C43.0619 39.2642 42.8295 39.3269 42.6253 39.2185C42.5631 39.1855 42.5029 39.149 42.4438 39.1094C42.401 39.0813 42.3714 39.0888 42.3414 39.1307C42.1776 39.3587 41.9956 39.5715 41.7975 39.7668C41.7576 39.8061 41.7529 39.8403 41.7864 39.8859C41.8252 39.9372 41.8611 39.9911 41.8959 40.0454C42.037 40.2659 41.9989 40.5202 41.7994 40.6836C41.7299 40.7402 41.659 40.7955 41.5853 40.846C41.387 40.9816 41.1546 40.9434 41.0036 40.7515C40.9618 40.6978 40.9227 40.6417 40.8863 40.5836C40.8542 40.5328 40.8221 40.5213 40.7682 40.5536C40.5415 40.6894 40.3021 40.7966 40.0577 40.8917C39.9688 40.9263 39.9697 40.9277 39.987 41.0256C39.9931 41.0595 39.9981 41.0942 40.0042 41.1281C40.0612 41.4149 39.9962 41.5704 39.7579 41.7174C39.6965 41.7534 39.6258 41.7478 39.5599 41.7661C39.4447 41.7951 39.3285 41.7928 39.2112 41.7867C39.1729 41.7668 39.1346 41.7452 39.0973 41.7235C38.9845 41.6247 38.9342 41.4943 38.9049 41.3449C38.8654 41.1424 38.8895 41.1754 38.7125 41.1841C38.478 41.1956 38.2431 41.1946 38.0086 41.1808C37.9176 41.1754 37.9176 41.1752 37.8966 41.2639C37.8869 41.3054 37.8758 41.3463 37.8698 41.3882C37.8318 41.6535 37.6292 41.8525 37.3059 41.7876C37.2269 41.7717 37.1487 41.7502 37.0714 41.7261C36.8504 41.6577 36.7225 41.4334 36.767 41.1949C36.7778 41.1345 36.7913 41.0741 36.8026 41.0134C36.8178 40.931 36.8168 40.9266 36.7381 40.8957C36.5871 40.8357 36.4365 40.7746 36.2912 40.7009C36.2054 40.6573 36.1203 40.6117 36.0356 40.5656C35.9475 40.5178 35.9482 40.5171 35.8865 40.6042C35.8534 40.6506 35.8227 40.6985 35.7884 40.7433C35.6376 40.9423 35.4001 40.9839 35.1991 40.8449C35.1228 40.7917 35.0481 40.7351 34.9762 40.6751C34.7931 40.522 34.7536 40.2706 34.8796 40.0629C34.9169 40.0011 34.9585 39.9421 35.0006 39.8838C35.0299 39.8433 35.0318 39.8108 34.9942 39.7736C34.7933 39.5755 34.6092 39.3597 34.4435 39.1281C34.412 39.0841 34.3811 39.0844 34.3404 39.1113C34.2908 39.1441 34.2393 39.174 34.1877 39.204C33.9563 39.3367 33.7155 39.2712 33.5796 39.0329C33.5311 38.9474 33.4715 38.869 33.4382 38.7732C33.3555 38.5358 33.4252 38.316 33.632 38.1837C33.676 38.1556 33.7211 38.1297 33.7642 38.1016C33.8405 38.0524 33.8426 38.051 33.8088 37.9648C33.7389 37.7865 33.6788 37.6038 33.6287 37.4182C33.6065 37.337 33.5857 37.2543 33.5675 37.1717C33.5543 37.1113 33.5242 37.0879 33.4654 37.101C33.4184 37.1101 33.3711 37.1167 33.3236 37.1206C33.0437 37.1518 32.8364 36.9753 32.8071 36.6814C32.7991 36.6002 32.7906 36.5199 32.7851 36.4391C32.7778 36.3221 32.813 36.2064 32.8842 36.1163C32.9553 36.0259 33.0565 35.9679 33.1671 35.9538C33.2288 35.9459 33.291 35.9407 33.3524 35.9307C33.4328 35.9168 33.4354 35.915 33.4366 35.8267C33.4401 35.6338 33.4543 35.4411 33.4784 35.2496C33.4886 35.1656 33.5153 35.0836 33.5094 34.9975C33.5034 34.9385 33.4796 34.902 33.4347 34.8835C33.4039 34.8741 33.3966 34.8701 33.3508 34.858C33.2602 34.8348 33.178 34.7936 33.1125 34.7236" fill="#414141"/>
<path d="M33.5133 35.0502C33.5237 34.991 33.4996 34.9022 33.4419 34.8851C33.3925 34.8706 33.3136 34.8395 33.2644 34.8238C33.0692 34.7618 32.9465 34.5995 32.9252 34.3813C32.9004 34.2886 32.9779 33.9883 33.0132 33.8909C33.0921 33.6764 33.2854 33.5514 33.5031 33.5861C33.5502 33.5933 33.5965 33.606 33.6409 33.6235C33.7232 33.6572 33.7865 33.6308 33.8229 33.5484C33.9125 33.3456 34.0465 33.1448 34.1328 32.9406C34.2165 32.7433 34.1572 32.7596 34.1865 32.7664C34.2579 32.8313 35.2993 33.3648 35.6276 33.6436C35.4139 33.8874 34.9386 34.9907 34.919 35.3599" fill="#414141"/>
<path d="M35.6399 33.6261C36.3048 32.869 36.7806 32.544 37.437 32.3476C37.8362 32.2271 38.2532 32.1833 38.6673 32.2182C39.3641 32.2774 39.9933 32.5337 40.5476 32.9867C41.0361 33.3864 41.3921 33.8928 41.6349 34.49C41.7833 34.8552 41.8618 35.237 41.8984 35.6327C41.9509 36.1994 41.8358 36.8325 41.6512 37.3606C41.6138 37.3955 40.9338 36.905 40.861 36.8095C40.8445 36.758 40.865 36.7107 40.8775 36.663C40.9444 36.405 40.9877 36.1428 40.9799 35.8747C40.9432 34.586 40.1098 33.5229 38.9571 33.2632C38.1064 33.0715 37.2044 33.2651 36.3785 34.1491C36.3577 34.1613 36.3514 34.1348 36.2112 34.033C35.9758 33.8822 35.86 33.7876 35.699 33.6849C35.6068 33.6282 35.6115 33.6589 35.6399 33.6261Z" fill="#414141"/>
<path d="M41.6646 37.3234C41.6424 37.3606 41.6225 37.399 41.6048 37.4388C41.402 37.9536 41.0772 38.3762 40.6815 38.7341C40.1639 39.2028 39.5635 39.495 38.8818 39.5889C38.7147 39.6121 38.5474 39.6373 38.3786 39.6317C37.8905 39.6153 37.4187 39.5208 36.9682 39.314C36.6822 39.182 36.4146 39.0099 36.1726 38.8023C35.7958 38.4813 35.4897 38.0955 35.265 37.6383C35.0584 37.2171 34.9395 36.7716 34.8891 36.3022C34.8452 35.8981 34.8797 35.5016 34.96 35.1059C35.0518 34.6548 35.2231 34.239 35.4623 33.8537C35.4964 33.7989 35.5954 33.6743 35.6275 33.6432C35.8015 33.7382 36.2759 34.0683 36.352 34.14C36.4 34.206 36.3114 34.2928 36.2839 34.3352C36.1381 34.5597 36.018 34.7969 35.9407 35.0574C35.6715 35.9649 35.7949 36.8095 36.3373 37.5687C36.7898 38.2022 37.405 38.5494 38.1574 38.629C39.2293 38.7426 40.3293 38.1013 40.782 36.9699C40.807 36.9074 40.8007 36.8088 40.9025 36.8039C40.968 36.883 41.5878 37.2789 41.6646 37.3234Z" fill="#5F5F5F"/>
<path d="M40.9029 36.8039C40.8175 37.0345 40.7221 37.2593 40.5883 37.4646C40.1645 38.1142 39.5861 38.5174 38.8496 38.6564C38.1036 38.7969 37.4207 38.6216 36.8135 38.1489C36.2796 37.7329 35.9387 37.1731 35.8073 36.4879C35.6518 35.6779 35.8151 34.9324 36.2703 34.2589C36.2874 34.2336 36.3034 34.2083 36.3204 34.1831C36.3377 34.1613 36.5639 33.8981 36.674 33.801C37.1621 33.3702 37.7204 33.1495 38.3586 33.1368C39.5544 33.1127 40.6329 33.9656 40.944 35.2045C41.0686 35.7003 41.0653 36.1976 40.9298 36.692C40.9197 36.7288 40.9116 36.7667 40.9029 36.8039Z" fill="#ED5050"/>
<path d="M39.1001 35.9195C39.1202 36.3434 38.7508 36.6717 38.4003 36.6672C38.0001 36.6623 37.6718 36.3317 37.6756 35.9122C37.6789 35.5023 37.9831 35.1633 38.4052 35.1621C38.7569 35.1612 39.1195 35.4927 39.1001 35.9195Z" fill="#414141"/>
<path d="M39.1407 34.5096C39.2222 34.5009 39.2901 34.5314 39.3465 34.595C39.3964 34.6513 39.4499 34.7043 39.4987 34.762C39.6119 34.8952 39.5428 35.1393 39.3964 35.1872C39.3325 35.2083 39.2738 35.2094 39.2174 35.1705C39.0969 35.0872 38.9941 34.9817 38.9027 34.8659C38.8059 34.743 38.8551 34.5854 38.9993 34.5319C39.0446 34.5145 39.0926 34.5068 39.1407 34.5096Z" fill="#ED5050"/>
<path d="M19.9462 41.7439C19.748 41.6338 19.6304 41.4632 19.595 41.2286C19.5829 41.1488 19.562 41.0706 19.5464 40.991C19.5354 40.9352 19.5088 40.9165 19.4536 40.9212C19.1028 40.9523 18.7502 40.9563 18.3989 40.9329C18.3513 40.9299 18.3036 40.9271 18.2564 40.9212C18.2113 40.9158 18.1879 40.9355 18.1786 40.9811C18.1619 41.0642 18.1394 41.1462 18.1264 41.23C18.0862 41.4884 17.9518 41.6661 17.7231 41.7661C17.5767 41.808 17.4304 41.7933 17.2842 41.7647C17.1487 41.7382 17.0096 41.7258 16.8868 41.6509C16.8396 41.6144 16.789 41.5828 16.7481 41.5374C16.6022 41.3749 16.5418 41.1853 16.5795 40.964C16.5937 40.8805 16.6125 40.7981 16.6285 40.7147C16.6555 40.5724 16.6553 40.5717 16.5294 40.5249C16.2427 40.4174 15.9631 40.2903 15.6923 40.1442C15.6271 40.1093 15.561 40.0747 15.4987 40.0349C15.4511 40.004 15.4195 40.0105 15.3886 40.058C15.3411 40.1311 15.2884 40.2006 15.2413 40.2744C15.0405 40.5885 14.6465 40.6805 14.3368 40.4289C14.2557 40.3628 14.17 40.3029 14.0886 40.2374C13.8012 40.0061 13.7488 39.6373 13.9582 39.3248C14.013 39.2429 14.0691 39.1616 14.1264 39.0813C14.1536 39.0434 14.1531 39.0125 14.1187 38.9814C14.1019 38.9664 14.0869 38.9493 14.071 38.9334C13.8027 38.6646 13.5549 38.3741 13.3298 38.0644C13.266 37.9763 13.2654 37.9768 13.1716 38.0337C13.108 38.0721 13.0448 38.1109 12.9813 38.1496C12.6471 38.3509 12.3151 38.2624 12.1086 37.9176C12.0803 37.8736 12.0696 37.8574 12.04 37.8045C12.0035 37.7298 11.9595 37.66 11.9264 37.583C11.7856 37.2543 11.8837 36.9179 12.1786 36.7323C12.2477 36.6887 12.318 36.6468 12.3878 36.6035C12.4808 36.5457 12.4818 36.545 12.4418 36.4441C12.3133 36.1196 12.2073 35.786 12.1246 35.4456C12.1109 35.3894 12.0959 35.3337 12.0849 35.277C12.0739 35.2204 12.0426 35.2019 11.9901 35.2089C11.892 35.222 11.7937 35.2372 11.695 35.2431C11.4417 35.2585 11.2462 35.1525 11.1139 34.9235C11.0589 34.8292 11.0382 34.7236 11.0289 34.6145C11.0221 34.5333 11.0069 34.4605 11.0017 34.3731C10.9803 34.044 11.1592 33.6305 11.5524 33.601C11.6364 33.5947 11.72 33.5814 11.8039 33.5715C11.9008 33.5601 11.9042 33.5591 11.9064 33.462C11.9127 33.1764 11.9348 32.8912 11.9725 32.6082C11.9879 32.4935 12.0055 32.3792 12.0247 32.2652C12.0431 32.1564 12.0432 32.154 11.9402 32.1184C11.8631 32.092 11.786 32.0672 11.7101 32.04C11.3804 31.9227 11.2101 31.5919 11.3026 31.24C11.3368 31.1099 11.3787 30.9818 11.4238 30.8554C11.5393 30.5293 11.8556 30.3649 12.1727 30.4635C12.2677 30.493 12.3628 30.5225 12.4551 30.5597C12.5141 30.5829 12.5404 30.5635 12.5652 30.5087C12.6237 30.3797 12.6873 30.2533 12.7489 30.1261C12.7709 30.0824 12.7911 30.0473 12.8111 30.007C12.8772 29.8794 12.9473 29.7537 13.0314 29.6373C13.107 29.5678 25.8384 37.4552 25.8027 37.546C25.7781 37.5926 25.7585 37.6373 25.7351 37.6823C25.6902 37.7663 25.6476 37.8518 25.5999 37.934C25.4183 38.2453 25.0876 38.3399 24.779 38.1702C24.698 38.1257 24.6201 38.0742 24.5405 38.0264C24.4577 37.9768 24.4567 37.9763 24.4004 38.0529C24.2748 38.224 24.1433 38.39 24.0061 38.5508C23.8833 38.6943 23.7534 38.8304 23.6213 38.9643C23.5605 39.0258 23.5606 39.0277 23.6074 39.0975C23.6601 39.1764 23.7159 39.2532 23.7682 39.3323C23.9711 39.6397 23.9167 40.0098 23.6348 40.236C23.5445 40.3085 23.4527 40.379 23.3595 40.4474C23.0666 40.6611 22.7187 40.6028 22.5021 40.3036C22.4471 40.2268 22.3947 40.1472 22.3397 40.07C22.2899 40.0004 22.288 39.9993 22.2151 40.0412C21.9161 40.2137 21.6057 40.3633 21.2863 40.4888C21.2416 40.5064 21.1965 40.5227 21.1521 40.5405C21.0715 40.5728 21.07 40.574 21.086 40.6681C21.1002 40.7517 21.1121 40.8365 21.1349 40.9175C21.2199 41.2209 21.0424 41.5872 20.6482 41.716C20.4778 41.772 20.1087 41.8125 19.9462 41.7439Z" fill="#414141"/>
<path d="M25.7777 37.5685C25.5104 37.4051 23.1305 35.8604 22.9638 35.7635C22.8734 35.7153 22.9028 35.7094 22.9577 35.6011C23.1523 35.163 23.2833 34.6965 23.3463 34.2175C23.3916 33.8684 23.3892 33.5179 23.3619 33.1663C23.3363 32.8353 23.2772 32.5078 23.1857 32.1898C23.069 31.7846 22.9003 31.4056 22.6919 31.0432C22.4594 30.6389 22.1632 30.2938 21.836 29.9756C21.5844 29.731 21.3001 29.5322 20.9998 29.3597C20.5487 29.0984 20.0579 28.9224 19.5493 28.839C19.2299 28.7868 18.9075 28.7611 18.5851 28.7833C17.8991 28.8308 17.2496 29.0209 16.6455 29.3707C16.1689 29.654 15.7424 30.0215 15.3847 30.4577C15.2935 30.5691 15.1637 30.7906 15.0743 30.9029C15.023 30.9673 14.169 30.3837 13.0072 29.6596C13.0501 29.5802 13.0914 29.5151 13.1372 29.4458C13.1657 29.4025 13.1634 29.3695 13.1262 29.3353C13.0549 29.2686 12.9839 29.2017 12.9139 29.1335C12.6915 28.916 12.6395 28.6276 12.7788 28.3443C12.8106 28.2795 12.8681 28.1271 12.9558 28.0164C12.9982 27.9627 13.0449 27.9138 13.0907 27.8639C13.315 27.6195 13.7509 27.6153 13.9849 27.8405C14.2682 28.1128 14.231 28.0496 14.4695 27.8567C14.6734 27.6923 14.8797 27.532 15.0954 27.3845C15.2114 27.3054 15.2189 27.267 15.1602 27.1342C15.0948 26.9862 15.0359 26.8373 15.0485 26.6681C15.0642 26.4593 15.1447 26.2806 15.3067 26.1646C15.538 25.9991 15.7836 25.8629 16.0787 25.8713C16.3224 25.8785 16.4931 26.0062 16.617 26.2153C16.661 26.2904 16.6953 26.3726 16.7309 26.4531C16.764 26.5285 16.8175 26.5531 16.8925 26.5324C17.2085 26.4452 17.5286 26.3792 17.8507 26.3243C17.9678 26.3044 17.9914 26.2682 17.9959 26.1457C17.998 26.1031 17.998 26.0605 17.9959 26.018C17.9709 25.6286 18.2572 25.3018 18.5957 25.2791C18.7823 25.2666 18.9692 25.2517 19.1544 25.2907C19.4268 25.3487 19.6949 25.6116 19.6679 25.9724C19.6642 26.0223 19.6669 26.0728 19.6679 26.1232C19.6703 26.2715 19.6968 26.3078 19.8359 26.3289C20.1373 26.3733 20.4358 26.4375 20.7297 26.521C20.8852 26.5658 20.9093 26.5495 20.9741 26.3964C21.0248 26.2764 21.0757 26.1562 21.1654 26.0599C21.3467 25.8659 21.5723 25.8346 21.8074 25.8893C21.9935 25.9327 22.1684 26.0217 22.3287 26.1317C22.5898 26.3111 22.685 26.6333 22.5787 26.9467C22.5566 27.012 22.53 27.0759 22.5022 27.139C22.4472 27.2628 22.4565 27.3079 22.566 27.381C22.796 27.5329 23.0174 27.6984 23.2293 27.8773C23.4613 28.0746 23.4199 28.1044 23.676 27.8604C23.9002 27.6465 24.2465 27.6209 24.4511 27.7675C24.6583 27.9157 24.8386 28.1025 24.9584 28.3361C25.0648 28.5443 25.0505 28.9268 24.8384 29.1192C24.7748 29.1773 24.7184 29.2438 24.6592 29.3072C24.608 29.3625 24.601 29.4227 24.6416 29.4854C24.8312 29.7797 25.0009 30.0875 25.1494 30.4066C25.1859 30.485 25.2485 30.5049 25.3256 30.4792C25.4163 30.4485 25.509 30.4239 25.6028 30.4061C25.8539 30.3598 26.1302 30.4759 26.259 30.7079C26.384 30.9327 26.4611 31.1794 26.4689 31.4433C26.4774 31.7333 26.3401 31.934 26.1054 32.0676C26.0274 32.1109 25.9451 32.1451 25.8602 32.1699C25.7704 32.1969 25.7319 32.2544 25.7501 32.3509C25.8134 32.6967 25.8345 33.0471 25.8553 33.3978C25.8607 33.4908 25.9033 33.5421 25.9919 33.5446C26.0581 33.5467 26.1231 33.5596 26.1883 33.5687C26.5251 33.6151 26.7554 33.8911 26.7565 34.25C26.7573 34.3195 26.7539 34.3888 26.7473 34.4581C26.7362 34.567 26.6991 34.7234 26.67 34.8254C26.5859 35.1225 26.3011 35.2852 26.0077 35.2656C25.9127 35.2593 25.8182 35.2433 25.7231 35.2333C25.6359 35.2244 25.6314 35.2255 25.6099 35.3166C25.5447 35.5903 25.4735 35.8621 25.3802 36.1269C25.3369 36.25 25.2923 36.3724 25.2431 36.4932C25.2211 36.5466 25.2303 36.5796 25.2774 36.6075C25.37 36.6627 25.4634 36.7166 25.5527 36.7777C25.7912 36.9402 25.8896 37.2356 25.8028 37.5177C25.7957 37.5353 25.7874 37.5524 25.7777 37.5685Z" fill="#666059"/>
<path d="M16.0705 31.4702C16.1806 31.3311 16.2851 31.1864 16.4057 31.056C16.9746 30.4401 17.662 30.0786 18.4736 29.9824C19.1914 29.8972 19.8724 30.0288 20.5014 30.4017C21.4697 30.9757 22.0473 31.8506 22.2295 33.0038C22.3353 33.6736 22.2551 34.3277 22.0026 34.9556C21.9884 34.9909 21.9783 35.0282 21.9662 35.0647C21.9937 35.1251 21.967 35.1771 21.943 35.2295C21.8205 35.4964 21.6594 35.7357 21.4729 35.9548C20.9367 36.5848 20.2803 37.0024 19.4838 37.1469C18.4265 37.3386 17.4725 37.0808 16.6432 36.3607C15.9706 35.7764 15.5653 35.02 15.4347 34.113C15.3332 33.4072 15.4177 32.7194 15.6953 32.0625C15.7626 31.9033 15.8443 31.7527 15.9266 31.6017C15.9602 31.5388 16.004 31.4919 16.0705 31.4702Z" fill="#ED5050"/>
<path d="M16.685 33.5503C16.6668 32.2493 17.7232 31.2579 18.8437 31.2518C19.9427 31.2459 21.0394 32.1679 21.0413 33.5617C21.0432 34.8557 20.0462 35.8392 18.8826 35.8518C17.6149 35.8656 16.6617 34.7637 16.685 33.5503Z" fill="#45423D"/>
<path d="M21.0035 31.4286C21.0217 31.6209 20.7931 31.7715 20.6342 31.6606C20.5264 31.585 20.4246 31.5084 20.3392 31.408C20.2162 31.2637 20.2442 31.1139 20.4072 31.0196C20.5279 30.9497 20.6404 30.9448 20.7519 31.0449C20.8303 31.1153 20.9063 31.1861 20.9626 31.2778C20.9911 31.3224 21.0055 31.3751 21.0035 31.4286Z" fill="#ED5050"/>
<path d="M17.1228 33.5657C17.0958 32.626 17.8188 31.7092 18.8681 31.7134C19.8483 31.7174 20.6135 32.5457 20.6036 33.5814C20.5941 34.6026 19.7904 35.4032 18.8353 35.3908C17.8449 35.378 17.096 34.4998 17.1228 33.5657Z" fill="#ED5050"/>
<path d="M18.8578 34.3023C18.4674 34.3023 18.1419 33.9602 18.1448 33.5482C18.1473 33.142 18.446 32.8021 18.8624 32.7976C19.2421 32.7936 19.5737 33.1242 19.5716 33.5545C19.5697 33.9738 19.2569 34.3027 18.8578 34.3023Z" fill="#414141"/>
<path d="M19.6824 32.3064C19.7235 32.3064 19.7636 32.3111 19.7985 32.3353C19.9502 32.4413 20.0314 32.5888 20.026 32.7825C20.0231 32.8822 19.8875 32.9868 19.7951 32.9647C19.6387 32.9274 19.5113 32.8458 19.4243 32.699C19.349 32.5721 19.3639 32.4659 19.4767 32.3761C19.5377 32.328 19.6074 32.3083 19.6824 32.3064Z" fill="#ED5050"/>
<path d="M16.0708 31.4699C15.9571 31.6595 15.8471 31.8506 15.7592 32.0557C15.6115 32.4014 15.5157 32.7695 15.4749 33.1464C15.4209 33.6214 15.4582 34.1032 15.5846 34.563C15.7111 35.0228 15.9241 35.4507 16.211 35.822C16.6471 36.386 17.1967 36.7746 17.8552 36.9914C18.2368 37.1169 18.6298 37.1747 19.0278 37.1469C20.0691 37.0745 20.9183 36.6075 21.5672 35.7429C21.7034 35.5605 21.8209 35.3636 21.9178 35.1553C21.9323 35.1244 21.9503 35.0951 21.9666 35.0649C22.0571 35.1096 22.7614 35.5889 22.8815 35.6773C22.9292 35.7122 22.9076 35.7586 22.8849 35.8012C22.7612 36.0339 22.6305 36.2619 22.4731 36.4717C22.1291 36.9301 21.7279 37.321 21.2533 37.6275C20.7927 37.9253 20.2866 38.1367 19.7576 38.2526C19.3483 38.3434 18.9337 38.357 18.5204 38.3298C17.9706 38.2942 17.4437 38.1474 16.9421 37.9023C16.5985 37.7363 16.2765 37.5247 15.9839 37.2726C15.4084 36.773 14.962 36.1694 14.6732 35.4407C14.4887 34.9727 14.3732 34.4778 14.331 33.973C14.2649 33.2204 14.3782 32.496 14.6297 31.7918C14.7219 31.5338 14.8435 31.292 14.9735 31.0541C14.9862 31.031 15.0006 31.0078 15.0153 30.986C15.0943 30.8678 15.1093 30.864 15.2267 30.9345C15.4238 31.053 15.8031 31.3009 15.9961 31.425C16.0219 31.4383 16.0469 31.4533 16.0708 31.4699Z" fill="#666059"/>
<path d="M22.1928 34.3163C22.2924 33.8495 22.3017 33.366 22.2202 32.8952C22.1387 32.4244 21.968 31.9756 21.7184 31.5758C21.3012 31.009 20.7771 30.5314 20.1954 30.2367C19.8323 30.0719 19.4433 29.9801 19.0482 29.966C18.0053 29.9269 17.1112 30.2908 16.3828 31.082C16.2683 31.2087 16.1607 31.3421 16.0607 31.4817C15.975 31.4278 15.1861 31.0036 15.0751 30.9027C15.0311 30.8627 15.3751 30.4521 15.5518 30.2603C15.9382 29.8408 16.3749 29.4943 16.8767 29.2405C17.3463 28.9854 17.8832 28.8395 18.4248 28.7789C18.8401 28.7316 19.2596 28.7433 19.6719 28.8138C20.2155 28.9079 20.7166 29.1307 21.1918 29.4285C21.5177 29.6306 21.8178 29.8754 22.0846 30.1575C22.609 30.7161 22.9949 31.3642 23.2124 32.1201C23.3509 32.6054 23.418 33.1104 23.4114 33.617C23.4042 34.3729 23.2241 35.0673 22.9625 35.6266C22.9107 35.7376 22.9577 35.7348 22.8074 35.6266C22.6227 35.4875 22.1618 35.1968 21.9673 35.0652C21.9552 35.0554 22.114 34.6887 22.1928 34.3163Z" fill="#45423D"/>
<path d="M17.3499 14.6155C17.2697 14.3468 17.2082 14.0727 17.1406 13.8004C17.1228 13.7287 17.1428 13.7094 17.2154 13.6908C21.2317 12.6619 26.1156 13.4481 28.6241 14.2486C29.0217 14.3989 29.4086 14.5735 29.7665 14.8124C29.9218 14.9161 30.0691 15.0304 30.1851 15.1837C30.2173 15.2257 30.2463 15.2703 30.2719 15.3171C30.3326 15.431 30.3461 15.5457 30.2891 15.6702C30.157 15.9591 30.0133 16.2414 29.858 16.5173C29.7575 16.6969 29.6545 16.8747 29.5526 17.0536C29.5046 17.1403 29.451 17.2233 29.3916 17.302C29.3399 17.3529 29.2815 17.3284 29.2257 17.3152C28.9799 17.2572 28.7319 17.2118 28.4878 17.1485C28.4698 17.1438 28.4514 17.1517 28.4332 17.1524C28.1774 17.0651 27.9075 17.0552 27.6477 16.99C27.6137 16.9814 27.5841 17.0031 27.5515 16.9973C27.1249 16.9099 26.6923 16.8658 26.2628 16.8036C26.1118 16.7817 25.9558 16.7933 25.8095 16.7364C25.7535 16.6741 25.7433 16.5927 25.7244 16.5141C25.6161 16.0507 25.4755 15.601 25.2179 15.2016C25.1786 15.1409 25.136 15.083 25.0913 15.0266C24.9573 14.8571 24.7972 14.7562 24.5799 14.7262C24.0131 14.6476 23.4455 14.5798 22.8762 14.5289C21.929 14.4439 20.9807 14.4294 20.0317 14.4435C19.5634 14.4504 19.0955 14.4832 18.6281 14.5257C18.241 14.5605 17.8549 14.6018 17.4699 14.6555C17.4222 14.6604 17.381 14.6574 17.3499 14.6155Z" fill="#ED5050"/>
<path d="M30.6676 22.7062C30.401 22.7043 30.1341 22.6985 29.8675 22.7024C29.7824 22.7036 29.7635 22.6515 29.745 22.5871C29.6727 22.5639 29.6748 22.4943 29.6637 22.4362C29.5775 21.9896 29.4964 21.5418 29.4025 21.0968C29.1716 20.0027 28.9123 18.9164 28.597 17.8456C28.5427 17.6611 28.4843 17.478 28.4311 17.293C28.415 17.2368 28.384 17.1754 28.4363 17.119C28.4557 17.0958 28.4814 17.0958 28.5067 17.1005C28.8036 17.1585 29.1 17.2165 29.3917 17.3003C29.5831 17.868 29.7441 18.4454 29.8928 19.0269C30.0946 19.817 30.2679 20.6145 30.4293 21.4148C30.4896 21.7137 30.6669 22.6988 30.6676 22.7062Z" fill="#45423D"/>
<path d="M17.3505 14.6156C17.7013 14.5525 18.0554 14.5158 18.4093 14.4824C18.6645 14.4583 18.921 14.4428 19.1768 14.4244C19.8877 14.3724 20.5992 14.3734 21.3104 14.3861C21.8271 14.3953 22.3433 14.4241 22.8591 14.4673C23.2026 14.4961 23.5456 14.5292 23.8878 14.5703C24.1753 14.6052 24.4605 14.6554 24.7481 14.6948C24.8411 14.7075 24.9111 14.7555 24.9775 14.8195C25.2065 15.0399 25.3682 15.3096 25.4951 15.6038C25.6464 15.9536 25.7501 16.3193 25.8189 16.6963C25.8029 16.7492 25.762 16.7499 25.7206 16.7472C25.5379 16.7356 25.3547 16.7221 25.1727 16.7042C25.0121 16.6885 24.8509 16.681 24.6905 16.6715C24.4349 16.6566 24.1789 16.6274 23.922 16.6423C23.8228 16.6482 23.7251 16.6219 23.6262 16.6203C23.4923 16.6182 23.4507 16.6487 23.4042 16.7795C23.1304 17.5507 22.9049 18.3379 22.7068 19.1341C22.4006 20.364 22.1671 21.6101 21.9707 22.864C21.9181 23.1992 21.8752 23.5359 21.8283 23.872C21.8187 23.9404 21.8117 24.0104 21.7704 24.0693C21.7381 24.1034 21.697 24.1057 21.6576 24.0949C21.4735 24.0448 21.2906 23.9889 21.1069 23.9373C21.0925 23.9339 21.0792 23.9269 21.068 23.9167C21.0568 23.9066 21.0482 23.8938 21.0428 23.8793C21.0132 23.7954 21.0318 23.7102 21.0437 23.6275C21.2309 22.2711 21.4601 20.9232 21.7616 19.5896C21.9748 18.6465 22.2178 17.7129 22.529 16.7999C22.5762 16.6618 22.5497 16.6217 22.4121 16.6201C21.8664 16.6137 21.3217 16.6336 20.7763 16.6611C20.5022 16.675 20.2283 16.6869 19.9549 16.711C19.9367 16.711 19.9183 16.7117 19.8999 16.7118C19.6145 16.7138 19.6079 16.7204 19.5179 17.0002C18.9942 18.6267 18.6281 20.2941 18.3453 21.9836C18.2607 22.4889 18.1865 22.9959 18.1112 23.5027C18.1044 23.5491 18.0995 23.5948 18.0718 23.6337C18.0454 23.6786 18.0017 23.6846 17.9579 23.6917C17.7304 23.7265 17.5015 23.7508 17.275 23.7931C17.224 23.8028 17.1614 23.8142 17.1511 23.7277C17.1891 23.4606 17.2271 23.1935 17.2652 22.9264C17.3639 22.2316 17.4757 21.5392 17.6005 20.8494C17.7642 19.9455 17.9514 19.0487 18.1827 18.1627C18.2928 17.7424 18.4066 17.3231 18.5451 16.9119C18.5935 16.7678 18.5933 16.7678 18.4886 16.6682C18.2359 16.4272 17.9841 16.1853 17.7301 15.9458C17.6834 15.9026 17.6508 15.8452 17.6366 15.7815C17.5506 15.4303 17.4604 15.0802 17.3716 14.7297C17.3563 14.6939 17.3489 14.6549 17.3505 14.6156Z" fill="#45423D"/>
<path d="M17.3508 14.6149C17.3642 14.6515 17.3794 14.6877 17.3716 14.7286C17.3497 14.694 17.3218 14.6601 17.3508 14.6149Z" fill="#A9A9A9"/>
<path d="M23.1812 24.7002C22.7592 24.4614 22.3167 24.2732 21.8642 24.1101C21.823 24.0953 21.7797 24.0843 21.7483 24.0486C21.7949 23.7086 21.8379 23.3679 21.8886 23.0285C22.0061 22.2427 22.1433 21.4609 22.3002 20.6829C22.5392 19.5038 22.8251 18.3382 23.201 17.1985C23.2612 17.0161 23.3235 16.8345 23.3861 16.6531C23.4177 16.5614 23.4191 16.561 23.5124 16.5638C24.0329 16.5793 24.5533 16.6003 25.0731 16.6347C25.3218 16.651 25.5697 16.6752 25.8181 16.6958C26.2285 16.7374 26.6374 16.7906 27.0456 16.8516C27.2191 16.8775 27.3926 16.9015 27.5649 16.9352C27.6639 16.9769 27.7254 17.0567 27.7852 17.1484C28.0126 17.4973 28.1936 17.874 28.3444 18.2623C28.5021 18.6684 28.6463 19.0826 28.7436 19.5118C28.7819 19.6808 28.8365 19.8454 28.8758 20.0138C29.0048 20.5678 29.1476 21.1183 29.2518 21.6787C29.3052 21.9661 29.362 22.2533 29.4322 22.5373C29.4511 22.6129 29.4821 22.6984 29.3896 22.7528C29.3797 22.7644 29.3717 22.7789 29.3594 22.7858C29.196 22.8769 29.0857 23.0251 28.9784 23.1763C28.799 23.4287 28.6214 23.6824 28.4432 23.9358C28.3931 23.959 28.3515 23.9397 28.3106 23.9087C28.096 23.7467 27.8793 23.5876 27.6606 23.4312C27.5495 23.3515 27.541 23.3116 27.6155 23.194C27.7214 23.0269 27.8351 22.8656 27.9443 22.7009C27.9863 22.6376 28.0312 22.576 28.0655 22.5075C28.1272 22.3834 28.1045 22.2596 28.0097 22.1854C27.9147 22.1113 27.7963 22.1263 27.7053 22.2339C27.5904 22.3697 27.4999 22.5253 27.4018 22.6748C27.0903 23.1477 26.7783 23.6202 26.4655 24.0924C26.4362 24.1367 26.4062 24.181 26.3864 24.2316C26.3405 24.3465 26.3724 24.4648 26.4651 24.5285C26.5608 24.5944 26.6712 24.5815 26.7523 24.4835C26.8657 24.3466 26.9558 24.1907 27.0546 24.0426C27.1174 23.9476 27.1803 23.8524 27.2453 23.759C27.2905 23.6941 27.3406 23.6844 27.4058 23.7285C27.6434 23.8894 27.8703 24.0666 28.1021 24.2363C28.1409 24.2647 28.1792 24.2983 28.1778 24.3566C28.1052 24.4811 28.0329 24.6058 27.9599 24.7299C27.9232 24.7922 27.884 24.8527 27.8478 24.9155C27.697 25.1751 27.6923 25.4435 27.8223 25.7099C28.1723 26.4273 28.5359 27.137 28.9464 27.8188C28.9975 27.9038 29.0523 27.9857 29.1036 28.07C29.2483 28.3074 29.4643 28.4026 29.7187 28.4108C29.9638 28.4183 30.2084 28.39 30.4526 28.3675C30.4469 29.4416 30.1552 30.4242 29.609 31.3286C29.5324 31.455 29.4497 31.5091 29.3005 31.5046C28.9051 31.492 28.5092 31.5023 28.1135 31.5034C28.0336 31.4917 28.0364 31.4173 28.0253 31.3613C27.9785 31.131 27.9168 30.9051 27.8516 30.6798C27.6013 29.8108 27.2385 28.9823 26.7733 28.2179C26.623 27.9707 26.4551 27.7373 26.2977 27.4959C26.1514 27.2946 25.9935 27.1031 25.8307 26.9172C25.5404 26.5861 25.2393 26.2663 24.9097 25.9773C24.4331 25.562 23.9225 25.1917 23.384 24.871C23.3094 24.8237 23.22 24.7944 23.1812 24.7002Z" fill="#B9E1E1"/>
<path d="M29.3665 22.7799C29.397 22.7103 29.3944 22.6143 29.3786 22.5487C29.2394 21.9772 28.257 17.9932 27.7016 17.1164C27.6342 17.0102 27.6184 16.982 27.5654 16.9354C27.8264 16.9568 28.0821 17.0148 28.3407 17.0529C28.3606 17.0553 28.3795 17.0625 28.3963 17.0742C28.4128 17.0857 28.4265 17.1013 28.4364 17.1196C28.7834 18.2297 29.081 19.3542 29.3294 20.4932C29.4817 21.1873 29.6379 21.9331 29.762 22.6335L29.7639 22.638C29.7889 22.6869 29.7953 22.6734 29.6499 22.6926C29.5599 22.7047 29.4386 22.7471 29.3665 22.7799Z" fill="#DCF9FB"/>
<path d="M21.0678 23.8653C20.8419 23.8189 20.6162 23.7682 20.3898 23.7273C20.1196 23.6791 19.8472 23.6459 19.5737 23.6277C19.3149 23.6099 19.0583 23.6044 18.799 23.6039C18.6533 23.6039 18.5057 23.6188 18.3591 23.6075C18.2991 23.559 18.3099 23.4932 18.3186 23.4271C18.4429 22.4824 18.5875 21.5417 18.776 20.6076C18.9082 19.9497 19.057 19.2964 19.2401 18.6527C19.415 18.0377 19.6188 17.4335 19.9346 16.8797C19.9821 16.7964 19.9896 16.7275 19.9393 16.6494C19.9741 16.6347 20.0111 16.6348 20.0476 16.633C20.8787 16.5934 21.7097 16.5503 22.542 16.5583C22.5779 16.5583 22.6152 16.5494 22.6502 16.5682C22.6641 16.6098 22.6408 16.6438 22.6288 16.6785C22.2618 17.7344 21.9845 18.8186 21.7457 19.9138C21.5431 20.843 21.375 21.7792 21.23 22.7201C21.1716 23.1013 21.122 23.4837 21.0678 23.8653Z" fill="#B9E1E1"/>
<path d="M20.0117 16.6354C20.1605 16.617 20.1464 16.6256 20.0572 16.7862C19.8163 17.2197 19.6134 17.6654 19.4585 18.1357C19.3686 18.4082 19.2815 18.6833 19.2142 18.9645C19.1407 19.2713 19.054 19.5745 18.9859 19.8829C18.9168 20.195 18.8585 20.5094 18.7947 20.8227C18.7292 21.1435 18.6625 21.464 18.6127 21.7879C18.5356 22.2907 18.4612 22.7938 18.3894 23.2973C18.3748 23.3998 18.3563 23.5029 18.3593 23.6078C18.3222 23.6253 18.068 23.653 18.0486 23.6078C18.0653 23.361 18.1093 23.1179 18.1455 22.8741C18.2351 22.2717 18.3359 21.6713 18.4477 21.0728C18.7086 19.6897 19.0301 18.3228 19.461 16.987C19.4882 16.9031 19.5204 16.8207 19.5445 16.7357C19.5586 16.686 19.5867 16.6675 19.6317 16.6661C19.7349 16.6607 19.9934 16.6346 20.0117 16.6354Z" fill="#DCF9FB"/>
<path d="M33.7523 33.6488C33.4958 33.628 33.2103 33.4156 33.0063 33.9644C32.8035 34.5082 33.1016 34.7178 33.0567 34.6995C33.0345 34.6965 33.0122 34.6957 32.9898 34.6974C32.822 34.6995 32.6485 34.6702 32.4809 34.67C32.4216 34.6412 32.4355 34.5902 32.4454 34.5405C32.5298 34.1128 32.6591 33.6966 32.8309 33.299C33.0583 32.7777 33.3365 32.2896 33.6852 31.8464C34.17 31.2307 34.7377 30.7208 35.3981 30.3247C36.0852 29.9122 36.8229 29.6572 37.6046 29.546C37.9821 29.4924 38.3629 29.4725 38.7446 29.5006C38.8893 29.5114 39.0025 29.4491 39.0802 29.3234C39.1121 29.2721 39.1471 29.2333 39.2015 29.2129C39.2644 29.2122 39.3216 29.2403 39.3816 29.2543C39.5137 29.2857 39.5274 29.2805 39.5853 29.1546C39.6789 28.9512 39.7761 28.7496 39.8971 28.5616C39.9267 28.5415 39.9515 28.5141 39.9694 28.482C40.1262 28.2292 40.3266 28.0201 40.5622 27.8485C40.5689 27.8452 40.5764 27.8438 40.5835 27.8448C40.6689 27.8448 40.6911 27.9133 40.7116 27.9803C40.8019 28.2746 40.9033 28.5637 41.0288 28.8439C41.2366 29.3079 41.4931 29.7373 41.8226 30.1161C41.8715 30.1727 41.9336 30.2231 41.9048 30.3151C41.7334 30.6323 41.5618 30.9495 41.3902 31.2665C41.365 31.3131 41.3373 31.3583 41.3106 31.4042C41.2628 31.484 41.2089 31.5596 41.1496 31.6303C41.1343 31.6184 41.1179 31.6081 41.1007 31.5992C41.0908 31.5943 41.0721 31.5767 41.0624 31.5711C40.8828 31.4683 40.9083 31.4615 40.9979 31.2695C41.0539 31.1485 41.0832 31.0258 41.0477 30.8894C41.0336 30.8329 41.0087 30.7803 40.9745 30.7346C40.9402 30.689 40.8974 30.6513 40.8487 30.6239C40.7339 30.5581 40.6145 30.496 40.4833 30.4673C40.2992 30.427 40.1068 30.5169 40.0181 30.6922C39.9888 30.7503 39.9683 30.8126 39.9411 30.8716C39.9021 30.9579 39.8796 30.9699 39.7945 30.9444C39.5686 30.8765 39.3405 30.821 39.1065 30.7936C39.0845 30.7908 39.0637 30.7819 39.0419 30.7798C38.9795 30.7721 38.9531 30.7334 38.9538 30.67C38.9538 30.6082 38.9498 30.5461 38.9538 30.4843C38.9682 30.2505 38.8268 30.0924 38.6217 30.0498C38.4737 30.0189 38.321 30.021 38.174 30.0559C37.9859 30.1004 37.8745 30.2214 37.8483 30.4272C37.8377 30.5033 37.8315 30.5803 37.8296 30.6573C37.8287 30.7578 37.8221 30.7662 37.7259 30.7861C37.6072 30.8107 37.4876 30.8292 37.3687 30.8528C37.2463 30.8776 37.1252 30.9083 37.0054 30.9451C36.9274 30.969 36.9092 30.9594 36.8766 30.8828C36.8468 30.8123 36.8187 30.7412 36.7802 30.6751C36.6785 30.501 36.4946 30.4207 36.3065 30.4717C36.1713 30.5089 36.0427 30.5686 35.9257 30.6489C35.755 30.765 35.6926 30.9842 35.765 31.1907C35.7865 31.252 35.8179 31.3093 35.8432 31.3695C35.8749 31.4451 35.872 31.4632 35.8092 31.5037C35.5867 31.6472 35.3809 31.8146 35.1762 31.9838C35.1164 32.0335 35.0998 32.0339 35.044 31.9796C34.9942 31.9283 34.9412 31.8803 34.8859 31.8361C34.7285 31.7162 34.5134 31.7148 34.3654 31.8464C34.2624 31.9382 34.1648 32.0381 34.0913 32.1608C33.9799 32.3465 34.0057 32.567 34.1574 32.7178C34.2187 32.7789 34.225 32.7835 34.3248 32.8554C34.1716 33.0167 33.8721 33.4529 33.7844 33.6245" fill="#414141"/>
<path d="M31.7022 34.6482C31.086 34.6475 30.4698 34.6468 29.8536 34.6461C28.874 34.6461 27.8948 34.6461 26.9153 34.6461C26.6893 34.6461 26.6855 34.6386 26.717 34.4052C26.739 34.235 26.743 34.0653 26.6522 33.9105C26.5546 33.7436 26.4165 33.6366 26.2312 33.6067C26.1407 33.5912 26.0495 33.5814 25.958 33.5774C25.8479 33.5741 25.8278 33.5453 25.8237 33.4283C25.8105 33.05 25.7812 32.674 25.7122 32.3013C25.6848 32.1538 25.6923 32.1414 25.8327 32.1006C25.9462 32.0676 26.0568 32.0267 26.158 31.9625C26.4099 31.8029 26.4837 31.5301 26.4234 31.2499C26.3957 31.1221 26.3539 30.9975 26.3133 30.8734C26.2076 30.5515 25.9277 30.3841 25.6105 30.4467C25.5018 30.4682 25.3976 30.5047 25.2929 30.5396C25.2068 30.5686 25.196 30.5656 25.156 30.4776C24.9894 30.1074 24.7928 29.753 24.5684 29.4182C24.5262 29.3559 24.5285 29.3363 24.5927 29.2855C24.6808 29.215 24.7521 29.1258 24.8339 29.0485C25.0304 28.8629 25.0269 28.4722 24.9093 28.2856C24.7985 28.11 24.6581 27.9606 24.5053 27.8295C24.3131 27.6638 23.9761 27.6579 23.7624 27.8602C23.6889 27.93 23.6054 27.988 23.5403 28.0674C23.5013 28.1152 23.4653 28.1161 23.4191 28.0751C23.3102 27.9777 23.2002 27.8815 23.0872 27.7895C22.9101 27.6453 22.7237 27.5156 22.5347 27.3889C22.3709 27.2791 22.3785 27.3037 22.4618 27.122C22.4966 27.0496 22.5271 26.9751 22.5532 26.8987C22.6485 26.6016 22.5621 26.276 22.2583 26.1136C22.1272 26.0439 21.9956 25.9721 21.8543 25.9316C21.656 25.8748 21.4625 25.8852 21.2883 26.0216C21.2176 26.0776 21.1609 26.1509 21.123 26.2352C21.0761 26.3356 21.0349 26.439 20.99 26.5404C20.956 26.6169 20.9485 26.6217 20.8717 26.5962C20.5772 26.4988 20.2761 26.4322 19.9715 26.3812C19.8992 26.3697 19.8266 26.358 19.7541 26.3471C19.6491 26.3311 19.641 26.3225 19.6391 26.2064C19.6377 26.1099 19.638 26.0132 19.6391 25.9163C19.6416 25.6481 19.507 25.4754 19.2891 25.3634C19.2265 25.3301 19.1579 25.311 19.0879 25.3074C18.9233 25.3015 18.7584 25.2904 18.5941 25.319C18.2808 25.3742 18.0862 25.6047 18.0765 25.9384C18.0741 26.0233 18.0765 26.1083 18.0755 26.1936C18.0739 26.3239 18.0689 26.3279 17.9498 26.3478C17.5839 26.4089 17.2191 26.4755 16.8636 26.5888C16.7788 26.6157 16.7687 26.6099 16.7299 26.5218C16.693 26.4376 16.657 26.3531 16.6198 26.2689C16.4733 25.9347 16.1336 25.8266 15.8206 25.9468C15.7033 25.9916 15.5889 26.0441 15.4779 26.1041C15.2959 26.2032 15.1758 26.3564 15.1365 26.5745C15.1163 26.6891 15.1265 26.8072 15.166 26.916C15.2002 27.0142 15.2455 27.1069 15.2882 27.201C15.3244 27.2808 15.3203 27.299 15.2511 27.3433C14.9589 27.5301 14.6859 27.745 14.4195 27.9698C14.3853 27.9988 14.3534 28.0313 14.3204 28.0611C14.2634 28.1114 14.2459 28.1114 14.1882 28.059C14.1244 28.0009 14.0587 27.945 13.999 27.8824C13.774 27.6467 13.3527 27.6481 13.1343 27.8986C13.0699 27.9723 13.0085 28.0494 12.9424 28.1215C12.8625 28.2083 12.8572 28.2053 12.7752 28.1257C12.7056 28.058 12.5415 27.9061 12.5298 27.897C12.4205 27.7684 12.425 27.7675 12.5357 27.6359C13.4768 26.5168 14.6698 25.6649 16.0051 25.1585C16.6781 24.9032 17.3708 24.7368 18.0825 24.6722C18.5172 24.6342 18.954 24.6298 19.3893 24.6592C19.9789 24.6965 20.5631 24.7984 21.1325 24.9634C21.5997 25.098 22.0541 25.2776 22.49 25.5001C22.7878 25.6481 23.0767 25.8152 23.355 26.0007C23.7449 26.2607 24.1139 26.5539 24.4585 26.8773C24.7882 27.1892 25.0977 27.524 25.385 27.8794C25.424 27.9304 25.4604 27.9836 25.4942 28.0386C25.763 28.3582 25.9788 28.7175 26.1804 29.0848C26.5856 29.8209 26.8886 30.614 27.0803 31.4402C27.1474 31.7293 27.1918 32.0227 27.2415 32.3153C27.2845 32.5705 27.4622 32.6578 27.6804 32.5342C27.9539 32.3795 28.1276 32.011 28.0879 31.6849C28.0791 31.6142 28.0328 31.5341 28.1049 31.4676C28.1621 31.4337 28.225 31.4365 28.2874 31.4362C28.6176 31.4353 28.9476 31.4318 29.2775 31.4379C29.4137 31.4405 29.5049 31.3868 29.5779 31.2679C29.8507 30.8224 30.0587 30.3364 30.1946 29.826C30.3019 29.4276 30.379 29.0233 30.405 28.6089C30.4083 28.5665 30.4076 28.5237 30.4031 28.4813C30.3974 28.431 30.4092 28.3895 30.4534 28.3631C30.5251 28.3617 30.6818 28.3523 30.6889 28.3516C30.9628 28.3345 30.9628 28.3347 30.9633 28.6248C30.9633 28.8453 30.9621 29.0656 30.964 29.2855C30.9657 29.487 31.0167 29.5491 31.2037 29.5987C31.6514 29.7188 32.1045 29.7577 32.5661 29.7324C32.7795 29.7207 32.988 29.6804 33.1998 29.6626C33.2435 29.6575 33.2863 29.6458 33.327 29.628C33.4555 29.576 33.4934 29.5236 33.4952 29.3763C33.4986 29.1022 33.4943 28.8278 33.4976 28.5534C33.4983 28.4937 33.4867 28.4279 33.5371 28.3795C33.6203 28.312 33.6997 28.3635 33.7739 28.3963C33.9576 28.4776 34.0956 28.6218 34.2225 28.7779C34.4575 29.0668 34.6317 29.3969 34.7971 29.7329C34.8116 29.7598 34.8177 29.7909 34.8146 29.8218C34.809 29.897 34.7572 29.9344 34.7045 29.9705C34.2717 30.265 33.8834 30.6147 33.526 31.005C33.1163 31.4524 32.7765 31.9525 32.4886 32.493C32.1541 33.1207 31.927 33.7897 31.7927 34.4951C31.7811 34.5543 31.7925 34.6382 31.7022 34.6482Z" fill="#45423D"/>
<path d="M31.7019 34.6483C31.7295 34.5165 31.7562 34.3844 31.7855 34.2538C32.025 33.1787 32.485 32.2194 33.1491 31.3672C33.5902 30.7978 34.1133 30.3048 34.6995 29.9061C34.733 29.8829 34.7701 29.8645 34.7912 29.8249C34.8174 29.7785 36.8164 28.4233 39.0519 28.8587C39.1848 28.9605 39.2006 29.1563 39.1283 29.3337C39.0576 29.507 38.9259 29.5613 38.7151 29.5561C38.5206 29.551 38.3263 29.54 38.1327 29.5512C37.8067 29.5685 37.4829 29.6118 37.1634 29.6809C36.2881 29.8743 35.4911 30.2489 34.7758 30.8142C33.9403 31.4747 33.3096 32.31 32.8768 33.3106C32.7012 33.7191 32.5691 34.147 32.4826 34.5862C32.4772 34.6124 32.4055 35.0369 32.3833 35.2244C32.3635 35.3983 32.2843 35.5198 32.1247 35.5772C31.8905 35.6615 31.6402 35.4815 31.6352 35.2207C31.6324 35.0893 31.6593 34.9603 31.678 34.8309C31.6856 34.7794 31.6936 34.6567 31.7019 34.6483Z" fill="#A19D98"/>
<path d="M29.7944 33.7444C29.3948 33.7444 28.9951 33.7455 28.5956 33.7437C28.4084 33.7427 28.2727 33.6465 28.1954 33.47C28.1181 33.2932 28.142 33.1219 28.2541 32.9685C28.3432 32.8472 28.4706 32.8007 28.6119 32.796C28.7072 32.7929 28.8027 32.7948 28.8984 32.7948C29.573 32.7953 30.2476 32.7957 30.9222 32.7962C31.05 32.7962 31.1692 32.8194 31.2706 32.9109C31.4105 33.0373 31.4674 33.2424 31.4091 33.425C31.3807 33.5175 31.3252 33.5983 31.2507 33.6559C31.176 33.7132 31.0862 33.7446 30.9938 33.7451C30.5941 33.7472 30.1941 33.7444 29.7944 33.7444Z" fill="#FC4F4F"/>
<path d="M17.151 23.7265C17.176 23.7475 17.2046 23.7481 17.234 23.7419C17.4841 23.6904 17.7369 23.6607 17.99 23.6331C18.0121 23.6305 18.0011 23.6309 18.0635 23.6246C18.9523 23.555 20.1371 23.6063 21.0688 23.8655C21.2742 23.9254 21.4811 23.9699 21.6868 24.0293C21.7078 24.0306 22.7143 24.4184 23.1053 24.6398C23.1403 24.6661 23.1574 24.6802 23.1824 24.7003C23.1984 24.8903 23.1424 25.033 23.0371 25.1626C22.8905 25.3433 22.6968 25.4728 22.48 25.5548C22.2012 25.4271 21.9237 25.2964 21.6358 25.1917C21.1263 25.0064 20.6014 24.8719 20.0681 24.7901C19.6033 24.7204 19.134 24.6906 18.6647 24.7008C18.1109 24.7106 17.5596 24.7804 17.0194 24.9091C15.3428 25.3058 13.8225 26.2361 12.6648 27.5739C12.6278 27.6167 12.59 27.6589 12.5529 27.7015C12.4758 27.7907 12.4421 27.8485 12.3853 27.9192C12.2909 28.0372 12.199 28.1575 12.1071 28.2776C11.8923 28.5579 11.5148 28.5728 11.2797 28.279C11.1205 28.08 11.1475 27.7801 11.2771 27.5912C11.4183 27.3889 11.5693 27.1944 11.7294 27.0084C11.8931 26.8155 12.0525 26.6185 12.2319 26.4413C12.4834 26.1932 12.7338 25.9432 13.0072 25.7219C13.9411 24.9663 14.9646 24.3901 16.0927 24.0262C16.3908 23.9298 16.6935 23.8501 16.9997 23.7876C17.0537 23.777 17.1103 23.7729 17.151 23.7265Z" fill="#ED5050"/>
<path d="M26.3289 27.462C26.6022 27.8026 26.8246 28.1798 27.0392 28.5621C27.2919 29.0115 27.5018 29.483 27.6798 29.9707C27.8428 30.4183 27.984 30.873 28.0778 31.3428C28.0889 31.3957 28.1021 31.4472 28.1144 31.5004C28.139 31.6446 28.1671 31.7874 28.1371 31.9358C28.0759 32.2406 27.9317 32.4792 27.6566 32.6119C27.4259 32.7234 27.2259 32.607 27.1881 32.3425C27.0891 31.6462 26.9272 30.9666 26.6804 30.3109C26.3883 29.535 26.0058 28.814 25.5191 28.1538C25.4969 28.1236 25.4764 28.0915 25.4551 28.0604C25.5078 27.8761 25.6168 27.7272 25.7217 27.5741C25.7808 27.4882 25.8718 27.5022 25.9479 27.477C26.0708 27.4362 26.1999 27.403 26.3289 27.462Z" fill="#ED5050"/>
<path d="M26.2657 27.4463C25.6632 27.395 25.4739 28.0211 25.4545 28.0604C25.1943 27.7265 24.9198 27.4067 24.6209 27.1101C24.0137 26.5055 23.3245 25.9992 22.5761 25.6078C22.5431 25.5908 22.5112 25.573 22.4788 25.5548C22.5068 25.52 22.7548 25.4688 22.9615 25.1719C23.1364 24.9207 23.1776 24.7503 23.1811 24.7003C23.3784 24.7784 23.5506 24.9052 23.7295 25.0179C24.0388 25.211 24.3361 25.4246 24.6196 25.6574C24.8758 25.8695 25.1244 26.0904 25.3611 26.3278C25.5233 26.4902 25.6753 26.6623 25.8287 26.8326C26.0071 27.0308 26.187 27.2302 26.3281 27.4622" fill="#ED5050"/>
<path d="M41.8953 30.3128C41.8306 30.199 41.7322 30.1156 41.653 30.0138C41.2273 29.4667 40.9222 28.8507 40.7071 28.1828C40.6825 28.106 40.6601 28.0285 40.6352 27.9518C40.6248 27.9192 40.617 27.882 40.5731 27.8832C40.0304 27.3936 39.3752 27.1206 38.7337 26.8216C37.7646 26.3705 36.7525 26.0604 35.7288 25.7871C34.9258 25.5728 34.1125 25.4139 33.2965 25.2669C33.2223 25.2535 33.1429 25.247 33.0916 25.174C33.0781 25.1211 33.0781 25.0671 33.0781 25.0131C33.077 24.3738 33.0772 23.7344 33.0791 23.0951C33.0791 23.0255 33.0588 22.9454 33.1301 22.8939C33.2909 22.9356 33.457 22.9356 33.6204 22.9595C33.9286 23.0045 34.2389 23.038 34.5469 23.0871C34.9457 23.15 35.3456 23.2059 35.7413 23.2895C36.0143 23.3475 36.2889 23.3963 36.5615 23.4576C36.881 23.5294 37.2004 23.6021 37.5157 23.6866C38.0416 23.8274 38.5673 23.9702 39.0797 24.1602C39.2837 24.2357 39.486 24.3173 39.6926 24.3843C39.903 24.4526 40.068 24.5888 40.2249 24.7422C40.5665 25.0758 40.9071 25.4103 41.2366 25.757C41.4569 25.989 41.6781 26.2195 41.8882 26.4622C41.9792 26.5673 42.0799 26.6635 42.1747 26.7658C42.3383 26.9428 42.4905 27.1309 42.6583 27.3042C42.7928 27.4435 42.8725 27.6188 42.8824 27.8195C42.8963 28.1016 42.8876 28.3813 42.8197 28.6588C42.6945 29.1691 42.4638 29.6196 42.1508 30.0267C42.0724 30.128 41.9913 30.2278 41.8953 30.3128Z" fill="#ED5050"/>
<path d="M28.1782 24.3542L27.4199 23.8C27.4074 23.7921 27.3953 23.7831 27.3842 23.7731C27.3384 23.7267 27.3107 23.748 27.2819 23.7963C27.2389 23.868 27.1906 23.9364 27.1443 24.0059C27.0346 24.17 26.9273 24.336 26.8146 24.4977C26.7309 24.6178 26.6248 24.6548 26.5075 24.6162C26.3322 24.5582 26.253 24.3592 26.34 24.1869C26.3671 24.1326 26.4033 24.0831 26.4369 24.0325C26.8226 23.4501 27.2086 22.8677 27.5948 22.2855C27.6189 22.2468 27.6457 22.21 27.6747 22.1752C27.7754 22.0611 27.9281 22.0432 28.0437 22.1288C28.0997 22.1702 28.1394 22.232 28.1553 22.3023C28.1709 22.3727 28.1612 22.4466 28.1283 22.51C28.094 22.5779 28.0501 22.6404 28.0082 22.7036C27.8884 22.884 27.7674 23.0633 27.6471 23.2431C27.5991 23.3148 27.5979 23.3163 27.6667 23.3668C27.925 23.5566 28.1841 23.7459 28.4432 23.9346L28.1782 24.3542Z" fill="#45423E"/>
<path d="M31.3046 22.7504C31.3401 22.7768 31.3377 22.8169 31.3377 22.8548C31.3386 23.5324 31.3386 24.2099 31.3377 24.8872C31.3386 24.9104 31.3349 24.9334 31.3266 24.9549C31.2812 25.0129 31.2164 25.0106 31.1552 25.0108C30.9283 25.012 30.7016 24.9992 30.475 24.9946C29.8417 24.9802 29.2085 24.9889 28.5743 24.9902C28.5304 24.9902 28.4862 24.9927 28.4453 25.0134C28.4212 25.025 28.3992 25.0417 28.4027 25.0736C28.4061 25.1055 28.4316 25.1153 28.4571 25.1224C28.4748 25.1272 28.493 25.1295 28.5115 25.129C28.8223 25.122 29.1331 25.1355 29.4446 25.115C29.7436 25.0952 30.0441 25.1012 30.3445 25.1202C30.6036 25.1366 30.8636 25.1434 31.1231 25.1533C31.1893 25.1557 31.2552 25.151 31.3141 25.1924C31.3434 25.3477 31.3895 25.5013 31.358 25.6629C31.3573 25.6777 31.3535 25.6921 31.3464 25.7049C31.298 25.7657 31.2226 25.767 31.1597 25.7946C31.0406 25.8468 30.9813 25.932 30.985 26.0705C31.0021 26.7032 30.9548 27.3353 30.9631 27.9679C30.964 28.0412 30.9654 28.1142 30.9732 28.1875C30.9898 28.3455 30.9484 28.3975 30.7969 28.4136C30.757 28.4178 30.7165 28.419 30.6759 28.4202C30.6054 28.4211 30.535 28.4216 30.4648 28.4157C30.2589 28.4497 30.0505 28.452 29.8429 28.467C29.4581 28.4942 29.1757 28.3293 28.9752 27.9796C28.697 27.4945 28.4162 27.0111 28.1617 26.5113C28.0475 26.2872 27.9414 26.0588 27.821 25.8376C27.6277 25.4824 27.6258 25.1351 27.8515 24.7951C27.9501 24.6469 28.022 24.48 28.1397 24.3457C28.2049 24.1841 28.3106 24.0495 28.4056 23.9076C28.6235 23.569 28.8535 23.2397 29.1012 22.9246C29.1768 22.8284 29.282 22.7691 29.3789 22.7C29.5075 22.6634 29.9739 22.6536 30.0921 22.6496C30.2263 22.6448 30.361 22.6477 30.4953 22.6496C30.5593 22.65 31.1812 22.6855 31.3046 22.7504Z" fill="#ED5050"/>
<path d="M39.2063 29.2649C39.1647 29.2405 39.1389 29.2068 39.1417 29.1534C39.1502 28.9909 39.0505 28.9109 38.9283 28.8512C38.7659 28.7887 37.5273 28.666 36.2961 29.1167C35.8631 29.2644 35.4454 29.4486 35.0526 29.6926C34.9803 29.7375 34.9001 29.7682 34.8323 29.822C34.8228 29.8295 34.8046 29.8246 34.7905 29.8255C34.6938 29.6802 34.63 29.5156 34.543 29.3644C34.4083 29.1305 34.2657 28.9034 34.0835 28.7063C33.9405 28.5513 33.7783 28.4326 33.5734 28.3891C33.5172 28.3937 33.5086 28.3502 33.5018 28.308C33.4956 28.2582 33.4935 28.2078 33.4954 28.1578C33.4954 27.8068 33.4895 27.4557 33.4968 27.1048C33.5037 26.7727 33.4675 26.4424 33.472 26.1106C33.4737 25.9844 33.4169 25.8988 33.3068 25.8497C33.2628 25.8301 33.2203 25.8077 33.1792 25.7824C33.1477 25.7629 33.1137 25.7428 33.1274 25.6933L33.1316 25.4423C33.168 25.389 33.2177 25.3966 33.2706 25.4049C33.88 25.5015 34.4853 25.6208 35.0864 25.7629C35.809 25.9351 36.5275 26.1241 37.2309 26.3704C37.7949 26.5677 38.353 26.7821 38.8933 27.0446C39.1495 27.1691 39.4109 27.2836 39.645 27.4521C39.7331 27.5156 39.8038 27.6001 39.8709 27.6879C40.0305 27.8967 39.99 28.1393 39.9752 28.3769C39.9707 28.4511 39.9371 28.5202 39.9312 28.5948C39.7932 28.8158 39.6754 29.0499 39.5795 29.2944C39.5599 29.3452 39.5336 29.3641 39.4786 29.3445C39.3899 29.3128 39.2975 29.2911 39.2063 29.2649Z" fill="#ED5050"/>
<path d="M39.9328 28.5951C39.9021 28.5331 39.9071 28.4659 39.9184 28.4022C39.9425 28.2678 39.934 28.133 39.934 27.9981C39.934 27.8658 39.8645 27.7633 39.7887 27.6692C39.6932 27.5514 39.5762 27.4552 39.4448 27.3862C38.8297 27.0569 38.193 26.7828 37.5413 26.5448C37.0705 26.3726 36.5954 26.2155 36.1127 26.0853C35.5024 25.9208 34.89 25.769 34.2702 25.6444C33.914 25.5729 33.5552 25.5193 33.1988 25.4496C33.1773 25.4454 33.1548 25.4446 33.1333 25.4421C33.1333 25.3571 33.1333 25.2722 33.1333 25.1876C33.3522 25.2095 33.5677 25.2554 33.7838 25.2963C34.0648 25.3495 34.3454 25.4061 34.6255 25.4659C34.9193 25.5294 35.2136 25.591 35.5043 25.6724C35.7269 25.7346 35.9522 25.7875 36.1756 25.8487C36.7218 25.9987 37.2614 26.1709 37.7944 26.3654C38.2275 26.5235 38.6463 26.7193 39.0673 26.9087C39.4679 27.0896 39.8565 27.2991 40.2302 27.5353C40.3399 27.6043 40.4406 27.6891 40.5441 27.7687C40.5807 27.7968 40.6138 27.8307 40.5741 27.8832C40.4344 28.0136 40.2902 28.1386 40.1664 28.2872C40.0839 28.3863 40.0111 28.4923 39.9328 28.5951Z" fill="#ED5050"/>
<path d="M31.3042 24.9559L31.3049 25.2103C30.5717 25.1469 29.2046 25.1469 28.5146 25.1878C28.4621 25.1852 28.4099 25.1795 28.3579 25.1708C28.3194 25.1616 28.2601 25.1093 28.261 25.0766C28.2629 25.0165 28.2957 24.9874 28.3383 24.9652C28.3915 24.9371 28.4624 24.9319 28.5222 24.9319C29.1824 24.9319 29.8428 24.9214 30.5027 24.9381C30.7696 24.9449 31.0371 24.9491 31.3042 24.9559Z" fill="#ED5050"/>
<path d="M42.6212 28.0421C42.6248 28.2917 42.5773 28.5213 42.5094 28.747C42.3896 29.1462 42.1946 29.5022 41.9462 29.8274C41.8958 29.8934 41.8932 29.8937 41.8408 29.8284C41.5992 29.5294 41.4061 29.1979 41.2404 28.8472C41.1161 28.5838 41.0142 28.3109 40.9229 28.0334C40.8948 27.9473 40.8981 27.9321 40.9799 27.8878C41.2657 27.7333 41.5652 27.6235 41.8847 27.5755C42.0303 27.5535 42.1771 27.554 42.3227 27.535C42.3374 27.5338 42.352 27.5334 42.3667 27.5341C42.5052 27.5369 42.5269 27.5554 42.5789 27.6884C42.625 27.8066 42.6241 27.9295 42.6212 28.0421Z" fill="#FEFEFE"/>
<path d="M33.1176 22.951C33.1176 23.6886 33.1257 25.3064 33.1429 25.7602C33.102 25.815 33.0488 25.795 33.0011 25.7806C32.4846 25.6218 31.9649 25.6454 31.4434 25.7458C31.3995 25.7542 31.3567 25.7657 31.3196 25.7277L31.3167 25.7314C31.2926 25.6966 31.3167 22.0922 31.3137 21.8615C31.3123 21.7624 31.3281 21.6726 31.3749 21.5855C31.4323 21.4785 31.4824 21.3673 31.5359 21.2577C31.5432 21.2498 31.5531 21.2448 31.5637 21.2438C32.1648 21.5143 32.6614 21.8281 33.1141 22.3158C33.1075 22.4921 33.1141 22.728 33.1176 22.951Z" fill="#414141"/>
<path d="M31.5658 21.2016H31.5568L31.5481 21.1999C31.5914 21.0907 31.5939 20.9763 31.5935 20.8601C31.5921 20.5129 31.5975 20.1656 31.5944 19.8185C31.5932 19.692 31.6294 19.5894 31.7046 19.4904C32.0745 19.002 32.4768 18.5415 32.9079 18.1122C33.1819 17.8393 33.4728 17.5858 33.7924 17.3718C33.8531 17.3871 33.8271 17.4288 33.8134 17.4608C33.6175 17.9161 33.6451 18.3936 33.7068 18.8675C33.7338 19.0763 33.7888 19.2915 33.9536 19.4449C33.9654 19.4546 33.9732 19.4686 33.9758 19.4841C33.9782 19.4995 33.9751 19.5154 33.9671 19.5286C33.5948 19.7109 33.3024 19.994 33.0556 20.3338C33.0192 20.384 32.9923 20.437 33.0013 20.5031C32.985 20.9168 32.9885 21.3301 33.0022 22.0107C33.0015 22.0181 33.0006 22.0253 32.9994 22.0326C32.9443 22.0719 32.9084 22.0274 32.8743 21.9971C32.7273 21.8652 32.5846 21.7284 32.426 21.6109C32.2527 21.4822 32.0752 21.3621 31.883 21.2665C31.7819 21.2164 31.679 21.1825 31.5658 21.2016Z" fill="#A19D98"/>
<path d="M34.032 17.321C34.1062 17.3601 34.1443 17.4254 34.163 17.5093C34.211 17.7226 34.2426 17.9396 34.2578 18.1582C34.2835 18.5321 34.2322 18.8939 34.1433 19.2528C34.1249 19.3275 34.1036 19.4012 34.0566 19.4629C34.0098 19.4713 33.9954 19.4355 33.9765 19.4013C33.7576 19.0054 33.7179 18.5734 33.7451 18.1284C33.7486 18.0674 33.7581 18.0064 33.7619 17.9449C33.7741 17.7085 33.8708 17.4857 34.032 17.321Z" fill="#A19D98"/>
<path d="M33.3574 25.8051C33.4716 25.8579 33.5276 25.9354 33.5321 26.0793C33.5553 26.8045 33.5491 27.5296 33.5508 28.2547C33.5508 28.301 33.5555 28.4944 33.555 28.5483C33.5534 28.8491 33.5484 29.1499 33.5524 29.4507C33.5539 29.5566 33.5123 29.617 33.4253 29.6551C32.7001 29.8642 31.7584 29.8537 31.098 29.6319C30.9491 29.5844 30.9096 29.5259 30.9085 29.3639C30.9068 29.1518 30.9085 28.9397 30.9085 28.7273C30.9085 28.6389 30.9099 28.5501 30.9085 28.4612C30.9068 28.3724 30.9304 26.9973 30.9304 26.9549C30.9304 26.6309 30.9328 26.3067 30.9295 25.9826C30.9285 25.8807 30.9642 25.8195 31.0545 25.7769C32.1033 25.4278 32.6538 25.5294 33.3574 25.8051Z" fill="#A19D98"/>
<path d="M31.126 27.7146V26.1504C31.126 26.1234 31.1253 26.0963 31.126 26.0692C31.1284 25.9617 31.1372 25.9473 31.2352 25.9096C31.604 25.7606 32.6823 25.6196 33.2578 26.0196C33.3486 26.07 33.3633 26.1214 33.367 26.2431C33.3819 26.5171 33.3562 28.5522 33.3571 29.336C33.3571 29.3517 33.3571 29.3669 33.3571 29.3824C33.3543 29.4943 33.3472 29.4997 33.2394 29.5231C32.5681 29.6701 31.9006 29.6507 31.236 29.4767C31.1374 29.451 31.1322 29.4484 31.1322 29.3363C31.1312 28.9769 31.1312 28.6178 31.1322 28.2586C31.1322 28.077 31.1322 27.8955 31.1322 27.7139L31.126 27.7146Z" fill="#45423D"/>
<path d="M31.5413 21.2236C31.5541 21.1244 31.6115 21.1141 31.7224 21.1414C31.8554 21.1832 31.9828 21.2431 32.1012 21.3198C32.3648 21.4855 32.6172 21.6679 32.8387 21.8941C32.8881 21.9447 32.9455 21.987 32.9992 22.0326C33.0068 22.0659 33.0238 22.096 33.0481 22.1188C33.1181 22.185 33.1275 22.2616 33.1134 22.3583C32.9971 22.3409 32.9318 22.2678 32.8581 22.1821C32.6581 21.9501 32.4244 21.7622 32.1766 21.5912C32.024 21.4858 31.7902 21.3707 31.6207 21.2995C31.5626 21.2751 31.5344 21.2766 31.5413 21.2236Z" fill="#DCF9FB"/>
<path d="M34.0328 17.3209C34.072 17.3434 34.0971 17.3538 33.9964 17.4477C33.8688 17.5682 33.7844 17.8718 33.7929 18.3698C33.8012 18.7 33.8054 18.9939 34.0574 19.4629C34.0361 19.4977 34.0082 19.5233 33.9673 19.5285C33.5404 19.0866 33.5818 17.7266 33.7926 17.3717C33.8799 17.2765 33.9309 17.2657 34.0328 17.3209Z" fill="#DCF9FB"/>
<rect x="0.55" y="0.55" width="53.9" height="53.9" rx="26.95" stroke="#CED3E6" stroke-width="1.1"/>
</svg>
