<svg width="89" height="88" viewBox="0 0 89 88" fill="none" xmlns="http://www.w3.org/2000/svg">
<g filter="url(#filter0_b_1766_16353)">
<ellipse cx="44.5003" cy="44" rx="43.9997" ry="44" transform="rotate(-180 44.5003 44)" fill="url(#paint0_linear_1766_16353)"/>
<ellipse cx="44.5003" cy="44" rx="43.9997" ry="44" transform="rotate(-180 44.5003 44)" fill="black" fill-opacity="0.8"/>
<path d="M2.00053 44C2.00053 20.5279 21.0283 1.5 44.5003 1.5C67.9722 1.50001 87 20.5279 87 44C87 67.4721 67.9722 86.5 44.5003 86.5C21.0283 86.5 2.00053 67.4721 2.00053 44Z" stroke="url(#paint1_linear_1766_16353)" stroke-opacity="0.4" stroke-width="3"/>
</g>
<ellipse cx="44.501" cy="48" rx="23" ry="23.5" fill="url(#paint2_linear_1766_16353)"/>
<path d="M29.5965 55.7509L29.3361 55.2436H33.7165L33.8233 55.4C35.217 57.4802 37.1639 59.1099 39.4344 60.0969C41.7049 61.084 44.2043 61.3872 46.6379 60.971C53.2084 59.8284 57.8536 53.7122 57.3302 46.9417L49.5055 46.9274L51.788 53.5272L48.9944 57.4528L43.9775 42.9211L60.4848 42.9495L60.5484 43.2009C60.7399 43.8427 60.8894 44.4968 60.9959 45.1589C61.1542 46.1017 61.2318 47.0567 61.2278 48.0132C61.2278 56.1871 55.4538 63.4458 47.2945 64.854C46.3569 65.0066 45.4093 65.0858 44.4598 65.091C41.3785 65.0942 38.3568 64.2225 35.7322 62.5732C33.1076 60.9239 30.9833 58.5619 29.5965 55.7509ZM32.4045 53.0197H28.4927L28.4229 52.7684C28.2454 52.1349 28.1076 51.4905 28.0104 50.839C26.4686 41.5555 32.6142 32.7227 41.7054 31.158C45.2127 30.5386 48.8221 31.0827 52.0049 32.7105C55.1877 34.3384 57.7768 36.9645 59.393 40.2043L59.6537 40.7117H55.247L55.1341 40.5552C53.7431 38.478 51.7992 36.851 49.5321 35.8663C47.2649 34.8817 44.7693 34.5806 42.34 34.9986C35.7691 36.1411 31.1096 42.2573 31.633 49.0136L39.4864 49.0278L37.1977 42.4279L40.0101 38.5024L45.0145 53.0343L32.4045 53.0197Z" fill="url(#paint3_linear_1766_16353)"/>
<path d="M62.9253 31.3288C58.5394 33.9604 39.8993 31.6943 31.1276 30.2324C28.496 27.6008 40.2648 25.481 46.4782 24.75H56.3464L66.2147 30.2324L62.9253 31.3288Z" fill="#321B06"/>
<path d="M49.2985 9.5072C49.4823 9.15922 49.7761 8.8804 50.1353 8.71306C50.6289 8.48552 51.1283 8.46252 51.5879 8.78734C51.7433 8.89876 51.8671 9.04768 51.9477 9.21981C52.3619 10.1161 52.774 11.014 53.1524 11.9287C53.7601 13.406 54.5835 14.7791 55.2563 16.2266C56.2119 18.2852 57.1755 20.3392 58.1471 22.3885C58.7035 23.5618 59.2309 24.7615 59.9297 25.867C60.1211 26.1583 60.3305 26.4376 60.5567 26.7033C60.6522 26.812 60.7709 26.8985 60.9041 26.9565C61.9241 27.4225 63.0226 27.5117 64.1178 27.58C64.6765 27.6154 65.2248 27.5403 65.7799 27.5401C66.8429 27.542 67.906 27.5438 68.9634 27.5802C69.6639 27.6052 70.3639 27.6858 71.0611 27.7587C71.3304 27.7963 71.5969 27.8522 71.8586 27.926C71.9677 27.9567 72.0732 27.9993 72.1728 28.0532C72.7412 28.3436 72.855 28.8306 72.4635 29.3252C72.1371 29.7427 71.715 30.0775 71.2318 30.3021C70.202 30.7642 69.1282 31.1244 68.026 31.3773C66.9393 31.6435 65.8605 31.9402 64.7897 32.2675C63.1515 32.7837 61.4723 33.1641 59.7694 33.4048C58.6359 33.5507 57.4936 33.6222 56.35 33.6187C55.3219 33.6226 54.2953 33.5451 53.2642 33.5078C51.6915 33.45 50.1234 33.3334 48.5528 33.2054C46.2535 33.0361 43.9438 33.2942 41.7433 33.9664C40.2577 34.4001 38.7663 34.8184 37.2859 35.2897C36.5885 35.5116 35.914 35.8323 35.2487 36.1207C34.3693 36.4987 33.4996 36.9073 32.6121 37.2733C30.451 38.1741 28.2004 38.7443 25.8273 38.7525C24.5815 38.7818 23.3351 38.7039 22.1023 38.5195C21.3661 38.3923 20.6223 38.3347 19.8996 38.0829C17.585 37.2634 16.0423 35.7278 15.4941 33.3265C15.3456 32.7017 15.3402 32.0523 15.4783 31.426C15.6164 30.7997 15.8945 30.2124 16.2922 29.7069C16.682 29.1936 17.0579 28.6529 17.4778 28.1559C18.3162 27.1423 19.3595 26.3131 20.5412 25.7212C21.6408 25.1624 22.8428 24.8267 24.0769 24.7341C24.8659 24.6594 25.6608 24.6634 26.4496 24.7463C26.7183 24.7758 26.9826 24.8456 27.2497 24.8897C27.3738 24.9034 27.4942 24.9166 27.6499 24.9337C27.6832 24.8374 27.7084 24.7385 27.7253 24.638C27.7859 23.7901 27.8391 22.9415 27.896 22.0932C27.9204 21.8697 27.9316 21.6467 27.941 21.4234C27.9599 20.975 27.9638 20.5269 27.9917 20.0814C28.055 19.0892 28.0441 18.0889 28.2634 17.1102C28.2942 16.9563 28.3113 16.8 28.3143 16.6431C28.3468 15.8645 28.6246 15.1572 28.9568 14.4671C28.9895 14.3959 29.0283 14.3276 29.0728 14.263C29.7086 13.4064 30.4825 12.6591 31.3637 12.0511C33.0708 10.8668 34.9698 9.97846 36.9798 9.42404C38.3854 9.03249 39.8234 8.76369 41.2773 8.62072C42.6201 8.50285 43.9729 8.54809 45.3056 8.75542C45.7648 8.82624 46.2286 8.89015 46.6845 8.92169C47.477 8.97358 48.2575 9.1424 49.0002 9.42254C49.0923 9.4549 49.1803 9.47382 49.2985 9.5072ZM28.6996 25.1954C28.8451 25.254 28.9876 25.3234 29.1384 25.3678C30.2505 25.705 31.3641 26.0404 32.479 26.3742L32.6428 26.4033C32.5255 26.3131 32.3911 26.2472 32.2476 26.2097C31.4144 25.957 30.5851 25.7028 29.7491 25.459C29.4038 25.358 29.05 25.284 28.7013 25.1975C28.6331 24.7562 28.6718 24.6771 29.0758 24.4972C29.2516 24.4164 29.4294 24.3506 29.6034 24.2678C32.2962 23.0923 35.1202 22.2334 38.0174 21.7089C40.2193 21.2962 42.4454 21.0182 44.6828 20.8764C46.603 20.7406 48.5305 20.7281 50.4532 20.8392C51.9367 20.9072 53.411 21.1107 54.8575 21.447C55.5205 21.5967 56.168 21.8074 56.7915 22.0765C57.0134 22.1707 57.1943 22.3397 57.3021 22.5534C57.5989 23.1328 57.9134 23.7049 58.222 24.28L59.6088 26.8661C59.6587 26.9587 59.7537 27.0507 59.6402 27.2143C59.3971 27.1395 59.1384 27.0703 58.8874 26.9815C57.5916 26.5347 56.2517 26.226 54.8905 26.0606C53.5451 25.8795 52.1869 25.7637 50.8313 25.676C49.7604 25.6084 48.6822 25.6253 47.6067 25.6166C46.9618 25.5956 46.3163 25.6082 45.673 25.6545C44.4788 25.7717 43.2912 25.949 42.1016 26.0927L36.2779 26.8414C36.2133 26.8492 36.15 26.8626 36.087 26.8724L36.0794 26.942C36.9488 27.0503 37.8072 27.2326 38.6453 27.487C38.1181 27.455 37.5945 27.3901 37.0691 27.3417C36.5437 27.2933 36.0101 27.268 35.4777 27.2151C34.9453 27.1622 34.4649 26.9927 33.9362 27.0606C34.0447 27.1404 34.1639 27.2046 34.2904 27.2515C35.3003 27.6517 36.3323 27.9947 37.3813 28.2787C38.8197 28.6387 40.2474 29.0457 41.677 29.4344C42.1908 29.5724 42.6993 29.7413 43.2222 29.8303C44.069 29.9752 44.9239 30.0802 45.7781 30.174C46.3859 30.2408 46.9969 30.2782 47.6069 30.3248C48.1053 30.3629 48.5994 30.3893 49.0961 30.4253C50.318 30.5187 51.5399 30.5084 52.7626 30.4906C54.6767 30.4673 56.5856 30.297 58.472 29.9814C59.1165 29.8668 59.7505 29.6936 60.3842 29.5223C60.9637 29.3672 61.526 29.1638 62.1038 29.0067C63.0925 28.7446 64.1043 28.8557 65.1134 28.922C65.3724 28.9375 65.6294 28.988 65.8878 29.0256C66.2237 29.0755 66.5559 29.1416 66.8935 29.175C67.5903 29.2515 68.2905 29.3136 68.9912 29.3535C69.6454 29.3901 70.2981 29.4062 70.959 29.3991C71.2409 29.3806 71.5197 29.3316 71.7907 29.2531C71.9103 29.2199 72.021 29.1612 72.1151 29.0811C72.3908 28.8575 72.3743 28.5962 72.0552 28.4443C71.8007 28.322 71.5291 28.2384 71.2496 28.1965C70.2526 28.0461 69.2456 27.9727 68.2376 27.9769C67.785 27.9828 67.3318 27.9942 66.8798 27.9946C66.5855 27.9938 66.2909 27.9781 65.9955 27.9698C66.57 28.1181 67.1492 28.2244 67.7258 28.3359C68.2584 28.4389 68.7904 28.5473 69.3222 28.6576C69.4324 28.6886 69.5404 28.7271 69.6453 28.7728L69.6268 28.8394C69.5514 28.8422 69.4755 28.8506 69.401 28.8461C69.1865 28.8355 68.9704 28.8229 68.7569 28.8032C68.0569 28.7393 67.3571 28.6902 66.662 28.599C65.9668 28.5079 65.2318 28.3697 64.5162 28.2596C63.856 28.1574 63.191 28.0825 62.5343 27.9659C61.7256 27.8133 60.9342 27.5804 60.1723 27.2709C60.0011 27.2102 59.8591 27.0881 59.7745 26.9288C59.1044 25.68 58.4144 24.442 57.7564 23.1853C57.0159 21.7731 56.2956 20.3482 55.5753 18.9234C55.0324 17.8498 54.4855 16.7777 53.974 15.6909C53.2462 14.1281 52.537 12.5673 51.8331 10.9923C51.6013 10.47 51.3166 9.96796 51.2569 9.3979C50.8005 9.21616 50.1161 9.38753 49.8367 9.74796C50.1873 9.97183 50.6761 9.90873 51.0374 10.2932C50.9335 10.3457 50.822 10.3822 50.7068 10.4015C50.5148 10.3974 50.3238 10.3721 50.1374 10.3259C49.6993 10.2167 49.2735 10.0457 48.8289 9.96166C48.0745 9.81208 47.3124 9.69872 46.5533 9.57458C45.7697 9.4529 44.9765 9.40365 44.1841 9.42745C43.3141 9.44313 42.4389 9.42115 41.5705 9.45739C38.7177 9.60007 36.0633 10.4504 33.5268 11.6992C32.7008 12.1192 31.9123 12.6074 31.1698 13.1587C30.7204 13.4658 30.3591 13.8826 30.1208 14.3688C29.4487 15.802 29.1919 17.3308 29.0968 18.8904C29.0478 19.7173 28.9985 20.5479 28.9409 21.3682C28.8833 22.1886 28.8174 22.9988 28.7511 23.8127C28.7147 24.1461 28.6781 24.4813 28.6547 24.8161C28.6042 24.9532 28.5817 25.0898 28.6996 25.1954ZM71.7327 29.5267C71.4132 29.6361 71.1008 29.7668 70.7752 29.846C70.3625 29.9618 69.9397 30.0395 69.5123 30.078C68.6838 30.126 67.8658 29.975 67.0465 29.8702C66.2272 29.7654 65.4536 29.6545 64.6577 29.5412C64.2636 29.4938 63.8646 29.5081 63.4754 29.5837C62.5547 29.7384 61.6991 30.1041 60.8085 30.3603C60.278 30.5134 59.7533 30.6986 59.2147 30.823C58.4893 30.9917 57.7485 31.0957 57.0213 31.2642C56.1108 31.445 55.1832 31.5296 54.254 31.5164C52.87 31.5349 51.4955 31.4136 50.1163 31.3363C49.3484 31.2927 48.5797 31.2917 47.8096 31.2683C46.949 31.2331 46.0882 31.2164 45.2335 31.1263C44.4812 31.0437 43.7367 30.8896 42.9907 30.7484C42.1451 30.5899 41.313 30.3665 40.5021 30.0802C39.1136 29.5885 37.7267 29.1007 36.3266 28.6467C34.5397 28.0661 32.7461 27.507 30.9458 26.9695C29.5586 26.5521 28.1658 26.1526 26.7615 25.7889C26.2351 25.6533 25.6928 25.5881 25.1493 25.5952C23.8646 25.6241 22.6016 25.9226 21.4439 26.4709C20.7579 26.7899 20.0924 27.1502 19.451 27.5496C18.9513 27.8568 18.4821 28.2099 18.0496 28.6042C17.0629 29.5238 16.3821 30.7183 16.0968 32.0303C15.8666 32.9551 16.0079 33.9332 16.4911 34.7595C16.8981 35.4351 17.4183 36.0376 18.0294 36.5411C18.0698 36.5729 18.1124 36.6017 18.1569 36.6274C18.0462 36.4188 17.9129 36.2227 17.7594 36.0425C17.295 35.4884 16.9285 34.8609 16.6755 34.1866C16.3436 33.2066 16.3542 32.2495 16.882 31.3306C17.2482 30.7248 17.7488 30.2094 18.346 29.8231C19.4258 29.0872 20.6449 28.6724 21.9067 28.3828C23.5925 27.9873 25.3172 27.7734 27.0507 27.7447C27.7848 27.7364 28.5199 27.7541 29.2557 27.7644C29.6863 27.771 30.1185 27.7628 30.5451 27.806C31.2782 27.857 32.0072 27.955 32.7277 28.0994C33.5175 28.2862 34.2816 28.587 35.052 28.8477C36.64 29.3836 38.2287 29.914 39.8089 30.4694C41.0984 30.9302 42.4256 31.2794 43.7756 31.513C45.4552 31.7691 47.1504 31.9101 48.8489 31.9348C49.9236 31.9676 50.9986 32.0152 52.0722 32.0404C52.8408 32.06 53.6144 32.1023 54.3797 32.0492C56.2104 31.924 58.0286 31.7085 59.7946 31.1795C60.4771 30.9746 61.1647 30.7906 61.8453 30.5854C62.1905 30.4806 62.5241 30.3282 62.8718 30.2348C64.0084 29.924 65.161 30.0506 66.3102 30.1731C66.692 30.215 67.0687 30.3027 67.4508 30.341C67.8329 30.3792 68.2197 30.3754 68.6018 30.4136C69.0639 30.4568 69.5291 30.4508 69.9896 30.3955C70.678 30.3247 71.2169 29.9742 71.728 29.5521L71.7327 29.5267Z" fill="#DE6B38"/>
<path d="M36.4863 13.1881C36.4067 13.1274 36.2735 13.0757 36.2486 12.9951C36.2236 12.9145 36.2969 12.7928 36.3584 12.7106C36.4213 12.6462 36.4964 12.5947 36.5793 12.5588C37.3674 12.095 38.2182 11.7441 39.1064 11.5165C39.6416 11.3899 40.1878 11.2646 40.728 11.1608C40.839 11.1418 40.9524 11.1405 41.064 11.1569C41.09 11.1638 41.114 11.1768 41.1339 11.1948C41.1538 11.2128 41.1691 11.2353 41.1784 11.2603C41.178 11.2916 41.1705 11.3224 41.1564 11.3503C41.1423 11.3783 41.122 11.4028 41.097 11.4219C40.9719 11.4768 40.8416 11.5196 40.708 11.5497C40.1516 11.6999 39.5946 11.8488 39.0372 11.9964C38.6626 12.0951 38.3216 12.2905 38.0491 12.5626C37.7984 12.8058 37.483 12.9736 37.1393 13.0466C36.9366 13.1003 36.728 13.1386 36.4863 13.1881Z" fill="#FF890E"/>
<path d="M53.7221 16.6796C53.4858 16.6747 53.2594 16.5839 53.0861 16.4244C52.8487 16.2522 52.6256 16.0616 52.4188 15.8543C51.7024 15.1221 51.0786 14.3066 50.561 13.4259C50.4994 13.3322 50.4517 13.2302 50.4197 13.1231C50.4114 13.087 50.4115 13.0496 50.42 13.0136C50.4285 12.9776 50.4451 12.944 50.4686 12.9153C50.4995 12.894 50.5352 12.8805 50.5726 12.8759C50.61 12.8713 50.648 12.8757 50.6834 12.8888C50.7741 12.9322 50.8532 12.9962 50.9143 13.0755C51.1346 13.3592 51.3361 13.6612 51.5704 13.9372C52.0811 14.5493 52.6079 15.1522 53.1226 15.7629C53.3018 15.9772 53.4705 16.2015 53.6369 16.4292C53.6742 16.5095 53.7028 16.5934 53.7221 16.6796Z" fill="#FF890E"/>
<path d="M25.7931 25.8997C25.9007 25.9023 26.008 25.9141 26.1136 25.9349C27.4479 26.3101 28.7819 26.6877 30.1156 27.0677C30.1777 27.0851 30.2342 27.1182 30.2796 27.1636C28.7064 27.0242 27.2415 26.4944 25.7573 26.0385L25.7931 25.8997Z" fill="#FF890E"/>
<defs>
<filter id="filter0_b_1766_16353" x="-164.499" y="-165" width="417.999" height="418" filterUnits="userSpaceOnUse" color-interpolation-filters="sRGB">
<feFlood flood-opacity="0" result="BackgroundImageFix"/>
<feGaussianBlur in="BackgroundImageFix" stdDeviation="82.5"/>
<feComposite in2="SourceAlpha" operator="in" result="effect1_backgroundBlur_1766_16353"/>
<feBlend mode="normal" in="SourceGraphic" in2="effect1_backgroundBlur_1766_16353" result="shape"/>
</filter>
<linearGradient id="paint0_linear_1766_16353" x1="23.0318" y1="53.4286" x2="65.5436" y2="53.4286" gradientUnits="userSpaceOnUse">
<stop stop-color="#FF890E"/>
<stop offset="1" stop-color="#A169FF"/>
</linearGradient>
<linearGradient id="paint1_linear_1766_16353" x1="78.7223" y1="19.8" x2="23.5635" y2="19.0811" gradientUnits="userSpaceOnUse">
<stop stop-color="#FF8320"/>
<stop offset="1" stop-color="#A169FF"/>
</linearGradient>
<linearGradient id="paint2_linear_1766_16353" x1="44.501" y1="24.5" x2="44.501" y2="71.5" gradientUnits="userSpaceOnUse">
<stop stop-color="#303030"/>
<stop offset="1"/>
</linearGradient>
<linearGradient id="paint3_linear_1766_16353" x1="55.3734" y1="34.4983" x2="34.2729" y2="59.3809" gradientUnits="userSpaceOnUse">
<stop stop-color="#03D1CF" stop-opacity="0.988"/>
<stop offset="1" stop-color="#4E09F8"/>
</linearGradient>
</defs>
</svg>
