<svg width="57" height="57" viewBox="0 0 57 57" fill="none" xmlns="http://www.w3.org/2000/svg">
<g filter="url(#filter0_b_19_14123)">
<ellipse cx="28.5002" cy="28.9092" rx="27.9998" ry="28" transform="rotate(-180 28.5002 28.9092)" fill="url(#paint0_linear_19_14123)"/>
<ellipse cx="28.5002" cy="28.9092" rx="27.9998" ry="28" transform="rotate(-180 28.5002 28.9092)" fill="black" fill-opacity="0.8"/>
<path d="M1.00033 28.9092C1.00033 13.7213 13.3124 1.40918 28.5002 1.40918C43.6879 1.40918 56 13.7213 56 28.9092C56 44.097 43.6879 56.4092 28.5002 56.4092C13.3124 56.4092 1.00033 44.097 1.00033 28.9092Z" stroke="url(#paint1_linear_19_14123)" stroke-opacity="0.4"/>
</g>
<path d="M33.333 18.1167C33.4644 17.8688 33.6744 17.6701 33.9312 17.5509C34.2841 17.3887 34.6412 17.3723 34.9698 17.6038C35.0808 17.6832 35.1694 17.7893 35.227 17.9119C35.5231 18.5506 35.8177 19.1904 36.0883 19.8422C36.5227 20.8948 37.1114 21.8733 37.5925 22.9047C38.2756 24.3716 38.9645 25.8352 39.6591 27.2954C40.057 28.1314 40.434 28.9863 40.9336 29.7741C41.0704 29.9816 41.2201 30.1806 41.3819 30.37C41.4502 30.4474 41.535 30.509 41.6303 30.5504C42.3595 30.8824 43.1449 30.946 43.9278 30.9947C44.3273 31.0199 44.7193 30.9664 45.1161 30.9663C45.8762 30.9676 46.6362 30.9689 47.3922 30.9948C47.893 31.0126 48.3934 31.0701 48.8919 31.122C49.0844 31.1488 49.2749 31.1886 49.462 31.2412C49.5401 31.263 49.6154 31.2934 49.6867 31.3318C50.0931 31.5388 50.1744 31.8858 49.8945 32.2382C49.6611 32.5357 49.3594 32.7743 49.0139 32.9343C48.2777 33.2636 47.5099 33.5202 46.722 33.7004C45.945 33.8901 45.1738 34.1016 44.4082 34.3348C43.237 34.7026 42.0365 34.9737 40.819 35.1452C40.0086 35.2491 39.1919 35.3001 38.3744 35.2976C37.6394 35.3004 36.9053 35.2451 36.1682 35.2186C35.0439 35.1774 33.9227 35.0943 32.7999 35.0031C31.156 34.8824 29.5047 35.0664 27.9315 35.5453C26.8694 35.8544 25.8031 36.1524 24.7447 36.4883C24.2461 36.6464 23.7639 36.8749 23.2883 37.0804C22.6595 37.3497 22.0377 37.6409 21.4032 37.9017C19.8582 38.5435 18.2492 38.9499 16.5526 38.9557C15.6619 38.9766 14.7708 38.9211 13.8894 38.7897C13.363 38.699 12.8312 38.658 12.3146 38.4786C10.6598 37.8946 9.55684 36.8005 9.16495 35.0894C9.05877 34.6441 9.0549 34.1814 9.15362 33.7352C9.25234 33.2889 9.45116 32.8704 9.73551 32.5102C10.0142 32.1445 10.2829 31.7591 10.5831 31.405C11.1826 30.6828 11.9285 30.0919 12.7733 29.6701C13.5594 29.2719 14.4188 29.0328 15.3011 28.9668C15.8652 28.9135 16.4335 28.9164 16.9974 28.9755C17.1895 28.9965 17.3785 29.0462 17.5694 29.0777C17.6582 29.0874 17.7443 29.0968 17.8556 29.109C17.8794 29.0404 17.8974 28.9699 17.9095 28.8983C17.9528 28.2941 17.9909 27.6894 18.0315 27.085C18.049 26.9257 18.057 26.7668 18.0637 26.6077C18.0772 26.2882 18.08 25.9689 18.1 25.6515C18.1452 24.9445 18.1374 24.2317 18.2942 23.5343C18.3162 23.4247 18.3284 23.3133 18.3306 23.2015C18.3538 22.6466 18.5524 22.1427 18.7899 21.6509C18.8133 21.6002 18.841 21.5515 18.8729 21.5055C19.3274 20.8951 19.8807 20.3627 20.5107 19.9294C21.7312 19.0855 23.0888 18.4525 24.5258 18.0575C25.5308 17.7785 26.5589 17.5869 27.5983 17.4851C28.5583 17.4011 29.5255 17.4333 30.4783 17.581C30.8066 17.6315 31.1382 17.677 31.4642 17.6995C32.0307 17.7365 32.5888 17.8568 33.1197 18.0564C33.1856 18.0795 33.2484 18.0929 33.333 18.1167ZM18.6061 29.2955C18.7101 29.3373 18.8119 29.3867 18.9197 29.4183C19.7148 29.6586 20.511 29.8976 21.3081 30.1354L21.4252 30.1562C21.3413 30.0919 21.2452 30.045 21.1426 30.0183C20.547 29.8382 19.9541 29.657 19.3564 29.4833C19.1095 29.4114 18.8566 29.3586 18.6072 29.297C18.5585 28.9826 18.5862 28.9261 18.875 28.7979C19.0007 28.7404 19.1278 28.6935 19.2522 28.6345C21.1774 27.7969 23.1963 27.1849 25.2677 26.8111C26.8419 26.5171 28.4334 26.319 30.033 26.218C31.4059 26.1212 32.7839 26.1123 34.1585 26.1914C35.2191 26.2399 36.2732 26.3849 37.3073 26.6246C37.7813 26.7312 38.2442 26.8814 38.69 27.0731C38.8486 27.1402 38.978 27.2606 39.055 27.4129C39.2673 27.8257 39.4921 28.2334 39.7127 28.6432L40.7042 30.486C40.7399 30.552 40.8078 30.6175 40.7267 30.7341C40.5529 30.6807 40.3679 30.6314 40.1884 30.5682C39.262 30.2498 38.3041 30.0299 37.3309 29.912C36.369 29.7829 35.398 29.7004 34.4288 29.6379C33.6632 29.5898 32.8923 29.6018 32.1235 29.5956C31.6624 29.5807 31.2009 29.5897 30.7409 29.6226C29.8872 29.7061 29.0381 29.8324 28.1876 29.9348L24.0241 30.4684C23.9779 30.4739 23.9326 30.4835 23.8876 30.4904L23.8822 30.54C24.5037 30.6172 25.1174 30.7471 25.7166 30.9284C25.3397 30.9056 24.9653 30.8594 24.5897 30.8248C24.2141 30.7903 23.8326 30.7723 23.452 30.7346C23.0713 30.6969 22.7279 30.5761 22.3499 30.6246C22.4275 30.6814 22.5127 30.7272 22.6031 30.7606C23.3251 31.0458 24.0629 31.2901 24.8129 31.4925C25.8413 31.749 26.862 32.0391 27.8841 32.3161C28.2514 32.4144 28.615 32.5347 28.9888 32.5981C29.5942 32.7014 30.2054 32.7762 30.8161 32.843C31.2507 32.8906 31.6875 32.9173 32.1236 32.9505C32.4799 32.9776 32.8331 32.9965 33.1883 33.0221C34.0618 33.0887 34.9354 33.0813 35.8096 33.0687C37.178 33.052 38.5428 32.9307 39.8915 32.7058C40.3522 32.6241 40.8055 32.5007 41.2586 32.3786C41.6729 32.2681 42.0748 32.1232 42.488 32.0113C43.1948 31.8245 43.9182 31.9037 44.6397 31.9509C44.8248 31.962 45.0086 31.9979 45.1933 32.0247C45.4334 32.0603 45.6709 32.1074 45.9123 32.1312C46.4105 32.1857 46.9111 32.2299 47.412 32.2584C47.8798 32.2845 48.3464 32.2959 48.8189 32.2908C49.0204 32.2777 49.2198 32.2428 49.4135 32.1869C49.499 32.1632 49.5781 32.1214 49.6454 32.0643C49.8425 31.9049 49.8307 31.7187 49.6026 31.6105C49.4207 31.5233 49.2265 31.4638 49.0266 31.4339C48.3139 31.3268 47.5939 31.2745 46.8732 31.2775C46.5496 31.2817 46.2257 31.2898 45.9025 31.2901C45.6921 31.2895 45.4815 31.2783 45.2703 31.2724C45.681 31.3781 46.0951 31.4538 46.5074 31.5333C46.8881 31.6066 47.2685 31.6839 47.6486 31.7625C47.7275 31.7846 47.8046 31.8121 47.8797 31.8446L47.8664 31.892C47.8126 31.8941 47.7583 31.9 47.705 31.8968C47.5517 31.8893 47.3971 31.8803 47.2445 31.8662C46.744 31.8207 46.2438 31.7857 45.7468 31.7208C45.2498 31.6558 44.7243 31.5574 44.2127 31.4789C43.7407 31.4061 43.2652 31.3527 42.7957 31.2696C42.2175 31.1609 41.6518 30.9949 41.107 30.7744C40.9847 30.7311 40.8832 30.6441 40.8227 30.5306C40.3436 29.6408 39.8502 28.7587 39.3798 27.8632C38.8505 26.8569 38.3355 25.8416 37.8205 24.8263C37.4323 24.0613 37.0413 23.2974 36.6756 22.523C36.1553 21.4094 35.6483 20.2972 35.1451 19.1749C34.9793 18.8028 34.7758 18.445 34.7331 18.0388C34.4068 17.9093 33.9175 18.0315 33.7178 18.2883C33.9684 18.4478 34.3179 18.4028 34.5762 18.6768C34.5019 18.7142 34.4221 18.7402 34.3398 18.7539C34.2026 18.751 34.066 18.733 33.9328 18.7001C33.6195 18.6223 33.3151 18.5005 32.9972 18.4406C32.4579 18.334 31.913 18.2532 31.3703 18.1647C30.8101 18.078 30.243 18.0429 29.6765 18.0599C29.0545 18.0711 28.4288 18.0554 27.8079 18.0812C25.7683 18.1829 23.8706 18.7888 22.0572 19.6787C21.4666 19.9779 20.9029 20.3258 20.3721 20.7186C20.0508 20.9375 19.7925 21.2345 19.6221 21.5809C19.1416 22.6021 18.958 23.6915 18.89 24.8028C18.855 25.392 18.8197 25.9838 18.7785 26.5684C18.7373 27.153 18.6902 27.7303 18.6429 28.3102C18.6169 28.5478 18.5907 28.7866 18.574 29.0252C18.5378 29.1229 18.5218 29.2202 18.6061 29.2955ZM49.372 32.3818C49.1436 32.4598 48.9203 32.5529 48.6875 32.6093C48.3924 32.6918 48.0902 32.7472 47.7846 32.7746C47.1923 32.8089 46.6074 32.7013 46.0217 32.6266C45.4359 32.5519 44.8828 32.4729 44.3138 32.3921C44.0321 32.3583 43.7468 32.3686 43.4686 32.4224C42.8103 32.5326 42.1986 32.7932 41.5619 32.9758C41.1826 33.0849 40.8075 33.2168 40.4224 33.3054C39.9038 33.4257 39.3742 33.4998 38.8543 33.6199C38.2034 33.7487 37.5402 33.809 36.8759 33.7995C35.8864 33.8128 34.9037 33.7263 33.9176 33.6712C33.3687 33.6402 32.8191 33.6395 32.2685 33.6228C31.6532 33.5977 31.0378 33.5858 30.4268 33.5216C29.8889 33.4627 29.3566 33.3529 28.8233 33.2523C28.2187 33.1394 27.6238 32.9802 27.0441 32.7762C26.0514 32.4258 25.0598 32.0782 24.0589 31.7547C22.7814 31.341 21.499 30.9427 20.2119 30.5596C19.2202 30.2622 18.2244 29.9775 17.2204 29.7184C16.8441 29.6217 16.4564 29.5753 16.0678 29.5803C15.1493 29.601 14.2463 29.8137 13.4187 30.2044C12.9282 30.4317 12.4524 30.6884 11.9939 30.973C11.6366 31.1919 11.3011 31.4435 10.9919 31.7245C10.2865 32.3797 9.79979 33.2309 9.59585 34.1657C9.43126 34.8247 9.53229 35.5217 9.87771 36.1105C10.1687 36.5919 10.5406 37.0212 10.9775 37.38C11.0064 37.4026 11.0368 37.4231 11.0687 37.4414C10.9895 37.2928 10.8942 37.1531 10.7845 37.0247C10.4525 36.6298 10.1905 36.1827 10.0095 35.7022C9.77225 35.004 9.77986 34.3219 10.1572 33.6672C10.419 33.2355 10.7769 32.8683 11.2039 32.593C11.9759 32.0686 12.8475 31.7731 13.7495 31.5667C14.9548 31.2849 16.1878 31.1325 17.4272 31.112C17.9521 31.1061 18.4776 31.1187 19.0036 31.1261C19.3115 31.1307 19.6205 31.1249 19.9255 31.1557C20.4496 31.192 20.9708 31.2619 21.4859 31.3648C22.0505 31.4979 22.5968 31.7122 23.1476 31.898C24.283 32.2798 25.4187 32.6577 26.5485 33.0535C27.4704 33.3818 28.4193 33.6307 29.3844 33.7971C30.5853 33.9797 31.7972 34.0801 33.0116 34.0977C33.7799 34.1211 34.5484 34.155 35.316 34.173C35.8655 34.1869 36.4186 34.2171 36.9657 34.1792C38.2746 34.09 39.5744 33.9364 40.837 33.5595C41.3249 33.4135 41.8166 33.2824 42.3032 33.1362C42.55 33.0615 42.7884 32.9529 43.037 32.8863C43.8496 32.6649 44.6736 32.7551 45.4953 32.8424C45.7682 32.8722 46.0375 32.9347 46.3107 32.962C46.5839 32.9893 46.8604 32.9865 47.1336 33.0138C47.464 33.0446 47.7966 33.0402 48.1258 33.0009C48.618 32.9504 49.0033 32.7007 49.3687 32.3999L49.372 32.3818Z" fill="#FF890E"/>
<path d="M16.5283 29.7973C16.6053 29.7991 16.682 29.8075 16.7575 29.8223C17.7114 30.0897 18.6651 30.3587 19.6187 30.6295C19.663 30.6419 19.7034 30.6655 19.7359 30.6978C18.6112 30.5985 17.5639 30.221 16.5027 29.8962L16.5283 29.7973Z" fill="#FF890E"/>
<defs>
<filter id="filter0_b_19_14123" x="-59.4996" y="-59.0908" width="176" height="176" filterUnits="userSpaceOnUse" color-interpolation-filters="sRGB">
<feFlood flood-opacity="0" result="BackgroundImageFix"/>
<feGaussianBlur in="BackgroundImage" stdDeviation="30"/>
<feComposite in2="SourceAlpha" operator="in" result="effect1_backgroundBlur_19_14123"/>
<feBlend mode="normal" in="SourceGraphic" in2="effect1_backgroundBlur_19_14123" result="shape"/>
</filter>
<linearGradient id="paint0_linear_19_14123" x1="14.8384" y1="34.9092" x2="41.8914" y2="34.9092" gradientUnits="userSpaceOnUse">
<stop stop-color="#FF8320"/>
<stop offset="1" stop-color="#FFD3AF"/>
</linearGradient>
<linearGradient id="paint1_linear_19_14123" x1="50.2778" y1="13.5092" x2="15.1768" y2="13.0517" gradientUnits="userSpaceOnUse">
<stop stop-color="#FF8320"/>
<stop offset="1" stop-color="#FFB173"/>
</linearGradient>
</defs>
</svg>
