<svg width="96" height="96" viewBox="0 0 96 96" fill="none" xmlns="http://www.w3.org/2000/svg">
<g filter="url(#filter0_b_2841_25848)">
<ellipse cx="48.0003" cy="47.9998" rx="47.9997" ry="47.9997" transform="rotate(-180 48.0003 47.9998)" fill="url(#paint0_linear_2841_25848)"/>
<ellipse cx="48.0003" cy="47.9998" rx="47.9997" ry="47.9997" transform="rotate(-180 48.0003 47.9998)" fill="black" fill-opacity="0.69"/>
<path d="M1.50058 47.9998C1.50058 22.3187 22.3192 1.50007 48.0003 1.50007C73.6814 1.50007 94.5 22.3187 94.5 47.9998C94.5 73.6809 73.6814 94.4995 48.0003 94.4995C22.3192 94.4995 1.50057 73.6809 1.50058 47.9998Z" stroke="url(#paint1_linear_2841_25848)" stroke-opacity="0.4" stroke-width="3"/>
</g>
<path d="M40.8001 76.5107C29.0072 72.2776 22.9595 59.1239 27.3442 47.4819C29.6121 41.1319 34.6014 36.2939 40.8001 34.026C41.405 33.7237 41.7073 33.2702 41.7073 32.514V30.3974C41.7073 29.7925 41.405 29.3389 40.8001 29.188C40.6488 29.188 40.3466 29.188 40.1952 29.3389C25.8322 33.8747 17.9701 49.1453 22.5059 63.5083C25.2273 71.9749 31.7287 78.4763 40.1952 81.1977C40.8001 81.5 41.405 81.1977 41.556 80.5929C41.7073 80.4419 41.7073 80.2906 41.7073 79.9883V77.8714C41.7073 77.4178 41.2537 76.8133 40.8001 76.5107ZM56.8265 29.3389C56.2216 29.0367 55.6167 29.3389 55.4658 29.9438C55.3145 30.0951 55.3145 30.2461 55.3145 30.5487V32.6653C55.3145 33.2702 55.7681 33.8747 56.2216 34.1773C68.0145 38.4104 74.0623 51.5641 69.6775 63.2061C67.4097 69.5561 62.4203 74.3941 56.2216 76.662C55.6167 76.9643 55.3145 77.4178 55.3145 78.174V80.2906C55.3145 80.8955 55.6167 81.3491 56.2216 81.5C56.3729 81.5 56.6752 81.5 56.8265 81.3491C71.1896 76.8133 79.0516 61.5427 74.5159 47.1797C71.7944 38.5617 65.1418 32.0604 56.8265 29.3389Z" fill="url(#paint2_linear_2841_25848)"/>
<path d="M58.489 60.6356C58.489 55.3441 55.314 53.5298 48.964 52.7739C44.4282 52.1691 43.5211 50.9596 43.5211 48.8427C43.5211 46.7258 45.0331 45.3654 48.0568 45.3654C50.7782 45.3654 52.2903 46.2726 53.0461 48.5405C53.1974 48.994 53.651 49.2963 54.1046 49.2963H56.5234C57.1283 49.2963 57.5819 48.8427 57.5819 48.2382V48.0869C56.977 44.7606 54.2555 42.1904 50.7782 41.8882V38.2596C50.7782 37.6547 50.3247 37.2011 49.5688 37.0498H47.301C46.6961 37.0498 46.2425 37.5034 46.0912 38.2596V41.7369C41.5555 42.3417 38.6831 45.3654 38.6831 49.1453C38.6831 54.1347 41.7068 56.0999 48.0568 56.8561C52.2903 57.6119 53.651 58.5191 53.651 60.9383C53.651 63.3575 51.5341 65.0204 48.6617 65.0204C44.7305 65.0204 43.3698 63.3571 42.9162 61.0892C42.7652 60.4847 42.3117 60.1821 41.8581 60.1821H39.2876C38.6831 60.1821 38.2295 60.6356 38.2295 61.2405V61.3918C38.834 65.1714 41.2532 67.8928 46.2425 68.649V72.2776C46.2425 72.8821 46.6961 73.3357 47.4519 73.487H49.7198C50.3247 73.487 50.7782 73.0335 50.9296 72.2776V68.649C55.4653 67.8928 58.489 64.7178 58.489 60.6356Z" fill="url(#paint3_linear_2841_25848)"/>
<path d="M68.1003 34.1769C63.3157 37.0477 42.9811 34.5756 33.4119 32.9808C30.5411 30.11 43.3798 27.7974 50.158 27H60.9234L71.6888 32.9808L68.1003 34.1769Z" fill="#321B06"/>
<path d="M53.234 10.3717C53.4345 9.99212 53.755 9.68795 54.1468 9.5054C54.6853 9.25718 55.2302 9.23209 55.7316 9.58643C55.901 9.70799 56.0362 9.87044 56.1241 10.0582C56.5759 11.036 57.0254 12.0156 57.4383 13.0133C58.1012 14.625 58.9995 16.1229 59.7335 17.7019C60.7759 19.9478 61.8271 22.1885 62.887 24.4241C63.4941 25.704 64.0693 27.0128 64.8317 28.2188C65.0405 28.5366 65.2689 28.8413 65.5157 29.1311C65.6199 29.2497 65.7494 29.3441 65.8947 29.4073C67.0074 29.9157 68.2058 30.013 69.4005 30.0876C70.01 30.1262 70.6081 30.0443 71.2137 30.044C72.3734 30.046 73.5331 30.048 74.6866 30.0877C75.4508 30.1151 76.2145 30.203 76.975 30.2824C77.2688 30.3234 77.5595 30.3844 77.845 30.4649C77.9641 30.4984 78.0791 30.545 78.1878 30.6037C78.8079 30.9205 78.932 31.4518 78.5049 31.9913C78.1488 32.4468 77.6883 32.812 77.1612 33.057C76.0378 33.5612 74.8664 33.9541 73.664 34.23C72.4785 34.5204 71.3017 34.8441 70.1335 35.2011C68.3464 35.7643 66.5145 36.1793 64.6568 36.4418C63.4202 36.601 62.1741 36.679 60.9266 36.6752C59.805 36.6794 58.685 36.5948 57.5602 36.5542C55.8446 36.4912 54.1339 36.364 52.4205 36.2243C49.9122 36.0396 47.3925 36.3212 44.992 37.0545C43.3713 37.5277 41.7443 37.9839 40.1294 38.4981C39.3685 38.7401 38.6328 39.09 37.907 39.4047C36.9476 39.8169 35.9988 40.2628 35.0306 40.662C32.6731 41.6447 30.2179 42.2668 27.6291 42.2757C26.27 42.3077 24.9103 42.2227 23.5654 42.0215C22.7623 41.8827 21.9508 41.8199 21.1625 41.5453C18.6374 40.6512 16.9545 38.9761 16.3565 36.3564C16.1945 35.6748 16.1886 34.9664 16.3392 34.2832C16.4899 33.5999 16.7932 32.9592 17.2271 32.4078C17.6523 31.8478 18.0624 31.2579 18.5205 30.7158C19.4352 29.61 20.5733 28.7055 21.8625 28.0597C23.0619 27.4501 24.3733 27.084 25.7195 26.9829C26.5803 26.9014 27.4475 26.9058 28.3079 26.9962C28.601 27.0284 28.8894 27.1045 29.1807 27.1527C29.3162 27.1676 29.4476 27.182 29.6174 27.2006C29.6537 27.0955 29.6812 26.9877 29.6996 26.878C29.7658 25.9531 29.8238 25.0273 29.8859 24.1019C29.9125 23.8581 29.9247 23.6148 29.9349 23.3712C29.9555 22.8821 29.9598 22.3932 29.9903 21.9072C30.0592 20.8249 30.0474 19.7336 30.2866 18.6659C30.3203 18.4981 30.3389 18.3276 30.3422 18.1564C30.3776 17.3069 30.6806 16.5354 31.043 15.7825C31.0787 15.7049 31.1211 15.6304 31.1696 15.5598C31.8632 14.6254 32.7075 13.8102 33.6688 13.1469C35.531 11.8549 37.6027 10.8858 39.7954 10.281C41.3288 9.85387 42.8975 9.56063 44.4836 9.40466C45.9485 9.27608 47.4243 9.32543 48.8781 9.55161C49.3791 9.62887 49.885 9.69858 50.3824 9.73299C51.2469 9.7896 52.0984 9.97377 52.9086 10.2794C53.0091 10.3147 53.105 10.3353 53.234 10.3717ZM30.7625 27.4862C30.9212 27.5501 31.0766 27.6258 31.2412 27.6742C32.4544 28.042 33.6692 28.408 34.8855 28.7721L35.0641 28.8038C34.9362 28.7054 34.7895 28.6336 34.633 28.5927C33.7241 28.3169 32.8194 28.0396 31.9074 27.7737C31.5308 27.6635 31.1447 27.5827 30.7643 27.4884C30.69 27.007 30.7322 26.9207 31.1729 26.7244C31.3646 26.6363 31.5586 26.5645 31.7485 26.4742C34.6861 25.1918 37.7667 24.2549 40.9273 23.6826C43.3295 23.2324 45.7579 22.9292 48.1987 22.7745C50.2935 22.6263 52.3963 22.6127 54.4937 22.7339C56.112 22.8081 57.7204 23.0301 59.2983 23.397C60.0216 23.5603 60.728 23.7902 61.4082 24.0837C61.6502 24.1864 61.8477 24.3708 61.9652 24.6039C62.289 25.236 62.6321 25.8601 62.9687 26.4875L64.4817 29.3087C64.5361 29.4098 64.6397 29.5101 64.5159 29.6886C64.2507 29.6069 63.9684 29.5314 63.6946 29.4346C62.2811 28.9472 60.8193 28.6104 59.3344 28.43C57.8666 28.2324 56.385 28.1061 54.9061 28.0104C53.7379 27.9367 52.5617 27.9552 51.3885 27.9456C50.6849 27.9227 49.9807 27.9365 49.2789 27.9869C47.9761 28.1148 46.6806 28.3082 45.3828 28.465L39.0297 29.2818C38.9593 29.2903 38.8902 29.3049 38.8215 29.3156L38.8132 29.3915C39.7616 29.5096 40.6981 29.7086 41.6123 29.986C41.0372 29.9512 40.466 29.8804 39.8928 29.8275C39.3197 29.7747 38.7376 29.7472 38.1568 29.6894C37.5759 29.6317 37.052 29.4468 36.4752 29.5209C36.5935 29.6079 36.7236 29.678 36.8616 29.7292C37.9633 30.1658 39.0891 30.5399 40.2334 30.8497C41.8026 31.2425 43.3601 31.6865 44.9197 32.1105C45.4801 32.2611 46.0349 32.4453 46.6053 32.5424C47.5291 32.7004 48.4617 32.815 49.3936 32.9173C50.0567 32.9902 50.7232 33.031 51.3886 33.0818C51.9324 33.1234 52.4713 33.1522 53.0133 33.1915C54.3462 33.2934 55.6792 33.2821 57.013 33.2628C59.1011 33.2373 61.1835 33.0516 63.2415 32.7072C63.9445 32.5822 64.6361 32.3933 65.3275 32.2063C65.9597 32.0371 66.5731 31.8153 67.2034 31.6439C68.282 31.358 69.3858 31.4792 70.4867 31.5516C70.7692 31.5684 71.0496 31.6235 71.3315 31.6646C71.6979 31.719 72.0603 31.7911 72.4286 31.8275C73.1887 31.911 73.9525 31.9787 74.717 32.0222C75.4307 32.0622 76.1427 32.0797 76.8637 32.0719C77.1712 32.0518 77.4754 31.9984 77.7709 31.9127C77.9014 31.8765 78.0222 31.8125 78.1248 31.7251C78.4256 31.4811 78.4076 31.1961 78.0595 31.0304C77.7819 30.8969 77.4856 30.8058 77.1807 30.76C76.093 30.596 74.9944 30.5159 73.8948 30.5205C73.4011 30.5269 72.9067 30.5394 72.4136 30.5398C72.0926 30.5389 71.7712 30.5218 71.4489 30.5127C72.0757 30.6746 72.7075 30.7905 73.3365 30.9121C73.9175 31.0245 74.4979 31.1428 75.078 31.2631C75.1983 31.2969 75.316 31.3389 75.4305 31.3888L75.4103 31.4614C75.3281 31.4645 75.2453 31.4736 75.164 31.4687C74.93 31.4572 74.6942 31.4434 74.4613 31.4219C73.6977 31.3522 72.9343 31.2987 72.176 31.1992C71.4176 31.0997 70.6158 30.949 69.8352 30.8289C69.115 30.7174 68.3895 30.6357 67.673 30.5085C66.7908 30.342 65.9275 30.088 65.0963 29.7503C64.9096 29.6841 64.7547 29.5508 64.6624 29.3771C63.9314 28.0148 63.1786 26.6643 62.4608 25.2933C61.653 23.7527 60.8673 22.1983 60.0815 20.6439C59.4891 19.4728 58.8925 18.3032 58.3345 17.1176C57.5406 15.4127 56.767 13.71 55.999 11.9918C55.7462 11.4221 55.4356 10.8744 55.3705 10.2525C54.8725 10.0542 54.1259 10.2412 53.8212 10.6344C54.2037 10.8786 54.7369 10.8098 55.131 11.2292C55.0176 11.2865 54.896 11.3263 54.7703 11.3473C54.5609 11.3428 54.3526 11.3152 54.1492 11.2649C53.6713 11.1457 53.2068 10.9592 52.7217 10.8675C51.8987 10.7043 51.0673 10.5807 50.2393 10.4452C49.3844 10.3125 48.5191 10.2588 47.6546 10.2847C46.7056 10.3018 45.7508 10.2779 44.8034 10.3174C41.6913 10.473 38.7956 11.4007 36.0285 12.763C35.1274 13.2211 34.2673 13.7537 33.4572 14.3551C32.967 14.6902 32.5728 15.1449 32.3128 15.6753C31.5797 17.2388 31.2996 18.9066 31.1958 20.6079C31.1424 21.51 31.0886 22.4161 31.0257 23.311C30.9628 24.206 30.891 25.0899 30.8187 25.9777C30.779 26.3414 30.7391 26.7071 30.7136 27.0723C30.6584 27.222 30.6339 27.3709 30.7625 27.4862ZM77.7077 32.2111C77.3591 32.3306 77.0183 32.4731 76.6632 32.5595C76.213 32.6858 75.7517 32.7706 75.2854 32.8126C74.3816 32.865 73.4892 32.7003 72.5955 32.5859C71.7017 32.4716 70.8577 32.3506 69.9895 32.227C69.5596 32.1753 69.1243 32.1909 68.6997 32.2734C67.6953 32.4421 66.7619 32.8411 65.7904 33.1206C65.2116 33.2876 64.6393 33.4896 64.0517 33.6253C63.2603 33.8093 62.4522 33.9228 61.6589 34.1066C60.6656 34.3039 59.6537 34.3961 58.6401 34.3817C57.1302 34.4019 55.6308 34.2696 54.1261 34.1853C53.2885 34.1378 52.4499 34.1367 51.6098 34.1111C50.6709 34.0727 49.7319 34.0545 48.7995 33.9562C47.9788 33.866 47.1666 33.698 46.3528 33.5439C45.4303 33.371 44.5226 33.1273 43.6379 32.815C42.1233 32.2786 40.6102 31.7465 39.0829 31.2511C37.1336 30.6178 35.1769 30.0079 33.2129 29.4215C31.6996 28.9661 30.1801 28.5303 28.6482 28.1336C28.0739 27.9856 27.4824 27.9145 26.8895 27.9222C25.4879 27.9538 24.1101 28.2795 22.8472 28.8776C22.0988 29.2256 21.3728 29.6186 20.6731 30.0543C20.128 30.3894 19.6161 30.7746 19.1443 31.2049C18.0679 32.2081 17.3252 33.5111 17.014 34.9424C16.7629 35.9512 16.917 37.0183 17.4441 37.9197C17.8881 38.6568 18.4556 39.314 19.1223 39.8632C19.1663 39.8979 19.2128 39.9294 19.2614 39.9574C19.1406 39.7299 18.9952 39.5159 18.8277 39.3193C18.3211 38.7148 17.9213 38.0303 17.6453 37.2947C17.2832 36.2257 17.2948 35.1815 17.8706 34.1791C18.2701 33.5182 18.8161 32.956 19.4677 32.5345C20.6456 31.7317 21.9756 31.2792 23.352 30.9633C25.1911 30.5319 27.0726 30.2985 28.9637 30.2672C29.7646 30.2581 30.5664 30.2774 31.3692 30.2887C31.8389 30.2958 32.3104 30.2869 32.7758 30.334C33.5755 30.3897 34.3708 30.4966 35.1568 30.6541C36.0183 30.858 36.852 31.1861 37.6924 31.4705C39.4248 32.0551 41.1578 32.6337 42.8817 33.2395C44.2885 33.7422 45.7363 34.1232 47.209 34.378C49.0413 34.6575 50.8906 34.8113 52.7436 34.8383C53.916 34.874 55.0886 34.9259 56.2599 34.9535C57.0983 34.9748 57.9423 35.0209 58.7771 34.963C60.7743 34.8264 62.7577 34.5913 64.6843 34.0143C65.4288 33.7907 66.179 33.59 66.9214 33.3662C67.298 33.2518 67.6619 33.0855 68.0413 32.9836C69.2811 32.6446 70.5385 32.7827 71.7923 32.9163C72.2087 32.9621 72.6197 33.0577 73.0365 33.0995C73.4534 33.1412 73.8753 33.137 74.2922 33.1787C74.7962 33.2259 75.3038 33.2193 75.8061 33.159C76.5571 33.0817 77.145 32.6994 77.7026 32.2389L77.7077 32.2111Z" fill="#DE6B38"/>
<path d="M39.2571 14.3872C39.1702 14.321 39.025 14.2646 38.9977 14.1767C38.9705 14.0888 39.0505 13.956 39.1175 13.8663C39.1862 13.7961 39.268 13.7398 39.3586 13.7007C40.2182 13.1948 41.1464 12.812 42.1154 12.5637C42.6992 12.4256 43.2951 12.2888 43.8843 12.1756C44.0055 12.1549 44.1292 12.1534 44.2509 12.1713C44.2793 12.1789 44.3055 12.1931 44.3272 12.2127C44.3489 12.2323 44.3656 12.2568 44.3757 12.2841C44.3753 12.3183 44.3671 12.3518 44.3517 12.3824C44.3363 12.4129 44.3142 12.4396 44.2869 12.4604C44.1504 12.5204 44.0083 12.5671 43.8626 12.5998C43.2556 12.7637 42.648 12.9262 42.0399 13.0872C41.6312 13.1948 41.2592 13.4079 40.9619 13.7049C40.6884 13.9701 40.3443 14.1531 39.9695 14.2328C39.7483 14.2915 39.5207 14.3332 39.2571 14.3872Z" fill="#FF890E"/>
<path d="M58.06 18.196C57.8022 18.1907 57.5551 18.0916 57.3661 17.9176C57.1072 17.7298 56.8637 17.5219 56.6382 17.2957C55.8567 16.4969 55.1761 15.6073 54.6115 14.6466C54.5442 14.5444 54.4923 14.4331 54.4573 14.3162C54.4483 14.2768 54.4484 14.236 54.4577 14.1967C54.4669 14.1575 54.485 14.1208 54.5106 14.0895C54.5444 14.0663 54.5833 14.0516 54.6241 14.0465C54.6649 14.0415 54.7064 14.0464 54.745 14.0607C54.8439 14.108 54.9303 14.1777 54.9969 14.2643C55.2372 14.5738 55.457 14.9032 55.7126 15.2043C56.2698 15.8721 56.8445 16.5298 57.406 17.196C57.6014 17.4298 57.7854 17.6745 57.967 17.9229C58.0077 18.0104 58.0389 18.102 58.06 18.196Z" fill="#FF890E"/>
<path d="M27.5917 28.2543C27.7092 28.2571 27.8262 28.27 27.9414 28.2927C29.397 28.702 30.8523 29.1139 32.3072 29.5285C32.3749 29.5475 32.4366 29.5835 32.4861 29.633C30.77 29.481 29.1719 28.9031 27.5527 28.4057L27.5917 28.2543Z" fill="#FF890E"/>
<defs>
<filter id="filter0_b_2841_25848" x="-59.999" y="-60" width="215.999" height="216" filterUnits="userSpaceOnUse" color-interpolation-filters="sRGB">
<feFlood flood-opacity="0" result="BackgroundImageFix"/>
<feGaussianBlur in="BackgroundImageFix" stdDeviation="30"/>
<feComposite in2="SourceAlpha" operator="in" result="effect1_backgroundBlur_2841_25848"/>
<feBlend mode="normal" in="SourceGraphic" in2="effect1_backgroundBlur_2841_25848" result="shape"/>
</filter>
<linearGradient id="paint0_linear_2841_25848" x1="31.5006" y1="78.9594" x2="55.5006" y2="-0.54058" gradientUnits="userSpaceOnUse">
<stop stop-color="#6428C7"/>
<stop offset="0.651042" stop-color="#9348D4"/>
</linearGradient>
<linearGradient id="paint1_linear_2841_25848" x1="85.3334" y1="21.6" x2="25.1602" y2="20.8157" gradientUnits="userSpaceOnUse">
<stop stop-color="#FF8320"/>
<stop offset="1" stop-color="#A169FF"/>
</linearGradient>
<linearGradient id="paint2_linear_2841_25848" x1="48" y1="34" x2="48.5109" y2="81.5" gradientUnits="userSpaceOnUse">
<stop offset="0.151042" stop-color="white"/>
<stop offset="1" stop-color="#2775CA"/>
</linearGradient>
<linearGradient id="paint3_linear_2841_25848" x1="48.1696" y1="40.4015" x2="48.8371" y2="73.4774" gradientUnits="userSpaceOnUse">
<stop offset="0.151042" stop-color="white"/>
<stop offset="1" stop-color="#2775CA"/>
</linearGradient>
</defs>
</svg>
