<svg width="512" height="512" viewBox="0 0 512 512" fill="none" xmlns="http://www.w3.org/2000/svg">
<rect width="512" height="512" rx="256" fill="black"/>
<path d="M256.864 195.121L198.327 137.294C196.341 135.333 194.189 133.578 191.902 132.043L223.133 100.905C240.39 83.6985 268.369 83.6984 285.626 100.905C292.11 107.37 296.373 115.64 297.919 124.533V124.533C275.245 124.533 256.864 142.914 256.864 165.588V195.121Z" fill="white"/>
<path d="M378.63 193.634C384.053 186.236 387.027 177.265 387.027 167.99C387.027 143.989 367.513 124.533 343.441 124.533H297.919C298.337 126.936 298.556 129.384 298.568 131.855L298.949 214.018L319.398 193.632C335.769 177.311 362.259 177.312 378.63 193.634V193.634Z" fill="white"/>
<path d="M387.03 298.663C395.763 297.118 403.879 292.94 410.234 286.603C427.255 269.632 427.255 242.116 410.234 225.145L378.63 193.634C377.355 195.373 375.945 197.025 374.406 198.574L317.212 256.141L344.508 256.141C367.992 256.142 387.03 275.179 387.03 298.663V298.663Z" fill="white"/>
<path d="M318.88 377.687V377.687C334.795 361.819 334.795 336.042 318.88 320.175L298.36 299.714L379.621 299.331C382.121 299.319 384.599 299.093 387.03 298.663V343.192C387.03 366.791 367.842 385.922 344.174 385.922C335.023 385.922 326.175 383.004 318.88 377.687Z" fill="white"/>
<path d="M213.203 385.925C214.441 395.169 218.69 403.815 225.378 410.485C242.115 427.172 269.249 427.172 285.986 410.485L318.88 377.687C317.087 376.38 315.388 374.928 313.802 373.338L256.867 316.313L256.866 342.264C256.865 366.378 237.316 385.925 213.203 385.925V385.925Z" fill="white"/>
<path d="M132.97 318.356C127.738 325.571 124.867 334.295 124.867 343.319C124.867 366.85 143.999 385.925 167.599 385.925H213.203C212.949 384.029 212.822 382.108 212.826 380.173L213.009 299.723L194.307 318.362C177.352 335.26 149.922 335.257 132.97 318.356V318.356Z" fill="white"/>
<path d="M123.036 213.96L123.036 168.593C123.036 144.259 142.82 124.533 167.225 124.533C176.079 124.533 184.661 127.183 191.902 132.043V132.043C174.874 149.021 174.874 176.601 191.902 193.579L212.399 214.015L131.128 213.265C128.394 213.24 125.686 213.476 123.036 213.96Z" fill="white"/>
<path d="M195.665 256.145L165.218 256.143C141.922 256.142 123.036 237.256 123.036 213.96V213.96C114.566 215.506 106.694 219.582 100.516 225.742C83.828 242.381 83.8281 269.358 100.516 285.997L132.97 318.356C134.369 316.426 135.937 314.604 137.664 312.914L195.665 256.145Z" fill="white"/>
</svg>
