<?xml version="1.0" encoding="UTF-8" standalone="no"?>
<svg
   width="400"
   height="400"
   viewBox="0 0 400 400"
   fill="none"
   version="1.1"
   id="svg29"
   sodipodi:docname="Lyra-token.svg"
   inkscape:version="1.2.2 (732a01da63, 2022-12-09, custom)"
   xmlns:inkscape="http://www.inkscape.org/namespaces/inkscape"
   xmlns:sodipodi="http://sodipodi.sourceforge.net/DTD/sodipodi-0.dtd"
   xmlns="http://www.w3.org/2000/svg"
   xmlns:svg="http://www.w3.org/2000/svg">
  <sodipodi:namedview
     id="namedview31"
     pagecolor="#ffffff"
     bordercolor="#000000"
     borderopacity="0.25"
     inkscape:showpageshadow="2"
     inkscape:pageopacity="0.0"
     inkscape:pagecheckerboard="0"
     inkscape:deskcolor="#d1d1d1"
     showgrid="false"
     inkscape:zoom="1.9018519"
     inkscape:cx="212.68744"
     inkscape:cy="199.80526"
     inkscape:window-width="1276"
     inkscape:window-height="1417"
     inkscape:window-x="1280"
     inkscape:window-y="1440"
     inkscape:window-maximized="1"
     inkscape:current-layer="svg29" />
  <circle
     cx="200"
     cy="200"
     r="200"
     fill="#030505"
     id="circle18" />
  <path
     fill-rule="evenodd"
     clip-rule="evenodd"
     d="m 83,208.577 c 3.242,5.144 9.392,10.217 26.149,10.192 h 163.022 c 6.317,0 13.444,4.732 15.947,10.606 l 27.031,63.996 C 317.628,299.243 314.505,304 308.188,304 H 141.115 c -9.94,-0.631 -19.165,-3.252 -23.432,-13.347 z m 140.185,-132.385 27.342,64.796 c 2.479,5.898 0.929,14.392 -3.481,19.003 l -39.64,42.252 h -90.128 c -14.279,0.169 -22.741,-5.34 -10.608,-18.76 L 210.743,73.886 c 4.386,-4.611 9.964,-3.592 12.442,2.306 z"
     fill="url(#paint0_linear_4_128)"
     id="path20"
     style="fill:url(#paint0_linear_4_128)" />
  <defs
     id="defs27">
    <linearGradient
       id="paint0_linear_4_128"
       x1="372.32401"
       y1="189.45599"
       x2="199.008"
       y2="408.39099"
       gradientUnits="userSpaceOnUse"
       gradientTransform="translate(-70,-70)">
      <stop
         stop-color="#63E1D6"
         id="stop22" />
      <stop
         offset="1"
         stop-color="#17B89B"
         id="stop24" />
    </linearGradient>
  </defs>
</svg>
