<svg xmlns="http://www.w3.org/2000/svg" xmlns:xlink="http://www.w3.org/1999/xlink" viewBox="0 0 146.93 169.66"><defs><style>.cls-1{fill:url(#linear-gradient);}.cls-2{fill:url(#linear-gradient-2);}.cls-3{fill:url(#linear-gradient-3);}.cls-4{fill:url(#linear-gradient-4);}.cls-5{fill:url(#linear-gradient-5);}.cls-6{fill:url(#linear-gradient-6);}</style><linearGradient id="linear-gradient" x1="73.72" y1="180.41" x2="73.19" y2="-17.68" gradientUnits="userSpaceOnUse"><stop offset="0" stop-color="#1a1e61"/><stop offset="0.01" stop-color="#1b2468"/><stop offset="0.03" stop-color="#22418a"/><stop offset="0.06" stop-color="#275ba7"/><stop offset="0.1" stop-color="#2b6fbf"/><stop offset="0.13" stop-color="#2f7fd2"/><stop offset="0.18" stop-color="#318ade"/><stop offset="0.24" stop-color="#3390e6"/><stop offset="0.37" stop-color="#3392e8"/><stop offset="0.88" stop-color="#3392e8"/><stop offset="0.91" stop-color="#3392e8"/></linearGradient><linearGradient id="linear-gradient-2" x1="73.47" y1="20.98" x2="73.47" y2="66.04" gradientUnits="userSpaceOnUse"><stop offset="0.27" stop-color="#3392e8"/><stop offset="0.4" stop-color="#3697e9"/><stop offset="0.54" stop-color="#3fa4ec"/><stop offset="0.69" stop-color="#4ebaf0"/><stop offset="0.85" stop-color="#63d9f6"/><stop offset="1" stop-color="#7cfffe"/></linearGradient><linearGradient id="linear-gradient-3" x1="16.14" y1="87.38" x2="128.23" y2="88.71" gradientUnits="userSpaceOnUse"><stop offset="0" stop-color="#3392e8"/><stop offset="0.1" stop-color="#4bb6ef"/><stop offset="0.2" stop-color="#61d6f6"/><stop offset="0.31" stop-color="#70edfa"/><stop offset="0.4" stop-color="#79fafd"/><stop offset="0.49" stop-color="#7cfffe"/><stop offset="0.6" stop-color="#7afcfd"/><stop offset="0.69" stop-color="#73f1fb"/><stop offset="0.78" stop-color="#67dff8"/><stop offset="0.87" stop-color="#56c6f3"/><stop offset="0.95" stop-color="#41a7ec"/><stop offset="1" stop-color="#3392e8"/></linearGradient><linearGradient id="linear-gradient-4" x1="39.35" y1="124.35" x2="39.06" y2="73.54" gradientUnits="userSpaceOnUse"><stop offset="0" stop-color="#3392e8"/><stop offset="0.2" stop-color="#328fe5"/><stop offset="0.37" stop-color="#3086da"/><stop offset="0.53" stop-color="#2d77c9"/><stop offset="0.68" stop-color="#2962b0"/><stop offset="0.83" stop-color="#234690"/><stop offset="0.97" stop-color="#1c2569"/><stop offset="1" stop-color="#1a1e61"/></linearGradient><linearGradient id="linear-gradient-5" x1="107.7" y1="72.72" x2="107.7" y2="122.34" gradientUnits="userSpaceOnUse"><stop offset="0" stop-color="#1a1e61"/><stop offset="0.03" stop-color="#1c2569"/><stop offset="0.17" stop-color="#234690"/><stop offset="0.32" stop-color="#2962b0"/><stop offset="0.47" stop-color="#2d77c9"/><stop offset="0.63" stop-color="#3086da"/><stop offset="0.8" stop-color="#328fe5"/><stop offset="1" stop-color="#3392e8"/></linearGradient><linearGradient id="linear-gradient-6" x1="73.3" y1="150.23" x2="73.64" y2="111.14" gradientUnits="userSpaceOnUse"><stop offset="0" stop-color="#3392e8"/><stop offset="0.14" stop-color="#328de2"/><stop offset="0.33" stop-color="#2f80d3"/><stop offset="0.53" stop-color="#2a69b9"/><stop offset="0.75" stop-color="#234a94"/><stop offset="0.98" stop-color="#1b2266"/><stop offset="1" stop-color="#1a1e61"/></linearGradient></defs><g id="Layer_2" data-name="Layer 2"><g id="Layer_1-2" data-name="Layer 1"><path class="cls-1" d="M73.47,5.78,141.93,45.3v79.06L73.47,163.88,5,124.36V45.3L73.47,5.78m0-5.78L71,1.44,2.5,41,0,42.42v84.83l2.5,1.44L71,168.22l2.51,1.44,2.5-1.44,68.46-39.53,2.5-1.44V42.42L144.43,41,76,1.44,73.47,0Z"/><polygon class="cls-2" points="73.47 18.95 27.83 45.3 73.47 71.66 119.11 45.3 73.47 18.95"/><polygon class="cls-3" points="16.41 51.89 73.47 84.83 130.52 51.89 130.52 117.77 119.11 124.36 119.11 71.66 73.47 98.01 27.83 71.66 27.83 124.36 16.41 117.77 16.41 51.89"/><polygon class="cls-4" points="27.83 124.36 50.65 111.18 50.65 84.83 27.83 71.66 27.83 124.36"/><polygon class="cls-5" points="119.11 71.66 119.11 124.36 96.29 111.18 96.29 84.83 119.11 71.66"/><polygon class="cls-6" points="73.47 150.71 107.7 130.94 73.47 111.18 39.24 130.94 73.47 150.71"/></g></g></svg>
