<svg width="300" height="300" viewBox="0 0 300 300" fill="none" xmlns="http://www.w3.org/2000/svg">
<path d="M149.999 300C232.842 300 299.999 232.842 299.999 150C299.999 67.1568 232.842 -0.000488281 149.999 -0.000488281C67.1563 -0.000488281 -0.000976562 67.1568 -0.000976562 150C-0.000976562 232.842 67.1563 300 149.999 300Z" fill="#161718"/>
<path d="M237.06 87.0643C253.752 110.155 260.587 138.931 256.062 167.061C251.537 195.192 236.023 220.373 212.932 237.064C189.841 253.756 161.066 260.591 132.935 256.066C104.805 251.541 79.624 236.027 62.9324 212.936L108.711 179.844C116.626 190.793 128.567 198.15 141.906 200.296C155.245 202.442 168.891 199.2 179.84 191.285C190.79 183.37 198.147 171.43 200.292 158.09C202.438 144.751 199.197 131.106 191.282 120.156L237.06 87.0643Z" fill="url(#paint0_linear_154_31)"/>
<path fill-rule="evenodd" clip-rule="evenodd" d="M167.062 43.9333C195.192 48.4583 220.373 63.9726 237.065 87.0635L191.286 120.156C183.371 109.206 171.43 101.849 158.091 99.7035C144.752 97.5578 131.106 100.799 120.157 108.714C109.207 116.629 101.851 128.57 99.7049 141.909C97.8493 153.445 100.022 165.21 105.763 175.262C107.07 176.491 108.28 177.862 109.37 179.37C118.639 192.192 115.758 210.101 102.936 219.37C90.1131 228.638 72.2045 225.758 62.9356 212.935C62.8797 212.858 62.8244 212.781 62.7694 212.703C46.1994 189.652 39.425 160.974 43.9348 132.938C48.4597 104.808 63.9741 79.6268 87.0649 62.9352C110.156 46.2436 138.932 39.4084 167.062 43.9333Z" fill="url(#paint1_linear_154_31)"/>
<circle cx="213.845" cy="103.847" r="28.6478" transform="rotate(-35.8619 213.845 103.847)" fill="#ADF6E9"/>
<defs>
<linearGradient id="paint0_linear_154_31" x1="208.925" y1="139.286" x2="57.1281" y2="217.132" gradientUnits="userSpaceOnUse">
<stop stop-color="#ADF6E9"/>
<stop offset="0.307839" stop-color="#25C3A6"/>
<stop offset="0.910688" stop-color="#193D36"/>
</linearGradient>
<linearGradient id="paint1_linear_154_31" x1="105.174" y1="173.565" x2="221.89" y2="53.8459" gradientUnits="userSpaceOnUse">
<stop stop-color="#ADF5E8"/>
<stop offset="0.381517" stop-color="#25C6A9"/>
<stop offset="1" stop-color="#1B4D43"/>
</linearGradient>
</defs>
</svg>
