<svg width="138" height="146" viewBox="0 0 138 146" fill="none" xmlns="http://www.w3.org/2000/svg">
<g clip-path="url(#clip0_116_33)">
<path d="M47.246 117.852V145.694H57.613V107.487L47.28 117.806L47.246 117.852Z" fill="url(#paint0_linear_116_33)"/>
<path d="M0 60.25V102.772L10.139 112.909L10.367 113.137V49.885L0.034 60.216L0 60.25Z" fill="url(#paint1_linear_116_33)"/>
<path d="M40.647 69.063H51.242L61.381 58.937L61.609 58.709H30.279L40.612 69.029L40.647 69.063Z" fill="url(#paint2_linear_116_33)"/>
<path d="M47.532 11.358L37.393 21.495L37.164 21.712H100.007L89.685 11.393L89.64 11.358H47.532Z" fill="url(#paint3_linear_116_33)"/>
<path d="M73.9519 107.281H63.2307V145.694H73.9519V107.281Z" fill="url(#paint4_linear_116_33)"/>
<path d="M49.941 0H35.28L25.815 9.463L25.781 9.498V24.155L49.712 0.228L49.941 0Z" fill="url(#paint5_linear_116_33)"/>
<path d="M24.16 25.776H9.499L0.034 35.228L0 35.273V49.931L23.931 26.004L24.16 25.776Z" fill="url(#paint6_linear_116_33)"/>
<path d="M79.569 107.487V145.694H89.925V117.852L79.786 107.715L79.569 107.487Z" fill="url(#paint7_linear_116_33)"/>
<path d="M126.804 49.885V113.137L137.137 102.818L137.171 102.772V60.25L127.032 50.113L126.804 49.885Z" fill="url(#paint8_linear_116_33)"/>
<path d="M85.895 69.029L85.929 69.063H96.524L106.663 58.937L106.892 58.709H75.562L85.895 69.029Z" fill="url(#paint9_linear_116_33)"/>
<path d="M73.9519 58.709H63.2307V84.0396H73.9519V58.709Z" fill="url(#paint10_linear_116_33)"/>
<path d="M106.275 27.99H30.896L16.019 42.853L15.985 42.899V74.862L26.124 84.999L26.352 85.227V47.191L35.189 38.356H101.982L110.819 47.191V85.227L121.152 74.907L121.187 74.862V42.899L106.321 28.025L106.275 27.99Z" fill="url(#paint11_linear_116_33)"/>
<path d="M15.985 96.288V118.754L26.124 128.891L26.352 129.119V85.935L16.019 96.254L15.985 96.288Z" fill="url(#paint12_linear_116_33)"/>
<path d="M110.819 85.935V129.119L121.152 118.799L121.187 118.754V96.288L111.048 86.152L110.819 85.935Z" fill="url(#paint13_linear_116_33)"/>
<path d="M84.33 89.097H52.841L31.65 110.284L31.615 110.318V134.381L41.754 144.518L41.983 144.746V114.61L57.134 99.462H80.037L95.189 114.61V144.746L105.522 134.427L105.556 134.381V110.318L84.376 89.131L84.33 89.097Z" fill="url(#paint14_linear_116_33)"/>
<path d="M111.39 24.155V9.498L101.936 0.034L101.902 0H87.242L111.162 23.927L111.39 24.155Z" fill="url(#paint15_linear_116_33)"/>
<path d="M127.717 25.81L127.672 25.776H113.012L136.943 49.702L137.171 49.931V35.273L127.717 25.81Z" fill="url(#paint16_linear_116_33)"/>
</g>
<defs>
<linearGradient id="paint0_linear_116_33" x1="52.4297" y1="168.479" x2="52.4297" y2="-25.7302" gradientUnits="userSpaceOnUse">
<stop stop-color="#4FCE0D"/>
<stop offset="1" stop-color="#4FEA0D"/>
</linearGradient>
<linearGradient id="paint1_linear_116_33" x1="5.1836" y1="168.479" x2="5.1836" y2="-25.7302" gradientUnits="userSpaceOnUse">
<stop stop-color="#4FCE0D"/>
<stop offset="1" stop-color="#4FCE0D"/>
</linearGradient>
<linearGradient id="paint2_linear_116_33" x1="-7521.99" y1="-23743.3" x2="-7521.99" y2="-5504.88" gradientUnits="userSpaceOnUse">
<stop stop-color="#4FCE0D"/>
<stop offset="1" stop-color="#4FCE0D"/>
</linearGradient>
<linearGradient id="paint3_linear_116_33" x1="-13688.6" y1="-23300.2" x2="-13688.6" y2="-5061.96" gradientUnits="userSpaceOnUse">
<stop stop-color="#4FCE0D"/>
<stop offset="1" stop-color="#4FCE0D"/>
</linearGradient>
<linearGradient id="paint4_linear_116_33" x1="-2278.37" y1="-249139" x2="-2278.37" y2="1894.93" gradientUnits="userSpaceOnUse">
<stop stop-color="#4FCE0D"/>
<stop offset="1" stop-color="#4FCE0D"/>
</linearGradient>
<linearGradient id="paint5_linear_116_33" x1="-5993.42" y1="-103311" x2="-5993.42" y2="-4047.17" gradientUnits="userSpaceOnUse">
<stop stop-color="#4FCE0D"/>
<stop offset="1" stop-color="#4FCE0D"/>
</linearGradient>
<linearGradient id="paint6_linear_116_33" x1="-6642.07" y1="-103908" x2="-6642.07" y2="-4644.02" gradientUnits="userSpaceOnUse">
<stop stop-color="#4FCE0D"/>
<stop offset="1" stop-color="#4FCE0D"/>
</linearGradient>
<linearGradient id="paint7_linear_116_33" x1="-2014.96" y1="-246652" x2="-2014.96" y2="1700.79" gradientUnits="userSpaceOnUse">
<stop stop-color="#4FCE0D"/>
<stop offset="1" stop-color="#4FCE0D"/>
</linearGradient>
<linearGradient id="paint8_linear_116_33" x1="-1480.21" y1="-638625" x2="-1480.21" y2="42038" gradientUnits="userSpaceOnUse">
<stop stop-color="#4FCE0D"/>
<stop offset="1" stop-color="#4FCE0D"/>
</linearGradient>
<linearGradient id="paint9_linear_116_33" x1="-6058.01" y1="-23743.3" x2="-6058.01" y2="-5504.88" gradientUnits="userSpaceOnUse">
<stop stop-color="#4FCE0D"/>
<stop offset="1" stop-color="#4FCE0D"/>
</linearGradient>
<linearGradient id="paint10_linear_116_33" x1="-2278.37" y1="-114163" x2="-2278.37" y2="-5001.25" gradientUnits="userSpaceOnUse">
<stop stop-color="#4FCE0D"/>
<stop offset="1" stop-color="#4FCE0D"/>
</linearGradient>
<linearGradient id="paint11_linear_116_33" x1="-22961.6" y1="-525838" x2="-22961.6" y2="31515.4" gradientUnits="userSpaceOnUse">
<stop stop-color="#4FCE0D"/>
<stop offset="1" stop-color="#4FCE0D"/>
</linearGradient>
<linearGradient id="paint12_linear_116_33" x1="-2739.89" y1="-309608" x2="-2739.89" y2="7662.01" gradientUnits="userSpaceOnUse">
<stop stop-color="#4FCE0D"/>
<stop offset="1" stop-color="#4FCE0D"/>
</linearGradient>
<linearGradient id="paint13_linear_116_33" x1="-1662.08" y1="-309608" x2="-1662.08" y2="7662.01" gradientUnits="userSpaceOnUse">
<stop stop-color="#4FCE0D"/>
<stop offset="1" stop-color="#4FCE0D"/>
</linearGradient>
<linearGradient id="paint14_linear_116_33" x1="-16118.2" y1="-501556" x2="-16118.2" y2="25312.1" gradientUnits="userSpaceOnUse">
<stop stop-color="#4FCE0D"/>
<stop offset="1" stop-color="#4FCE0D"/>
</linearGradient>
<linearGradient id="paint15_linear_116_33" x1="-4444.95" y1="-103311" x2="-4444.95" y2="-4047.17" gradientUnits="userSpaceOnUse">
<stop stop-color="#4FCE0D"/>
<stop offset="1" stop-color="#4FCE0D"/>
</linearGradient>
<linearGradient id="paint16_linear_116_33" x1="-3798.54" y1="-103908" x2="-3798.54" y2="-4644.02" gradientUnits="userSpaceOnUse">
<stop stop-color="#4FCE0D"/>
<stop offset="1" stop-color="#4FCE0D"/>
</linearGradient>
<clipPath id="clip0_116_33">
<rect width="137.171" height="145.694" fill="white"/>
</clipPath>
</defs>
</svg>
