<?xml version="1.0" encoding="UTF-8" standalone="no"?>
<svg
   width="76.800003"
   height="76.800003"
   viewBox="0 0 76.800003 76.800003"
   fill="none"
   version="1.1"
   id="svg13"
   sodipodi:docname="plsarb.svg"
   inkscape:version="1.2.2 (732a01da63, 2022-12-09, custom)"
   xmlns:inkscape="http://www.inkscape.org/namespaces/inkscape"
   xmlns:sodipodi="http://sodipodi.sourceforge.net/DTD/sodipodi-0.dtd"
   xmlns="http://www.w3.org/2000/svg"
   xmlns:svg="http://www.w3.org/2000/svg">
  <sodipodi:namedview
     id="namedview15"
     pagecolor="#ffffff"
     bordercolor="#000000"
     borderopacity="0.25"
     inkscape:showpageshadow="2"
     inkscape:pageopacity="0.0"
     inkscape:pagecheckerboard="0"
     inkscape:deskcolor="#d1d1d1"
     showgrid="false"
     inkscape:zoom="12.8375"
     inkscape:cx="30.185005"
     inkscape:cy="39.961052"
     inkscape:window-width="2556"
     inkscape:window-height="1417"
     inkscape:window-x="0"
     inkscape:window-y="1440"
     inkscape:window-maximized="1"
     inkscape:current-layer="svg13" />
  <path
     d="M 38.4,0 C 59.6064,0 76.8,17.1936 76.8,38.4 76.8,59.6064 59.6064,76.8 38.4,76.8 17.1936,76.8 0,59.6064 0,38.4 0,17.1936 17.1936,0 38.4,0 Z"
     fill="#040404"
     id="path2" />
  <path
     d="m 66.3647,25.3151 v 26.0928 c -0.0736,1.7152 -0.8704,3.2928 -2.2208,4.3424 l -23.5712,13.648 c -0.672,0.2656 -1.3824,0.3968 -2.112,0.3968 -0.7936,0 -1.6736,-0.1728 -2.2912,-0.4704 -0.0768,-0.0384 -0.2976,-0.16 -0.6176,-0.3424 -0.208,-0.1152 -0.464,-0.2624 -0.7488,-0.4224 l -8.6304,-4.9664 -7.2096,-4.1536 20.6304,-34.0448 9.12,-0.032 -20.5792,34.9056 9.6,5.52 c 0.4352,0.176 0.944,0.1856 1.3792,0.0256 l 8.1152,-4.7008 -8.6624,-13.5936 5.2896,-8.9728 11.3728,17.9296 2.2368,-1.296 h 0.0032 l -12.0032,-19.4048 4.6144,-7.824 12.3936,19.3024 0.0352,0.0576 -0.0352,-21.8528 c -0.0288,-0.624 -0.3616,-1.1936 -0.8896,-1.5328 L 39.2063,11.0527 c -0.5216,-0.2592 -1.184,-0.256 -1.7088,0.0064 -0.0032,0.0032 -0.096,0.0576 -0.2624,0.1536 -2.336,1.3472 -19.52,11.2928 -21.8752,12.6656 0,0 -0.0021,0.0011 -0.0064,0.0032 -0.0768,0.0352 -0.1504,0.08 -0.2176,0.128 -0.0256,0.016 -0.0384,0.0224 -0.0416,0.0256 -0.4096,0.2944 -0.6848,0.7328 -0.7744,1.2256 -0.0128,0.0736 -0.0224,0.1504 -0.0256,0.224 l 0.032,20.832 11.5776,-17.9424 c 1.456,-2.3808 4.6336,-3.1488 7.584,-3.104 l 3.4592,0.0896 -20.3904,32.6944 -6.128,-3.5296 V 25.3023 c 0.0928,-1.7664 0.9728,-3.376 2.416,-4.4128 0.2752,-0.1952 0.5664,-0.368 0.8672,-0.512 0,0 21.8592,-12.67837 22.048,-12.77437 1.6032,-0.8032 3.6,-0.8032 5.2032,0 L 63.6319,20.6399 c 1.6192,1.0208 2.6528,2.7648 2.7264,4.6688 z"
     fill="url(#paint0_linear_301_245)"
     id="path4"
     style="fill:url(#paint0_linear_301_245)" />
  <defs
     id="defs11">
    <linearGradient
       id="paint0_linear_301_245"
       x1="38.399899"
       y1="69.795097"
       x2="38.399899"
       y2="7.0047302"
       gradientUnits="userSpaceOnUse">
      <stop
         stop-color="#035A0D"
         id="stop6" />
      <stop
         offset="1"
         stop-color="#0BCE0D"
         id="stop8" />
    </linearGradient>
  </defs>
</svg>
