<svg width="1024" height="1024" viewBox="0 0 1024 1024" fill="none" xmlns="http://www.w3.org/2000/svg">
<rect width="1024" height="1024" fill="#040404"/>
<g clip-path="url(#clip0_1084_341)">
<path fill-rule="evenodd" clip-rule="evenodd" d="M266.909 397.599L403.167 185L200.041 388.227C183.138 405.138 191.092 434.03 214.264 439.897L321.926 467.167C312.311 482.284 301.427 501.349 292.968 521.558C285.213 540.068 278.752 561.263 278.113 582.254C277.459 603.75 282.964 626.782 301.134 644.957C328.433 672.27 348.254 681.801 364.086 689.409C365.265 689.975 366.42 690.53 367.552 691.081C374.917 694.659 380.362 697.595 386.133 702.214C391.963 706.875 399.039 713.998 408.126 726.502C409.743 728.729 411.461 731.106 413.266 733.618C433.088 761.134 464.194 804.322 504.334 832.991C526.735 848.985 553.317 861.552 583.715 864.013C614.506 866.506 646.66 858.412 679.387 837.325C710.733 817.123 731.39 794.622 741.108 768.415C750.895 742.023 747.996 716.155 740.877 692.695C734.358 671.207 723.477 649.295 713.324 628.843L713.305 628.805L713.104 628.404L711.41 624.987C700.302 602.582 689.826 580.925 682.853 558.251C669.242 513.988 678.475 494.811 684.277 487.215C687.066 483.564 690.606 480.555 694.658 478.393C696.167 477.588 697.376 477.11 698.042 476.871L698.4 476.748L699.039 476.598L700.137 476.24H700.141L704.957 474.66L717.656 470.477C728.171 467.009 742.221 462.364 756.34 457.656C770.435 452.956 784.678 448.164 795.551 444.416C800.961 442.551 805.673 440.899 809.158 439.624C810.864 439 812.496 438.383 813.844 437.84C814.483 437.582 815.368 437.212 816.285 436.781C817.004 436.444 817.711 436.081 818.403 435.69L818.445 435.667C820.619 434.439 822.617 432.923 824.386 431.16C835.332 420.208 831.828 406.787 831.47 405.408L831.451 405.342C830.882 403.114 830.036 400.966 828.933 398.948C828.214 397.639 827.404 396.382 826.507 395.188C825.556 393.916 824.501 392.672 823.701 391.748C821.439 389.181 819.133 386.654 816.785 384.166C813.459 380.615 748.874 315.153 694.615 260.162C657.04 222.082 624.421 189.018 620.516 185C620.978 185.474 655.727 240.176 690.122 294.32C723.828 347.377 757.194 399.899 757.629 400.35C751.719 402.341 745.509 404.418 739.294 406.49C722.255 412.17 705.203 417.813 688.139 423.417L684.069 424.754L683.738 424.846L683.492 424.916C682.541 425.193 681.343 425.571 679.942 426.071C677.15 427.065 673.485 428.575 669.342 430.779C658.457 436.579 648.947 444.655 641.458 454.459C622.237 479.606 614.144 518.214 631.332 574.11C639.76 601.515 652.147 626.809 663.116 648.948L664.194 651.117C675.114 673.137 684.127 691.316 689.298 708.362C694.454 725.351 694.8 738.248 690.573 749.655C686.272 761.25 675.645 775.584 650.198 791.983C626.134 807.489 605.612 811.676 588.058 810.255C570.116 808.802 552.693 801.267 535.652 789.094C503.155 765.884 477.081 729.835 456.532 701.42C454.892 699.155 453.29 696.94 451.719 694.783C440.507 679.354 430.215 668.422 419.785 660.081C409.301 651.699 399.59 646.691 391.096 642.565C389.872 641.968 388.655 641.386 387.442 640.805V640.801C373.493 634.109 360.09 627.676 339.248 606.824C334.447 602.016 331.648 595.109 331.99 583.899C332.348 572.188 336.187 557.912 342.683 542.395C355.635 511.469 376.18 482.426 384.389 471.455C397.788 453.542 388.251 428.333 367.224 423.005L266.909 397.599ZM494.142 618.084C494.142 618.084 452.597 618.084 424.906 592.59C397.214 567.091 424.906 516.103 424.906 516.103C424.906 516.103 432.984 521.199 463.563 556.895C494.142 592.59 494.142 618.084 494.142 618.084Z" fill="url(#paint0_linear_1084_341)"/>
</g>
<defs>
<linearGradient id="paint0_linear_1084_341" x1="511.641" y1="185" x2="511.641" y2="896" gradientUnits="userSpaceOnUse">
<stop offset="0.401042" stop-color="#0BCE0D"/>
<stop offset="1" stop-color="#013D0D"/>
</linearGradient>
<clipPath id="clip0_1084_341">
<rect width="643" height="678" fill="white" transform="translate(191 185)"/>
</clipPath>
</defs>
</svg>
