<svg width="810" height="810" viewBox="0 0 810 810" fill="none" xmlns="http://www.w3.org/2000/svg">
<rect width="810" height="810" fill="#040404"/>
<path d="M475.61 239.178C477.774 235.078 481.236 231.792 485.467 229.821C491.284 227.14 497.17 226.869 502.584 230.696C504.415 232.009 505.875 233.764 506.825 235.792C511.703 246.353 516.559 256.933 521.019 267.708C528.179 285.116 537.882 301.295 545.809 318.35C557.07 342.607 568.421 366.81 579.87 390.956C586.428 404.78 592.641 418.917 600.873 431.942C603.129 435.376 605.595 438.666 608.262 441.797C609.388 443.077 610.785 444.095 612.356 444.78C624.375 450.272 637.318 451.321 650.22 452.128C656.804 452.544 663.266 451.66 669.807 451.657C682.331 451.677 694.857 451.7 707.318 452.128C715.57 452.424 723.819 453.374 732.034 454.232C735.208 454.674 738.347 455.333 741.429 456.203C742.715 456.565 743.959 457.066 745.133 457.702C751.831 461.124 753.172 466.861 748.558 472.69C744.711 477.608 739.739 481.555 734.044 484.201C721.911 489.644 709.257 493.89 696.271 496.87C683.468 500.006 670.757 503.502 658.139 507.357C638.838 513.439 619.051 517.922 598.986 520.759C585.63 522.478 572.171 523.32 558.695 523.28C546.582 523.325 534.486 522.41 522.336 521.971C503.805 521.292 485.33 519.918 466.822 518.409C439.73 516.413 412.516 519.456 386.588 527.377C369.083 532.487 351.51 537.414 334.067 542.969C325.85 545.581 317.903 549.362 310.064 552.761C299.702 557.212 289.454 562.028 278.995 566.339C253.534 576.952 227.015 583.673 199.053 583.77C184.374 584.115 169.688 583.197 155.162 581.024C146.487 579.524 137.723 578.846 129.208 575.88C101.935 566.222 83.7576 548.13 77.2991 519.835C75.5492 512.473 75.4851 504.822 77.1121 497.443C78.7391 490.063 82.016 483.143 86.7023 477.186C91.2951 471.138 95.7243 464.768 100.672 458.911C110.551 446.97 122.844 437.198 136.768 430.223C149.724 423.639 163.887 419.684 178.428 418.592C187.725 417.714 197.091 417.762 206.385 418.737C209.551 419.085 212.665 419.907 215.812 420.428C217.275 420.588 218.694 420.745 220.528 420.944C220.92 419.81 221.217 418.643 221.416 417.46C222.131 407.471 222.757 397.471 223.428 387.477C223.715 384.842 223.847 382.213 223.958 379.584C224.18 374.301 224.226 369.02 224.556 363.77C225.301 352.082 225.173 340.294 227.756 328.763C228.12 326.95 228.321 325.108 228.357 323.26C228.739 314.084 232.012 305.752 235.927 297.62C236.312 296.781 236.771 295.975 237.292 295.213C244.786 285.122 253.905 276.317 264.287 269.151C284.401 255.199 306.776 244.731 330.46 238.198C347.021 233.585 363.965 230.417 381.096 228.733C396.919 227.344 412.858 227.877 428.561 230.32C433.973 231.154 439.437 231.907 444.809 232.279C454.147 232.89 463.343 234.88 472.094 238.18C473.18 238.562 474.216 238.785 475.61 239.178ZM232.897 424.03C234.612 424.72 236.289 425.538 238.065 426.06C251.17 430.032 264.29 433.984 277.429 437.919L279.357 438.261C277.977 437.198 276.391 436.422 274.7 435.98C264.883 433.003 255.114 430.006 245.262 427.135C241.193 425.946 237.024 425.073 232.916 424.053C232.113 418.854 232.569 417.922 237.329 415.8C239.4 414.848 241.495 414.075 243.546 413.1C275.274 399.248 308.55 389.128 342.687 382.949C368.63 378.085 394.86 374.808 421.224 373.14C443.848 371.538 466.559 371.392 489.214 372.701C506.693 373.502 524.067 375.9 541.11 379.864C548.92 381.626 556.551 384.11 563.899 387.28C566.511 388.39 568.644 390.38 569.913 392.898C573.411 399.724 577.118 406.465 580.754 413.243L597.092 443.713C597.683 444.805 598.801 445.889 597.463 447.816C594.6 446.935 591.549 446.12 588.592 445.073C573.326 439.81 557.537 436.171 541.498 434.224C525.647 432.091 509.642 430.725 493.671 429.693C481.05 428.894 468.347 429.094 455.676 428.991C448.076 428.743 440.472 428.894 432.89 429.439C418.821 430.819 404.826 432.909 390.808 434.6L322.191 443.422C321.43 443.514 320.683 443.673 319.941 443.787L319.85 444.609C330.095 445.883 340.209 448.033 350.084 451.03C343.873 450.654 337.703 449.889 331.512 449.319C325.322 448.746 319.035 448.449 312.761 447.828C306.488 447.203 300.828 445.205 294.598 446.006C295.875 446.947 297.281 447.702 298.772 448.256C310.671 452.972 322.83 457.012 335.191 460.36C352.14 464.6 368.96 469.396 385.807 473.976C391.86 475.604 397.851 477.594 404.013 478.64C413.99 480.348 424.064 481.586 434.13 482.69C441.29 483.476 448.49 483.918 455.678 484.469C461.549 484.916 467.372 485.227 473.226 485.652C487.62 486.753 502.02 486.63 516.425 486.422C538.98 486.145 561.472 484.141 583.699 480.423C591.293 479.071 598.763 477.029 606.231 475.011C613.058 473.183 619.682 470.788 626.491 468.937C638.142 465.849 650.064 467.158 661.954 467.939C665.005 468.122 668.033 468.715 671.079 469.159C675.037 469.747 678.949 470.525 682.929 470.919C691.139 471.82 699.388 472.553 707.646 473.023C715.353 473.454 723.043 473.645 730.831 473.559C734.153 473.342 737.437 472.764 740.631 471.84C742.04 471.449 743.343 470.756 744.452 469.812C747.7 467.178 747.506 464.098 743.748 462.31C740.748 460.867 737.549 459.884 734.255 459.39C722.507 457.62 710.642 456.753 698.763 456.801C693.431 456.873 688.09 457.007 682.767 457.012C679.299 457.001 675.826 456.816 672.348 456.719C679.117 458.467 685.94 459.718 692.735 461.033C699.009 462.245 705.279 463.525 711.543 464.822C712.844 465.19 714.115 465.644 715.35 466.18L715.133 466.964C714.247 466.998 713.351 467.098 712.473 467.044C709.947 466.918 707.397 466.77 704.883 466.539C696.636 465.786 688.39 465.207 680.2 464.132C672.008 463.06 663.348 461.432 654.917 460.135C647.138 458.928 639.302 458.047 631.564 456.673C622.034 454.874 612.71 452.131 603.734 448.484C601.715 447.768 600.044 446.331 599.046 444.455C591.15 429.738 583.021 415.15 575.268 400.343C566.542 383.705 558.056 366.915 549.568 350.126C543.169 337.477 536.728 324.845 530.7 312.04C522.125 293.625 513.768 275.233 505.473 256.676C502.741 250.523 499.388 244.607 498.684 237.89C493.306 235.748 485.242 237.768 481.951 242.015C486.083 244.653 491.84 243.909 496.097 248.439C494.874 249.057 493.56 249.488 492.202 249.716C489.941 249.667 487.691 249.368 485.493 248.825C480.332 247.537 475.316 245.523 470.075 244.533C461.187 242.77 452.208 241.435 443.263 239.972C434.03 238.538 424.683 237.958 415.348 238.238C405.097 238.423 394.783 238.164 384.552 238.591C350.936 240.272 319.662 250.292 289.773 265.005C280.041 269.955 270.751 275.707 262.003 282.202C256.708 285.821 252.451 290.734 249.642 296.462C241.724 313.348 238.698 331.361 237.578 349.738C236.999 359.482 236.417 369.268 235.738 378.934C235.06 388.601 234.284 398.147 233.503 407.737C233.075 411.666 232.644 415.615 232.368 419.559C231.772 421.175 231.508 422.784 232.897 424.03ZM739.947 475.062C736.183 476.354 732.502 477.893 728.666 478.826C723.802 480.189 718.82 481.104 713.785 481.56C704.021 482.125 694.384 480.346 684.731 479.111C675.076 477.876 665.96 476.57 656.582 475.233C651.94 474.677 647.238 474.845 642.653 475.735C631.803 477.557 621.723 481.868 611.23 484.885C604.977 486.69 598.795 488.871 592.45 490.337C583.902 492.325 575.173 493.551 566.605 495.535C555.878 497.668 544.948 498.663 533.999 498.506C517.691 498.726 501.495 497.297 485.245 496.385C476.197 495.872 467.138 495.86 458.065 495.584C447.925 495.17 437.783 494.973 427.711 493.91C418.849 492.938 410.075 491.121 401.287 489.459C391.321 487.591 381.518 484.959 371.963 481.586C355.604 475.792 339.26 470.043 322.764 464.694C301.709 457.853 280.574 451.267 259.363 444.934C243.018 440.015 226.606 435.307 210.06 431.021C203.857 429.425 197.468 428.655 191.064 428.74C175.926 429.08 161.044 432.598 147.405 439.057C139.321 442.818 131.479 447.061 123.922 451.769C118.034 455.387 112.505 459.547 107.409 464.195C95.7836 475.031 87.7616 489.105 84.4006 504.563C81.6881 515.458 83.353 526.984 89.0459 536.721C93.8412 544.683 99.9709 551.78 107.172 557.714C107.647 558.087 108.149 558.427 108.674 558.729C107.369 556.271 105.799 553.961 103.991 551.837C98.5187 545.31 94.2005 537.916 91.2187 529.969C87.308 518.424 87.4331 507.146 93.6521 496.319C97.9669 489.179 103.865 483.109 110.902 478.555C123.625 469.884 137.99 464.996 152.857 461.586C172.72 456.927 193.042 454.406 213.468 454.067C222.118 453.97 230.779 454.178 239.448 454.301C244.524 454.375 249.616 454.281 254.641 454.788C263.28 455.39 271.869 456.545 280.361 458.247C289.665 460.448 298.67 463.993 307.746 467.064C326.457 473.377 345.177 479.627 363.796 486.171C378.989 491.6 394.626 495.715 410.534 498.467C430.323 501.486 450.298 503.146 470.312 503.439C482.975 503.824 495.641 504.386 508.29 504.683C517.346 504.914 526.462 505.413 535.479 504.785C557.053 503.311 578.473 500.77 599.282 494.537C607.323 492.122 615.427 489.955 623.445 487.537C627.514 486.302 631.444 484.506 635.541 483.405C648.932 479.744 662.513 481.235 676.054 482.681C680.554 483.174 684.991 484.206 689.493 484.657C693.996 485.108 698.552 485.062 703.055 485.515C708.501 486.023 713.981 485.952 719.408 485.301C727.52 484.466 733.87 480.337 739.892 475.364L739.947 475.062Z" fill="#0BCE0D"/>
<path d="M475.61 239.178C477.774 235.078 481.236 231.792 485.467 229.821C491.284 227.14 497.17 226.869 502.584 230.696C504.415 232.009 505.875 233.764 506.825 235.792C511.703 246.353 516.559 256.933 521.019 267.708C528.179 285.116 537.882 301.295 545.809 318.35C557.07 342.607 568.421 366.81 579.87 390.956C586.428 404.78 592.641 418.917 600.873 431.942C603.129 435.376 605.595 438.666 608.262 441.797C609.388 443.077 610.785 444.095 612.356 444.78C624.375 450.272 637.318 451.321 650.22 452.128C656.804 452.544 663.266 451.66 669.807 451.657C682.331 451.677 694.857 451.7 707.318 452.128C715.57 452.424 723.819 453.374 732.034 454.232C735.208 454.674 738.347 455.333 741.429 456.203C742.715 456.565 743.959 457.066 745.133 457.702C751.831 461.124 753.172 466.861 748.558 472.69C744.711 477.608 739.739 481.555 734.044 484.201C721.911 489.644 709.257 493.89 696.271 496.87C683.468 500.006 670.757 503.502 658.139 507.357C638.838 513.439 619.051 517.922 598.986 520.759C585.63 522.478 572.171 523.32 558.695 523.28C546.582 523.325 534.486 522.41 522.336 521.971C503.805 521.292 485.33 519.918 466.822 518.409C439.73 516.413 412.516 519.456 386.588 527.377C369.083 532.487 351.51 537.414 334.067 542.969C325.85 545.581 317.903 549.362 310.064 552.761C299.702 557.212 289.454 562.028 278.995 566.339C253.534 576.952 227.015 583.673 199.053 583.77C184.374 584.115 169.688 583.197 155.162 581.024C146.487 579.524 137.723 578.846 129.208 575.88C101.935 566.222 83.7576 548.13 77.2991 519.835C75.5492 512.473 75.4851 504.822 77.1121 497.443C78.7391 490.063 82.016 483.143 86.7023 477.186C91.2951 471.138 95.7243 464.768 100.672 458.911C110.551 446.97 122.844 437.198 136.768 430.223C149.724 423.639 163.887 419.684 178.428 418.592C187.725 417.714 197.091 417.762 206.385 418.737C209.551 419.085 212.665 419.907 215.812 420.428C217.275 420.588 218.694 420.745 220.528 420.944C220.92 419.81 221.217 418.643 221.416 417.46C222.131 407.471 222.757 397.471 223.428 387.477C223.715 384.842 223.847 382.213 223.958 379.584C224.18 374.301 224.226 369.02 224.556 363.77C225.301 352.082 225.173 340.294 227.756 328.763C228.12 326.95 228.321 325.108 228.357 323.26C228.739 314.084 232.012 305.752 235.927 297.62C236.312 296.781 236.771 295.975 237.292 295.213C244.786 285.122 253.905 276.317 264.287 269.151C284.401 255.199 306.776 244.731 330.46 238.198C347.021 233.585 363.965 230.417 381.096 228.733C396.919 227.344 412.858 227.877 428.561 230.32C433.973 231.154 439.437 231.907 444.809 232.279C454.147 232.89 463.343 234.88 472.094 238.18C473.18 238.562 474.216 238.785 475.61 239.178ZM232.897 424.03C234.612 424.72 236.289 425.538 238.065 426.06C251.17 430.032 264.29 433.984 277.429 437.919L279.357 438.261C277.977 437.198 276.391 436.422 274.7 435.98C264.883 433.003 255.114 430.006 245.262 427.135C241.193 425.946 237.024 425.073 232.916 424.053C232.113 418.854 232.569 417.922 237.329 415.8C239.4 414.848 241.495 414.075 243.546 413.1C275.274 399.248 308.55 389.128 342.687 382.949C368.63 378.085 394.86 374.808 421.224 373.14C443.848 371.538 466.559 371.392 489.214 372.701C506.693 373.502 524.067 375.9 541.11 379.864C548.92 381.626 556.551 384.11 563.899 387.28C566.511 388.39 568.644 390.38 569.913 392.898C573.411 399.724 577.118 406.465 580.754 413.243L597.092 443.713C597.683 444.805 598.801 445.889 597.463 447.816C594.6 446.935 591.549 446.12 588.592 445.073C573.326 439.81 557.537 436.171 541.498 434.224C525.647 432.091 509.642 430.725 493.671 429.693C481.05 428.894 468.347 429.094 455.676 428.991C448.076 428.743 440.472 428.894 432.89 429.439C418.821 430.819 404.826 432.909 390.808 434.6L322.191 443.422C321.43 443.514 320.683 443.673 319.941 443.787L319.85 444.609C330.095 445.883 340.209 448.033 350.084 451.03C343.873 450.654 337.703 449.889 331.512 449.319C325.322 448.746 319.035 448.449 312.761 447.828C306.488 447.203 300.828 445.205 294.598 446.006C295.875 446.947 297.281 447.702 298.772 448.256C310.671 452.972 322.83 457.012 335.191 460.36C352.14 464.6 368.96 469.396 385.807 473.976C391.86 475.604 397.851 477.594 404.013 478.64C413.99 480.348 424.064 481.586 434.13 482.69C441.29 483.476 448.49 483.918 455.678 484.469C461.549 484.916 467.372 485.227 473.226 485.652C487.62 486.753 502.02 486.63 516.425 486.422C538.98 486.145 561.472 484.141 583.699 480.423C591.293 479.071 598.763 477.029 606.231 475.011C613.058 473.183 619.682 470.788 626.491 468.937C638.142 465.849 650.064 467.158 661.954 467.939C665.005 468.122 668.033 468.715 671.079 469.159C675.037 469.747 678.949 470.525 682.929 470.919C691.139 471.82 699.388 472.553 707.646 473.023C715.353 473.454 723.043 473.645 730.831 473.559C734.153 473.342 737.437 472.764 740.631 471.84C742.04 471.449 743.343 470.756 744.452 469.812C747.7 467.178 747.506 464.098 743.748 462.31C740.748 460.867 737.549 459.884 734.255 459.39C722.507 457.62 710.642 456.753 698.763 456.801C693.431 456.873 688.09 457.007 682.767 457.012C679.299 457.001 675.826 456.816 672.348 456.719C679.117 458.467 685.94 459.718 692.735 461.033C699.009 462.245 705.279 463.525 711.543 464.822C712.844 465.19 714.115 465.644 715.35 466.18L715.133 466.964C714.247 466.998 713.351 467.098 712.473 467.044C709.947 466.918 707.397 466.77 704.883 466.539C696.636 465.786 688.39 465.207 680.2 464.132C672.008 463.06 663.348 461.432 654.917 460.135C647.138 458.928 639.302 458.047 631.564 456.673C622.034 454.874 612.71 452.131 603.734 448.484C601.715 447.768 600.044 446.331 599.046 444.455C591.15 429.738 583.021 415.15 575.268 400.343C566.542 383.705 558.056 366.915 549.568 350.126C543.169 337.477 536.728 324.845 530.7 312.04C522.125 293.625 513.768 275.233 505.473 256.676C502.741 250.523 499.388 244.607 498.684 237.89C493.306 235.748 485.242 237.768 481.951 242.015C486.083 244.653 491.84 243.909 496.097 248.439C494.874 249.057 493.56 249.488 492.202 249.716C489.941 249.667 487.691 249.368 485.493 248.825C480.332 247.537 475.316 245.523 470.075 244.533C461.187 242.77 452.208 241.435 443.263 239.972C434.03 238.538 424.683 237.958 415.348 238.238C405.097 238.423 394.783 238.164 384.552 238.591C350.936 240.272 319.662 250.292 289.773 265.005C280.041 269.955 270.751 275.707 262.003 282.202C256.708 285.821 252.451 290.734 249.642 296.462C241.724 313.348 238.698 331.361 237.578 349.738C236.999 359.482 236.417 369.268 235.738 378.934C235.06 388.601 234.284 398.147 233.503 407.737C233.075 411.666 232.644 415.615 232.368 419.559C231.772 421.175 231.508 422.784 232.897 424.03ZM739.947 475.062C736.183 476.354 732.502 477.893 728.666 478.826C723.802 480.189 718.82 481.104 713.785 481.56C704.021 482.125 694.384 480.346 684.731 479.111C675.076 477.876 665.96 476.57 656.582 475.233C651.94 474.677 647.238 474.845 642.653 475.735C631.803 477.557 621.723 481.868 611.23 484.885C604.977 486.69 598.795 488.871 592.45 490.337C583.902 492.325 575.173 493.551 566.605 495.535C555.878 497.668 544.948 498.663 533.999 498.506C517.691 498.726 501.495 497.297 485.245 496.385C476.197 495.872 467.138 495.86 458.065 495.584C447.925 495.17 437.783 494.973 427.711 493.91C418.849 492.938 410.075 491.121 401.287 489.459C391.321 487.591 381.518 484.959 371.963 481.586C355.604 475.792 339.26 470.043 322.764 464.694C301.709 457.853 280.574 451.267 259.363 444.934C243.018 440.015 226.606 435.307 210.06 431.021C203.857 429.425 197.468 428.655 191.064 428.74C175.926 429.08 161.044 432.598 147.405 439.057C139.321 442.818 131.479 447.061 123.922 451.769C118.034 455.387 112.505 459.547 107.409 464.195C95.7836 475.031 87.7616 489.105 84.4006 504.563C81.6881 515.458 83.353 526.984 89.0459 536.721C93.8412 544.683 99.9709 551.78 107.172 557.714C107.647 558.087 108.149 558.427 108.674 558.729C107.369 556.271 105.799 553.961 103.991 551.837C98.5187 545.31 94.2005 537.916 91.2187 529.969C87.308 518.424 87.4331 507.146 93.6521 496.319C97.9669 489.179 103.865 483.109 110.902 478.555C123.625 469.884 137.99 464.996 152.857 461.586C172.72 456.927 193.042 454.406 213.468 454.067C222.118 453.97 230.779 454.178 239.448 454.301C244.524 454.375 249.616 454.281 254.641 454.788C263.28 455.39 271.869 456.545 280.361 458.247C289.665 460.448 298.67 463.993 307.746 467.064C326.457 473.377 345.177 479.627 363.796 486.171C378.989 491.6 394.626 495.715 410.534 498.467C430.323 501.486 450.298 503.146 470.312 503.439C482.975 503.824 495.641 504.386 508.29 504.683C517.346 504.914 526.462 505.413 535.479 504.785C557.053 503.311 578.473 500.77 599.282 494.537C607.323 492.122 615.427 489.955 623.445 487.537C627.514 486.302 631.444 484.506 635.541 483.405C648.932 479.744 662.513 481.235 676.054 482.681C680.554 483.174 684.991 484.206 689.493 484.657C693.996 485.108 698.552 485.062 703.055 485.515C708.501 486.023 713.981 485.952 719.408 485.301C727.52 484.466 733.87 480.337 739.892 475.364L739.947 475.062Z" fill="url(#paint0_linear_1122_413)" fill-opacity="0.75"/>
<path d="M324.638 282.55C323.7 281.834 322.131 281.227 321.835 280.277C321.541 279.328 322.405 277.894 323.129 276.924C323.871 276.166 324.755 275.558 325.733 275.136C335.017 269.67 345.043 265.535 355.51 262.855C361.815 261.364 368.25 259.887 374.615 258.663C375.924 258.438 377.261 258.424 378.575 258.618C378.881 258.698 379.166 258.852 379.399 259.063C379.633 259.277 379.813 259.539 379.921 259.835C379.918 260.203 379.83 260.565 379.665 260.896C379.496 261.227 379.257 261.515 378.963 261.74C377.489 262.387 375.955 262.892 374.381 263.246C367.823 265.014 361.262 266.77 354.695 268.509C350.281 269.67 346.263 271.974 343.049 275.179C340.095 278.045 336.38 280.021 332.331 280.882C329.941 281.515 327.483 281.965 324.638 282.55Z" fill="#0BCE0D"/>
<path d="M527.717 323.688C524.934 323.631 522.265 322.559 520.223 320.679C517.426 318.652 514.797 316.405 512.362 313.964C503.922 305.336 496.571 295.726 490.472 285.35C489.744 284.247 489.183 283.043 488.806 281.783C488.709 281.358 488.709 280.916 488.809 280.491C488.909 280.066 489.106 279.673 489.382 279.334C489.747 279.083 490.166 278.923 490.608 278.869C491.048 278.815 491.495 278.869 491.914 279.023C492.981 279.533 493.913 280.286 494.635 281.221C497.229 284.563 499.605 288.122 502.365 291.375C508.381 298.586 514.589 305.689 520.654 312.886C522.764 315.413 524.752 318.053 526.713 320.736C527.152 321.683 527.492 322.673 527.717 323.688Z" fill="#0BCE0D"/>
<path d="M198.651 432.327C199.919 432.356 201.183 432.496 202.428 432.741C218.149 437.161 233.868 441.612 249.582 446.088C250.315 446.294 250.979 446.684 251.515 447.218C232.978 445.575 215.718 439.333 198.229 433.961L198.651 432.327Z" fill="#0BCE0D"/>
<defs>
<linearGradient id="paint0_linear_1122_413" x1="413.606" y1="227.812" x2="413.606" y2="583.841" gradientUnits="userSpaceOnUse">
<stop stop-color="#4FEA0D"/>
<stop offset="1" stop-color="#17690D"/>
</linearGradient>
</defs>
</svg>
