<svg xmlns="http://www.w3.org/2000/svg" viewBox="0 0 1162.21 1162.21" xmlns:v="https://vecta.io/nano"><circle cx="581.11" cy="581.11" r="581.11"/><path d="M580 734.43h466.43c16.72 0 26.56 16.77 17.19 31.18-2.31 3.55-10.25 4.68-15.59 4.74H818.25q-352.22.09-704.45.24c-6 0-16.59-1.13-17.13-3.5-2-9-1.06-18.79-.47-28.22.12-1.42 4.09-3.14 6.52-3.67 3.08-.66 6.34-.3 9.54-.3h467.8v-.47zm-.07 69.57q233.87 0 467.8-.23c12.39 0 18.55 2.31 17.9 16.3-.83 18-.71 18.85-18.14 18.85q-359.7-.27-719.45-.59c-72-.06-144 .47-216.08.41-5.52 0-15.18-1.54-15.71-4-1.9-8.6-1.48-18.08-.06-26.85.29-1.9 8.65-3.56 13.28-3.56l127.22.18q171.62.09 343.3 0V804zm343.3-268.58c.77 1.77 1.13 2.25 1.07 2.66-3.14 29.29-3.14 29.23-32.72 29.23q-318.62-.09-637.29-.12c-23.95 0-28.16-5.16-25.07-31.77zM566.89 318.5l.24 166.82c.11 12.81-3.56 17.37-17 17.37-103-.41-206.06-.06-309.1 0-14.4 0-22.76-14.29-14.82-26.62 2-3 8.54-4.21 13.05-4.21q64.9-.44 129.88-.11l154.49 1.3c10.61.18 12.21-4.39 12.16-13v-90.29l-.12-217.45c0-5 1.3-13.63 3.79-14.34 7.53-2.08 16.13-2.08 24-.83 1.84.29 3.44 8.59 3.5 13.16l.18 168.24zM246 601.34h659.4c-2.37 25.55-9 31.83-32.66 31.89l-591 .36c-26.5 0-30.11-3.09-35.74-32.25zM589.89 318.8q0-83.42-.06-166.82c0-9.25-.83-17.19 12.81-16.6 18.67.71 20.15 1 20.21 17q.72 149.75 1.25 299.44c.06 21.4 0 20.92 21 20.81l269.38-1.31c11.56-.12 13.63 5.16 13.69 14.94s-.89 16.72-13.45 16.6c-34.62-.24-69.25.47-103.93.47-68.35 0-136.76-.41-205.11-.06-11.38.06-14.88-3.67-14.82-14.88l.18-169.54zM873.32 668c-8.66 22.05-20.51 32.13-45.23 32q-251.48-1.86-503 .06c-25 .18-38.06-8.77-46.3-32zM510.75 291.11l.29 131.19c.24 13.76-4 18.2-17.84 18.14l-250.11-.59c-6.34 0-15.77 3.5-15.65-9.07.12-17.13 4.09-22.94 17.49-22.94q105.9-.09 211.81.24c19.57.06 19.86.41 19.86-18.91q.36-110 .36-220c.06-20.93.18-20.39 19.5-25.55 10.79-2.91 13.81.41 13.75 10.85l.66 127.1v9.54zm136.47-.47l.29-131.25c.06-6.17-6-17.37 7.71-17.43 20.27-.12 25 4 25.08 19.44q.16 104.58.17 209.21c0 37.82-.06 37.47 37.65 37.35h188.69c13.16 0 23 14.23 18 26.91-1 2.61-6.16 4.75-9.54 5-10 .65-20 .3-30.06.3-74.28.06-148.56-.06-222.84.41-11.14.06-15.11-3-15-14.58l.24-135.34zm50.5-135.16c28.1 4.2 29.29 5.75 29.23 32.19l-.12 143.52c-.12 13.34 3.56 18.26 17.79 18l142.16-1c12.21-.23 18.43 3.86 21.46 15.48 2.43 9.36.88 13.81-9.67 13.63l-65.62-.24L711.3 377c-9.13 0-14.41-1.77-14.41-12.74l-.17-201a58.63 58.63 0 0 1 1-7.78zm-239.72.83a60.44 60.44 0 0 1 1 7.88l-.18 195.33c.06 13.05-4.51 17.37-17.37 17.32-61-.36-122.06.11-183.07-.24-4.62 0-13.33-5-13.1-6.05 2-8.18.36-19.62 12.57-21.46 6.7-1 13.64-.35 20.45-.35l136.65.11c10.91.12 14.23-3.38 14.11-14.05l-.18-148.91c-.06-25.61 1.3-27.04 29.12-29.58zm435.3 173.04c-5 .24-9.9.71-14.77.71-38.77 0-77.54-.47-116.25.06-11.68.18-15.89-2.84-15.83-15.23l-1-127.16c-.06-3.56.35-7.18.47-10.79 23.65 2.72 35.33 15.53 35.1 37.28-.24 24.19.47 48.38-.48 72.51-.47 12.62 4.39 15.47 16 15 21.87-.88 43.75-.47 65.62-.59 21.24-.07 26.99 4.91 31.14 28.21zm-630.47.36c6.05-24.25 11-28.46 31.48-28.4l72.44.41c10.73.3 14.53-3.55 14.17-14.22-.71-23.24-.36-46.48-.71-69.72-.42-29.11.71-30.88 30.47-42.74.47 4.15 1.3 7.88 1.3 11.68l.12 125.79c.18 12.75-3.44 17.67-16.89 17.49l-132.38-.29zM288 279.38c19.56-28.76 45.23-51.52 74.93-75.71l-.36 72.33c-.06 2.55-4.92 7.11-7.64 7.17-21.64.59-43.28.36-64.86.36zM870.35 284c-22.17 0-42.56.47-62.89-.47-3.26-.18-8.78-6.64-9-10.38-.89-20.45-.41-40.9-.41-61.47 17.47 2.54 62.34 46.77 72.3 72.32z" fill="#fff"/></svg>