<?xml version="1.0" encoding="UTF-8"?><svg id="Layer_2" xmlns="http://www.w3.org/2000/svg" viewBox="0 0 65.39 65.39"><defs><style>.cls-1{fill:#fff;}.cls-2{fill:#231f20;}</style></defs><g id="Layer_1-2"><circle class="cls-2" cx="32.69" cy="32.69" r="32.69"/><path class="cls-1" d="m32.69,3.94c-5.2,0-10.3,1.4-14.74,4.06C9.31,13.17,3.94,22.63,3.94,32.69c0,15.86,12.9,28.76,28.76,28.76s28.76-12.9,28.76-28.76S48.55,3.94,32.69,3.94Zm1.7,35.56h17c3.2,0,5.89-2.23,6.61-5.21-.28,4.41-1.68,8.51-3.93,12.03h-19.68v-6.82Zm-3.4,6.82h-14.73c-1.88,0-3.41-1.53-3.41-3.41s1.53-3.41,3.41-3.41h14.73v6.82Zm3.4-27.24h19.68c2.25,3.52,3.65,7.62,3.93,12.03-.72-2.98-3.41-5.21-6.61-5.21h-17v-6.82Zm-3.4,6.82h-14.73c-1.88,0-3.41-1.53-3.41-3.41s1.53-3.41,3.41-3.41h14.73v6.82Zm20.39,3.4c1.88,0,3.41,1.53,3.41,3.41s-1.53,3.41-3.41,3.41h-17v-6.82h17Zm.09-13.61h-17.09V7.4c6.76.45,12.8,3.55,17.09,8.28Zm-31.78-4.76c3.43-2.05,7.31-3.26,11.3-3.52v8.28h-14.73c-1.05,0-2.05.25-2.94.68,1.79-2.13,3.93-3.98,6.37-5.44Zm-10.23,11.66c.05,3.71,3.08,6.71,6.8,6.71h14.73v6.82h-14.73c-3.73,0-6.77,3.02-6.8,6.74-1.36-3.11-2.13-6.54-2.13-10.15s.75-6.97,2.13-10.12Zm3.86,26.46c.89.43,1.89.68,2.94.68h14.73v8.28c-7.07-.47-13.36-3.85-17.67-8.96Zm21.07,8.96v-8.28h17.09c-4.29,4.73-10.33,7.83-17.09,8.28Z"/></g></svg>