<?xml version="1.0" encoding="UTF-8"?>
<svg width="1942px" height="1942px" viewBox="0 0 1942 1942" xmlns="http://www.w3.org/2000/svg" xmlns:xlink="http://www.w3.org/1999/xlink" version="1.1">
 <!-- Generated by Pixelmator Pro 2.0.8 -->
 <path id="Path" d="M946.041 1.525 C921.813 4.704 896.681 3.619 872.262 5.981 819.42 11.091 766.356 20.611 715.184 34.827 476.191 101.225 269.951 255.565 140.196 467.243 81.674 562.711 40.528 669.119 18.566 778.85 -59.122 1167.004 111.416 1576.613 447.437 1789.731 539.283 1847.985 640.261 1890.908 746.124 1916.003 861.493 1943.334 982.193 1948.793 1099.55 1933.367 1305.37 1906.322 1497.184 1811.555 1646.943 1668.43 1842.185 1481.834 1952.639 1206.704 1940.823 937.033 1934.813 799.756 1901.755 666.042 1841.792 542.171 1725.483 301.901 1504.431 118.236 1249.488 41.792 1177.553 20.223 1104.072 8.409 1029.34 3.294 1002.423 1.45 972.947 -2.005 946.041 1.525 Z" fill="#ee5fa7" fill-opacity="1" stroke="none"/>
 <path id="Path-1" d="M1193.559 314.323 C1151.838 320 1126.931 345.915 1098.36 374.474 L1021.011 451.781 644.975 827.613 C597.791 874.771 533.613 921.417 548.353 996.5 550.476 1007.323 554.355 1017.753 559.667 1027.422 586.266 1075.829 648.175 1096.012 698.524 1074.485 721.189 1064.803 734.971 1045.512 755.644 1033.203 799.178 1007.299 855.079 1012.746 891.302 1048.831 901.334 1058.821 910.175 1070.227 915.78 1083.322 930.798 1118.371 927.168 1160.236 905.058 1191.552 891.992 1210.07 872.786 1225.519 856.792 1241.504 L713.994 1384.225 C688.693 1409.51 656.569 1434.439 639.393 1466.289 598.562 1542.015 657.345 1632.916 742.554 1629.182 783.269 1627.397 810.678 1600.388 837.753 1573.33 L912.722 1498.402 1295.897 1115.434 C1341.867 1069.49 1405.388 1023.295 1393.131 950.115 1391.442 939.994 1388.217 929.575 1383.635 920.382 1358.681 870.37 1296.695 846.357 1244.728 867.397 1220.595 877.173 1205.78 897.38 1184.039 910.332 1139.01 937.151 1083.735 928.529 1047.19 891.838 1036.278 880.884 1028.174 868.253 1022.712 853.779 1009.718 819.37 1015.275 780.22 1036.528 750.306 1049.392 732.201 1067.242 717.189 1082.89 701.543 L1230.448 554.065 C1255.129 529.395 1287.496 505.055 1302.906 473.189 1339.058 398.449 1280.392 302.511 1193.559 314.323 Z" fill="#ffffff" fill-opacity="1" stroke="none"/>
</svg>
