<svg width="126" height="126" viewBox="0 0 126 126" fill="none" xmlns="http://www.w3.org/2000/svg">
<path d="M63 124.5C96.9655 124.5 124.5 96.9655 124.5 63C124.5 29.0345 96.9655 1.5 63 1.5C29.0345 1.5 1.5 29.0345 1.5 63C1.5 96.9655 29.0345 124.5 63 124.5Z" fill="white" stroke="url(#paint0_linear_1556_1011)" stroke-width="3"/>
<circle cx="63.2933" cy="63.2933" r="50.6456" fill="#F8F5FF" stroke="#D4C6F5" stroke-width="3"/>
<path d="M84.3588 55.9057C85.3064 49.7385 80.4647 46.4157 73.8448 44.2132L75.9866 35.856L70.7945 34.5974L68.7046 42.7406C67.3287 42.4008 65.9139 42.0861 64.499 41.7715L66.6148 33.5905L61.4227 32.3319L59.268 40.6891C58.1257 40.4374 57.0094 40.1856 55.9191 39.9213L48.6891 38.1719L47.2872 43.5965C47.2872 43.5965 51.1813 44.4649 51.1034 44.5152C51.8284 44.6006 52.49 44.9581 52.9462 45.5111C53.4025 46.0641 53.617 46.7684 53.5437 47.473L51.0904 57.0258L47.6637 70.3545C47.5939 70.593 47.4755 70.8156 47.3153 71.0088C47.1552 71.2021 46.9566 71.3622 46.7314 71.4796C46.5062 71.597 46.2589 71.6693 46.0043 71.6923C45.7497 71.7152 45.493 71.6883 45.2493 71.6131C45.2493 71.6886 41.4461 70.6943 41.4461 70.6943L38.8501 76.5217L45.6777 78.1704C46.9757 78.4725 48.1958 78.7998 49.416 79.1018L47.2483 87.5471L52.4404 88.8057L54.5042 80.3604C55.9321 80.738 57.321 81.0778 58.6839 81.4051L56.5421 89.7371L61.7342 90.9957L63.9019 82.563C72.8453 84.2118 79.5691 83.5447 82.3988 75.7036C84.6833 69.4105 82.282 65.748 77.5831 63.3692C81.0099 62.6015 83.593 60.4115 84.2809 55.9057H84.3588ZM72.378 72.192C70.7555 78.4851 59.7872 75.0994 56.2306 74.2436L59.1122 63.042C62.6688 63.9104 74.0655 65.5592 72.378 72.192ZM73.9876 55.8301C72.5078 61.582 63.3827 58.662 60.4232 57.9446L63.0193 47.8002C66.0307 48.4799 75.5582 49.814 73.9746 55.805L73.9876 55.8301Z" fill="#EF8E19"/>
<defs>
<linearGradient id="paint0_linear_1556_1011" x1="63" y1="3" x2="63" y2="123" gradientUnits="userSpaceOnUse">
<stop stop-color="#6960EC"/>
<stop offset="1" stop-color="#A988FF"/>
</linearGradient>
</defs>
</svg>
