<?xml version="1.0" encoding="utf-8"?>
<!-- Generator: Adobe Illustrator 27.7.0, SVG Export Plug-In . SVG Version: 6.00 Build 0)  -->
<svg version="1.1" id="Layer_1" xmlns="http://www.w3.org/2000/svg" xmlns:xlink="http://www.w3.org/1999/xlink" x="0px" y="0px"
	 viewBox="0 0 1000 1000" style="enable-background:new 0 0 1000 1000;" xml:space="preserve">
<style type="text/css">
	.st0{fill:url(#SVGID_1_);}
	.st1{fill:#FFFFFF;}
</style>
<g id="TST">
	<g>
		<linearGradient id="SVGID_1_" gradientUnits="userSpaceOnUse" x1="500.5" y1="940.2321" x2="500.5" y2="60.7679">
			<stop  offset="0" style="stop-color:#1B1919"/>
			<stop  offset="1" style="stop-color:#38383A"/>
		</linearGradient>
		<circle class="st0" cx="500.5" cy="500.5" r="439.7"/>
		<g>
			<path d="M500.5,71c58,0,114.3,11.3,167.2,33.7c51.1,21.6,97.1,52.6,136.5,92.1c39.5,39.5,70.4,85.4,92.1,136.5
				c22.4,52.9,33.7,109.2,33.7,167.2c0,58-11.3,114.3-33.7,167.2c-21.6,51.1-52.6,97.1-92.1,136.5c-39.5,39.5-85.4,70.4-136.5,92.1
				C614.8,918.7,558.5,930,500.5,930s-114.3-11.3-167.2-33.7c-51.1-21.6-97.1-52.6-136.5-92.1c-39.5-39.5-70.4-85.4-92.1-136.5
				C82.3,614.8,71,558.5,71,500.5c0-58,11.3-114.3,33.7-167.2c21.6-51.1,52.6-97.1,92.1-136.5c39.5-39.5,85.4-70.4,136.5-92.1
				C386.2,82.3,442.5,71,500.5,71 M500.5,8C228.5,8,8,228.5,8,500.5S228.5,993,500.5,993S993,772.5,993,500.5S772.5,8,500.5,8
				L500.5,8z"/>
		</g>
	</g>
	<g>
		<rect x="451.3" y="352.2" class="st1" width="98.5" height="297.3"/>
		<g>
			<g>
				<path class="st1" d="M583.9,823h-365v-98.2h365c51.7,0,95.5-31.4,95.5-68.6V511h98.2v145.3C777.5,748.2,690.6,823,583.9,823z"/>
			</g>
		</g>
		<g>
			<g>
				<path class="st1" d="M314.8,508.5h-98.2V368.9c0-106.8,86.9-193.6,193.6-193.6h368.2v98.2H410.2c-52.6,0-95.5,42.8-95.5,95.5
					V508.5z"/>
			</g>
		</g>
	</g>
</g>
</svg>
