<?xml version="1.0" encoding="utf-8"?>
<!-- Generator: Adobe Illustrator 26.1.0, SVG Export Plug-In . SVG Version: 6.00 Build 0)  -->
<svg version="1.1" id="Layer_1" xmlns="http://www.w3.org/2000/svg" xmlns:xlink="http://www.w3.org/1999/xlink" x="0px" y="0px"
	 viewBox="0 0 200 200" style="enable-background:new 0 0 200 200;" xml:space="preserve">
<style type="text/css">
	.st0{fill:#10101E;}
	.st1{fill:#FFFFFF;}
</style>
<rect x="0" y="0" class="st0" width="200" height="200"/>
<g>
	<g>
		<g>
			<g>
				<rect x="23.96" y="102.82" class="st1" width="151.93" height="13"/>
			</g>
		</g>
	</g>
	<path class="st1" d="M174.28,126.55c0,0-92.28,0.02-94.81,0.02c-1.1,0-1.06,4.11-1.08,4.54c-0.12,2.77-0.19,2.38-0.41,3.4
		c-0.21,1.02-2.13,5.7-7.21,5.7s-6.22-4.64-6.54-5.63c-0.32-0.99-0.32-2.24-0.46-3.28c-0.13-0.96-0.56-2.39-1.45-3.28
		c-0.21-0.23-0.46-0.43-0.72-0.6c-0.13-0.1-0.26-0.18-0.41-0.25c-0.16-0.1-0.33-0.18-0.49-0.23c-0.13-0.07-0.26-0.11-0.39-0.15
		c-0.11-0.05-0.25-0.08-0.38-0.1c-0.03-0.02-0.08-0.03-0.13-0.03c-0.15-0.03-0.29-0.05-0.46-0.07c-0.07-0.01-0.14-0.01-0.21-0.01
		h0.1c-0.09-0.01-0.18-0.01-0.26-0.01c-0.04,0-0.08-0.01-0.12-0.01c-0.03,0-0.06,0.01-0.1,0.01c-0.1,0-0.2,0-0.3,0.01h0.11
		c-0.07,0-0.15,0-0.22,0.01c-0.11,0-0.23,0.02-0.34,0.05c-0.13,0.02-0.25,0.05-0.36,0.08c-0.41,0.1-0.78,0.24-1.13,0.44
		c-0.11,0.07-0.23,0.13-0.34,0.21c-0.1,0.05-0.18,0.11-0.26,0.18c-0.11,0.08-0.23,0.18-0.33,0.28c-0.23,0.2-0.44,0.43-0.64,0.67
		c-0.07,0.11-0.15,0.23-0.23,0.36c-0.08,0.11-0.16,0.26-0.23,0.39c-0.13,0.26-0.25,0.56-0.34,0.85c-0.03,0.15-0.08,0.29-0.1,0.44
		c-0.02,0.05-0.03,0.11-0.03,0.16c-0.05,0.26-0.07,0.52-0.07,0.78v4.56c0,4.9-4.27,8.86-9.23,8.35c-4.33-0.44-7.5-4.38-7.5-8.76
		v-7.15c0-0.25-0.05-0.47-0.13-0.69c-0.03-0.1-0.08-0.18-0.11-0.26c-0.13-0.23-0.31-0.43-0.51-0.57c-0.07-0.05-0.13-0.1-0.21-0.15
		c-0.03-0.02-0.08-0.05-0.11-0.07c-0.08-0.03-0.15-0.06-0.23-0.08c-0.02-0.02-0.03-0.02-0.05-0.02c-0.1-0.03-0.18-0.07-0.28-0.07
		c-0.02-0.02-0.02-0.02-0.03-0.02c-0.08-0.02-0.18-0.02-0.26-0.02h-9.74c-1.06,0-1.91,0.87-1.91,1.93v9.68
		c0,11.59,9.35,21.03,20.9,21.03H155.3c11.56,0,20.9-9.45,20.9-21.03v-9.68C176.21,127.42,175.34,126.55,174.28,126.55z"/>
	<path class="st1" d="M176.7,86.81c0,2.83-2.4,5.14-5.36,5.14H28.66c-2.95,0-5.36-2.29-5.36-5.11c0-33.47,34.41-60.7,76.71-60.7
		c19.28,0,38.82,6.84,53.62,18.77C168.29,56.72,176.7,72,176.7,86.81z"/>
</g>
</svg>
