<svg width="96" height="96" viewBox="0 0 96 96" fill="none" xmlns="http://www.w3.org/2000/svg">
<g clip-path="url(#clip0_3202_4541)">
<path d="M48 0C21.4903 0 0 21.4903 0 48C0 74.5097 21.4903 96 48 96C74.5097 96 96 74.5097 96 48C96 21.4903 74.5097 0 48 0Z" fill="#050321"/>
<g clip-path="url(#clip1_3202_4541)">
<path d="M47.0703 63.4377L47.6328 63.9991L73.3828 48.7783L47.6328 6.05273L47.0703 7.96444V63.4377Z" fill="#63B1D8"/>
<path d="M47.6329 63.9994V6.05273L21.8828 48.7783L47.6329 63.9994Z" fill="#69E6F6"/>
<path d="M47.3157 89.0215L47.6326 89.9471L73.3981 53.6611L47.6328 68.8743L47.3158 69.2608L47.3157 89.0215Z" fill="#63B1D8"/>
<path d="M21.8828 53.6611L47.6329 89.9472V68.8743L21.8828 53.6611Z" fill="#69E6F6"/>
<path d="M47.6326 37.0742V63.9989L73.3822 48.7782L47.6326 37.0742Z" fill="#025BC2"/>
<path d="M47.6325 37.0742L21.8828 48.7781L47.6325 63.9987V37.0742Z" fill="#63B0D7"/>
</g>
</g>
<defs>
<clipPath id="clip0_3202_4541">
<rect width="96" height="96" fill="white"/>
</clipPath>
<clipPath id="clip1_3202_4541">
<rect width="51.5955" height="84" fill="white" transform="translate(21.8428 6)"/>
</clipPath>
</defs>
</svg>
