<svg width="1024" height="1024" viewBox="0 0 1024 1024" fill="none" xmlns="http://www.w3.org/2000/svg">
<rect width="1024" height="1024" fill="#0C0D0F"/>
<g clip-path="url(#clip0_2_218)">
<path d="M805.216 575.256C805.197 575.719 805.173 576.181 805.148 576.65C805.148 576.769 805.142 576.881 805.13 576.988C805.069 578.244 805.001 579.506 804.909 580.763C804.891 581.081 804.873 581.394 804.848 581.706C804.805 582.481 804.744 583.263 804.683 584.038C804.597 585.319 804.493 586.6 804.37 587.869C804.291 588.875 804.205 589.869 804.101 590.875C804.076 591.113 804.058 591.338 804.033 591.575L803.703 594.7C803.66 595.125 803.604 595.556 803.562 595.988C803.445 596.938 803.335 597.894 803.212 598.844C803.114 599.706 803.004 600.563 802.882 601.425C802.716 602.713 802.538 604.006 802.349 605.294C802.25 605.925 802.165 606.556 802.067 607.181C801.95 607.938 801.834 608.694 801.711 609.45C801.564 610.4 801.405 611.344 801.24 612.288C801.178 612.694 801.111 613.106 801.031 613.513C800.872 614.431 800.707 615.344 800.541 616.263C800.394 617.063 800.247 617.856 800.088 618.656C800.051 618.863 800.02 619.063 799.971 619.269C799.843 619.969 799.702 620.675 799.555 621.369C799.371 622.294 799.181 623.219 798.985 624.138C798.734 625.356 798.464 626.569 798.189 627.788C797.925 628.963 797.656 630.138 797.38 631.313C797.067 632.65 796.743 633.975 796.412 635.3C795.86 637.488 795.285 639.675 794.684 641.856C794.617 642.125 794.537 642.388 794.464 642.656C794.17 643.725 793.863 644.794 793.551 645.856C793.545 645.919 793.526 645.981 793.496 646.044C793.165 647.181 792.834 648.313 792.485 649.444C792.129 650.638 791.762 651.825 791.376 653.013C791.002 654.206 790.616 655.388 790.224 656.569C790.218 656.613 790.206 656.65 790.187 656.688C789.832 657.781 789.464 658.869 789.091 659.95C788.637 661.288 788.165 662.619 787.688 663.944C787.461 664.581 787.228 665.225 786.983 665.863C786.824 666.319 786.658 666.769 786.487 667.225C786.039 668.438 785.58 669.638 785.121 670.838C784.777 671.706 784.44 672.581 784.091 673.45C783.54 674.856 782.964 676.25 782.388 677.65C781.867 678.925 781.322 680.188 780.777 681.45C780.379 682.413 779.956 683.363 779.527 684.313C779.527 684.319 779.521 684.331 779.509 684.35C778.626 686.35 777.082 688 775.159 688.975C744.225 704.669 709.708 714.288 673.022 716.225C636.9 718.138 602.125 712.444 570.187 700.506C570.328 700.381 570.457 700.25 570.598 700.113C565.568 698.406 560.623 696.513 555.753 694.438C550.527 692.206 545.411 689.775 540.406 687.144C525.561 679.35 511.696 669.825 499.088 658.819C501.367 659.575 503.677 660.269 506.005 660.875C506.348 661.019 506.685 661.15 507.034 661.281C527.399 669.175 548.934 674.525 571.278 676.975C577.662 677.675 584.113 678.138 590.619 678.356C597.959 678.594 605.372 678.525 612.847 678.131C691.671 673.95 760.467 634.363 805.197 575.256H805.204H805.216Z" fill="url(#paint0_linear_2_218)"/>
<path d="M806.313 221V504.75C806.313 518.575 802.104 532.05 794.299 543.344C755.474 599.494 691.415 636.169 618.931 636.194C611.971 636.194 605.091 635.856 598.29 635.188C595.392 634.919 592.525 634.575 589.664 634.181C607.217 614.888 617.951 589.069 617.951 560.744V366.9C617.951 366.088 617.957 365.3 617.975 364.488C617.975 364.156 617.981 363.837 617.993 363.519C618 362.725 618.03 361.937 618.061 361.144C618.085 360.431 618.116 359.712 618.159 359.006C618.159 358.944 618.165 358.887 618.165 358.831C618.183 358.494 618.202 358.144 618.226 357.806C618.245 357.35 618.281 356.906 618.312 356.463C618.337 356.056 618.367 355.65 618.398 355.244C618.459 354.362 618.539 353.481 618.624 352.613C618.667 352.144 618.71 351.669 618.765 351.2C618.821 350.731 618.87 350.269 618.925 349.794C619.01 348.994 619.109 348.194 619.219 347.394C619.262 347.012 619.317 346.631 619.378 346.244C619.445 345.712 619.525 345.175 619.605 344.65C619.642 344.381 619.684 344.119 619.727 343.85C619.85 343.05 619.978 342.25 620.119 341.45C620.138 341.363 620.144 341.275 620.162 341.181C620.303 340.362 620.456 339.556 620.609 338.738C620.628 338.675 620.634 338.606 620.652 338.531C620.793 337.813 620.934 337.088 621.087 336.381C621.143 336.125 621.192 335.875 621.247 335.625C621.247 335.606 621.253 335.6 621.253 335.581C621.375 334.994 621.504 334.419 621.639 333.837C621.682 333.662 621.718 333.475 621.761 333.294C621.767 333.294 621.767 333.269 621.767 333.256C621.994 332.269 622.239 331.281 622.484 330.294C622.693 329.494 622.901 328.7 623.121 327.9C623.354 327.019 623.612 326.131 623.863 325.256C624.096 324.444 624.341 323.638 624.586 322.838C624.61 322.769 624.629 322.694 624.653 322.625C624.904 321.813 625.168 321 625.431 320.194C625.474 320.069 625.517 319.944 625.56 319.819C625.823 319.019 626.099 318.219 626.381 317.425C626.669 316.612 626.963 315.806 627.263 314.994L627.318 314.862C627.631 314.006 627.961 313.163 628.292 312.319C628.623 311.481 628.966 310.638 629.315 309.8C630.014 308.125 630.737 306.475 631.496 304.837C631.968 303.812 632.446 302.8 632.942 301.787C633.236 301.181 633.537 300.575 633.849 299.981C634.26 299.181 634.67 298.381 635.087 297.588C635.399 296.994 635.724 296.406 636.049 295.819C637.01 294.037 638.009 292.294 639.063 290.569C640.429 288.275 641.881 286.012 643.394 283.806C643.891 283.069 644.405 282.338 644.92 281.606C645.943 280.156 646.985 278.725 648.075 277.312C648.345 276.956 648.614 276.612 648.884 276.262C649.166 275.906 649.435 275.55 649.711 275.206C649.735 275.169 649.772 275.138 649.797 275.088C650.808 273.825 651.831 272.581 652.872 271.35C653.062 271.125 653.258 270.906 653.454 270.675C653.908 270.144 654.367 269.619 654.833 269.094C655.568 268.269 656.297 267.45 657.051 266.65C657.62 266.038 658.19 265.431 658.766 264.837C659.262 264.312 659.771 263.794 660.285 263.281C660.88 262.675 661.486 262.069 662.099 261.469C662.136 261.444 662.179 261.4 662.221 261.363C662.515 261.075 662.803 260.794 663.104 260.506C663.392 260.219 663.686 259.938 663.992 259.663C664.035 259.625 664.072 259.594 664.115 259.544C664.697 259 665.285 258.456 665.879 257.925C666.584 257.275 667.3 256.644 668.023 256.013C668.66 255.45 669.304 254.9 669.959 254.35C669.984 254.325 670.014 254.306 670.039 254.287C670.413 253.969 670.799 253.65 671.178 253.338C671.473 253.088 671.779 252.838 672.079 252.6C672.759 252.05 673.445 251.506 674.138 250.975C674.174 250.937 674.217 250.912 674.254 250.887C674.848 250.419 675.449 249.956 676.049 249.506C676.962 248.813 677.887 248.125 678.824 247.463C679.321 247.106 679.829 246.75 680.332 246.394C680.473 246.306 680.613 246.206 680.748 246.1C680.852 246.031 680.95 245.969 681.055 245.894C681.569 245.538 682.09 245.181 682.617 244.837C682.696 244.781 682.782 244.731 682.862 244.669C683.566 244.206 684.283 243.738 685 243.281C685.741 242.8 686.489 242.331 687.249 241.869C687.622 241.637 688.008 241.406 688.388 241.175C688.762 240.944 689.136 240.719 689.522 240.5C690.287 240.044 691.059 239.6 691.831 239.162C692.609 238.725 693.381 238.3 694.159 237.881C694.65 237.613 695.133 237.356 695.636 237.1C696.003 236.906 696.371 236.706 696.745 236.519C697.327 236.206 697.915 235.912 698.509 235.619C699.042 235.362 699.575 235.1 700.114 234.844C700.611 234.606 701.119 234.363 701.622 234.131C702.632 233.663 703.643 233.2 704.673 232.75C705.181 232.525 705.696 232.306 706.21 232.094C706.995 231.756 707.779 231.438 708.575 231.113C708.581 231.113 708.594 231.106 708.6 231.106C708.624 231.1 708.661 231.081 708.686 231.069C708.765 231.031 708.851 231.006 708.931 230.969C709.862 230.594 710.799 230.238 711.737 229.881C712.245 229.694 712.747 229.506 713.262 229.319C714.414 228.9 715.584 228.5 716.748 228.119C717.146 227.988 717.545 227.85 717.943 227.725C718.464 227.556 718.99 227.388 719.511 227.225C720.032 227.063 720.559 226.906 721.092 226.756C722.146 226.444 723.199 226.144 724.265 225.856C724.725 225.731 725.197 225.606 725.668 225.481C725.871 225.425 726.067 225.381 726.269 225.331C726.667 225.231 727.071 225.125 727.47 225.031C728.003 224.9 728.542 224.775 729.081 224.65C729.62 224.525 730.159 224.4 730.705 224.288C731.385 224.138 732.065 223.994 732.745 223.85C734.105 223.562 735.465 223.306 736.843 223.075C737.53 222.956 738.222 222.844 738.908 222.737C739.466 222.65 740.017 222.562 740.574 222.481C741.132 222.4 741.683 222.331 742.241 222.25C742.927 222.162 743.638 222.081 744.318 221.994C744.808 221.931 745.292 221.875 745.782 221.825C745.825 221.825 745.88 221.819 745.923 221.806C746.419 221.75 746.916 221.706 747.412 221.656C747.92 221.612 748.417 221.569 748.913 221.525C749.918 221.444 750.916 221.362 751.921 221.3H751.927C753.208 221.212 754.488 221.15 755.781 221.106C756.032 221.1 756.277 221.087 756.522 221.081C757.423 221.056 758.317 221.025 759.224 221.025C759.8 221.006 760.376 221.006 760.952 221.006H806.301L806.313 221Z" fill="url(#paint1_linear_2_218)"/>
<path d="M621.247 757.788C620.94 757.788 620.628 757.794 620.322 757.794H616.591C616.278 757.794 615.966 757.788 615.647 757.788C614.734 757.781 613.827 757.763 612.908 757.731C611.996 757.706 611.089 757.675 610.17 757.644C609.263 757.606 608.356 757.575 607.45 757.519C606.672 757.481 605.906 757.438 605.14 757.394C603.614 757.294 602.107 757.181 600.588 757.056C599.926 757 599.271 756.938 598.615 756.881C592.991 756.363 587.434 755.619 581.957 754.65C581.173 754.525 580.388 754.381 579.61 754.225C578.826 754.094 578.048 753.938 577.264 753.781C553.934 749.163 531.958 740.688 511.997 729.025C434.594 683.794 398.245 590.5 404.402 502.325C405.621 484.9 406.044 467.481 406.044 449.944V366.919C406.044 363.975 405.958 361.056 405.793 358.156C404.727 339.813 400.34 322.388 393.233 306.488C387.658 294.013 380.422 282.488 371.796 272.181C356.676 254.138 337.322 239.9 315.303 231.075C299.122 224.575 281.49 221.006 263.037 221.006H217.688V560.575C217.688 560.85 217.688 561.138 217.694 561.413C217.694 562.363 217.712 563.306 217.718 564.269C217.724 564.863 217.724 565.463 217.737 566.056C217.743 566.794 217.755 567.525 217.773 568.263V568.331C217.816 570.075 217.877 571.813 217.957 573.556C217.957 573.663 217.963 573.781 217.963 573.894C218 574.813 218.043 575.725 218.092 576.65C218.092 576.769 218.098 576.881 218.11 576.988C218.172 578.244 218.239 579.506 218.331 580.763C218.349 581.081 218.368 581.394 218.392 581.706C218.435 582.481 218.496 583.263 218.557 584.038C218.643 585.319 218.747 586.6 218.87 587.869C218.95 588.875 219.035 589.869 219.14 590.875C219.158 591.05 219.176 591.225 219.195 591.4C219.293 592.325 219.385 593.256 219.483 594.188C219.55 594.794 219.611 595.388 219.685 595.994C219.801 596.944 219.911 597.9 220.034 598.85C220.132 599.713 220.242 600.569 220.365 601.431C220.53 602.719 220.708 604.013 220.898 605.3C220.996 605.931 221.082 606.563 221.18 607.188C221.296 607.944 221.412 608.7 221.535 609.456C221.682 610.406 221.841 611.35 222.007 612.294C222.068 612.7 222.135 613.113 222.215 613.519C222.374 614.438 222.54 615.35 222.705 616.269C222.852 617.069 222.999 617.863 223.159 618.663C223.195 618.869 223.226 619.069 223.275 619.275C223.404 619.975 223.545 620.681 223.692 621.375C223.875 622.3 224.065 623.225 224.261 624.144C224.513 625.363 224.782 626.575 225.058 627.794C225.321 628.969 225.591 630.144 225.867 631.319C226.179 632.656 226.504 633.981 226.835 635.306C227.386 637.494 227.962 639.681 228.562 641.863C228.63 642.131 228.709 642.394 228.783 642.663C229.077 643.731 229.383 644.8 229.696 645.863C229.696 645.925 229.72 645.988 229.751 646.05C230.082 647.188 230.412 648.319 230.762 649.45C231.117 650.644 231.485 651.831 231.871 653.019C232.244 654.213 232.63 655.394 233.022 656.575C233.022 656.619 233.041 656.656 233.059 656.694C233.414 657.788 233.782 658.875 234.156 659.956C234.609 661.294 235.081 662.625 235.559 663.95C235.785 664.588 236.018 665.231 236.263 665.869C236.423 666.325 236.588 666.775 236.76 667.231C237.207 668.444 237.666 669.644 238.126 670.844C238.469 671.713 238.806 672.588 239.155 673.456C239.707 674.863 240.282 676.256 240.858 677.656C241.379 678.931 241.924 680.194 242.47 681.456C242.868 682.419 243.291 683.369 243.719 684.319C244.21 685.419 244.694 686.519 245.202 687.619C245.698 688.713 246.207 689.806 246.721 690.9C247.236 691.988 247.757 693.069 248.284 694.15C248.805 695.225 249.331 696.294 249.864 697.363C251.531 700.681 253.246 703.963 255.017 707.213C255.55 708.175 256.083 709.131 256.61 710.088C256.616 710.106 256.628 710.113 256.634 710.125C257.204 711.131 257.774 712.144 258.35 713.144C258.368 713.181 258.393 713.213 258.411 713.25C259.005 714.275 259.6 715.294 260.206 716.313C260.678 717.125 261.168 717.925 261.652 718.725C261.977 719.256 262.295 719.794 262.626 720.325C263.68 722.05 264.752 723.756 265.855 725.456C266.492 726.45 267.148 727.45 267.797 728.438C267.913 728.613 268.024 728.794 268.146 728.963C268.698 729.788 269.243 730.619 269.8 731.438C269.96 731.675 270.125 731.919 270.291 732.156C270.462 732.413 270.646 732.675 270.83 732.931C271.075 733.306 271.338 733.688 271.595 734.063C271.767 734.319 271.945 734.569 272.128 734.819C272.711 735.656 273.299 736.494 273.893 737.319C274.432 738.075 274.971 738.831 275.535 739.588C276.239 740.569 276.956 741.538 277.679 742.494C278.133 743.106 278.586 743.713 279.045 744.319C279.462 744.869 279.873 745.413 280.295 745.944C280.314 745.981 280.338 746.013 280.363 746.044C280.491 746.213 280.626 746.381 280.755 746.544C281.312 747.275 281.888 748.013 282.47 748.75C282.476 748.75 282.489 748.769 282.495 748.775C282.556 748.863 282.623 748.95 282.703 749.044C283.365 749.888 284.039 750.725 284.706 751.563C284.786 751.663 284.872 751.756 284.951 751.856C285.687 752.763 286.428 753.669 287.169 754.569C287.335 754.763 287.5 754.95 287.666 755.15C287.929 755.463 288.186 755.775 288.444 756.081C288.725 756.419 289.001 756.75 289.283 757.075C289.626 757.481 289.981 757.888 290.331 758.288C291.237 759.356 292.15 760.413 293.094 761.463C293.296 761.7 293.492 761.931 293.706 762.156C293.792 762.269 293.896 762.381 293.994 762.494C294.019 762.519 294.049 762.556 294.074 762.581C294.239 762.756 294.399 762.938 294.564 763.113C294.809 763.388 295.054 763.663 295.299 763.931C295.446 764.094 295.587 764.25 295.747 764.413C295.973 764.681 296.218 764.944 296.463 765.213C296.88 765.675 297.309 766.131 297.738 766.594C297.897 766.756 298.032 766.913 298.185 767.075C298.663 767.6 299.153 768.125 299.643 768.644C299.974 768.994 300.305 769.344 300.648 769.694C300.764 769.813 300.868 769.925 300.973 770.044C301.113 770.206 301.26 770.356 301.42 770.513C302.081 771.2 302.737 771.875 303.399 772.55C303.546 772.713 303.705 772.869 303.858 773.031L303.883 773.056C303.883 773.056 303.901 773.075 303.907 773.081C304.526 773.706 305.145 774.325 305.764 774.95C305.99 775.188 306.217 775.419 306.444 775.644C308.153 777.35 309.868 779.025 311.614 780.669C312.135 781.169 312.668 781.663 313.201 782.156C313.532 782.475 313.863 782.788 314.206 783.1C314.212 783.106 314.224 783.119 314.243 783.138C315.125 783.95 316.007 784.756 316.883 785.556C317.251 785.894 317.625 786.225 317.992 786.544C318.133 786.669 318.274 786.794 318.409 786.925C318.783 787.263 319.169 787.6 319.542 787.938C319.665 788.044 319.787 788.144 319.91 788.25C320.057 788.375 320.216 788.506 320.363 788.644C320.535 788.813 320.719 788.975 320.902 789.131C321.35 789.525 321.803 789.913 322.244 790.306C323.151 791.081 324.058 791.856 324.977 792.619C325.62 793.163 326.269 793.706 326.919 794.231C327.182 794.463 327.452 794.688 327.727 794.906C328.199 795.3 328.671 795.681 329.143 796.044C329.59 796.425 330.043 796.794 330.503 797.156C330.791 797.388 331.079 797.619 331.373 797.844C332.01 798.363 332.647 798.869 333.284 799.375C333.676 799.675 334.068 799.969 334.461 800.275C335.514 801.094 336.58 801.9 337.646 802.694C338.081 803.031 338.529 803.363 338.964 803.688C339.472 804.063 339.968 804.438 340.471 804.788C340.924 805.125 341.377 805.456 341.831 805.794C342.799 806.488 343.761 807.181 344.729 807.856C345.691 808.531 346.646 809.2 347.608 809.869C348.288 810.331 348.968 810.794 349.654 811.256C350.494 811.825 351.345 812.388 352.191 812.944C352.252 812.988 352.32 813.031 352.393 813.075C352.914 813.425 353.447 813.769 353.98 814.119C354.2 814.25 354.409 814.394 354.617 814.525C355.254 814.95 355.898 815.363 356.547 815.769C356.688 815.856 356.835 815.944 356.982 816.038C357.337 816.269 357.686 816.494 358.048 816.713C358.501 817 358.955 817.281 359.408 817.55C359.451 817.588 359.494 817.619 359.555 817.65C360.315 818.113 361.074 818.581 361.84 819.044C361.944 819.106 362.061 819.175 362.171 819.238C362.3 819.325 362.441 819.406 362.588 819.494C362.919 819.688 363.262 819.894 363.599 820.1C363.948 820.306 364.297 820.506 364.646 820.713C365.222 821.05 365.798 821.388 366.374 821.738C366.582 821.856 366.791 821.969 366.999 822.094C368.089 822.725 369.168 823.338 370.271 823.95C370.418 824.038 370.565 824.119 370.718 824.2C371.888 824.85 373.052 825.5 374.234 826.131C374.786 826.431 375.343 826.725 375.907 827.031C376.422 827.319 376.942 827.581 377.469 827.856C378.07 828.169 378.682 828.488 379.289 828.8C380.134 829.238 380.992 829.669 381.838 830.1C383.608 830.988 385.385 831.863 387.174 832.713C387.97 833.094 388.767 833.469 389.569 833.844C390.433 834.25 391.303 834.656 392.179 835.044C392.835 835.344 393.49 835.638 394.152 835.931C395.243 836.419 396.333 836.9 397.43 837.375C398.502 837.838 399.586 838.294 400.665 838.744C401.737 839.2 402.821 839.644 403.912 840.081C404.739 840.413 405.578 840.75 406.417 841.075C406.846 841.244 407.281 841.413 407.716 841.581C407.986 841.681 408.255 841.788 408.525 841.894C409.162 842.131 409.787 842.375 410.424 842.613C411.515 843.019 412.611 843.425 413.702 843.825C414.793 844.219 415.889 844.606 416.992 844.988C418.015 845.344 419.026 845.688 420.043 846.031C420.184 846.088 420.313 846.131 420.454 846.175C421.501 846.525 422.549 846.869 423.603 847.206C424.515 847.5 425.434 847.794 426.347 848.075C426.782 848.206 427.217 848.344 427.658 848.475L429.515 849.038C430.085 849.213 430.654 849.388 431.23 849.544C432.014 849.775 432.799 850 433.583 850.219C434.594 850.506 435.605 850.781 436.628 851.056C436.848 851.119 437.063 851.181 437.283 851.231C438.288 851.5 439.287 851.763 440.291 852.025C441.48 852.325 442.675 852.619 443.869 852.913C444.88 853.163 445.891 853.4 446.902 853.631C447.411 853.756 447.907 853.869 448.409 853.969C449.291 854.181 450.174 854.375 451.062 854.556C452.263 854.825 453.47 855.075 454.671 855.313C455.871 855.563 457.078 855.794 458.291 856.013C458.935 856.138 459.584 856.25 460.234 856.369C460.423 856.406 460.62 856.438 460.816 856.475C461.183 856.544 461.551 856.606 461.912 856.669C462.384 856.756 462.843 856.838 463.315 856.906C464.057 857.038 464.804 857.163 465.545 857.281C466.189 857.388 466.826 857.488 467.475 857.581C467.53 857.588 467.579 857.6 467.641 857.606C468.155 857.688 468.676 857.769 469.191 857.844C470.367 858.019 471.543 858.194 472.732 858.344C472.848 858.363 472.952 858.381 473.044 858.388C474.037 858.531 475.035 858.656 476.028 858.781C476.377 858.819 476.732 858.863 477.082 858.906C478.111 859.038 479.146 859.156 480.188 859.263C481.401 859.394 482.614 859.519 483.827 859.638C483.87 859.644 483.913 859.644 483.956 859.656C485.157 859.775 486.363 859.881 487.564 859.975C488.796 860.081 490.021 860.169 491.265 860.263C492.502 860.363 493.734 860.438 494.971 860.5C496.209 860.581 497.447 860.644 498.684 860.688C499.309 860.713 499.94 860.744 500.565 860.769C503.322 860.888 506.085 860.956 508.848 860.975C509.896 860.994 510.95 861 512.003 861C513.241 861 514.478 861 515.716 860.975C518.191 860.95 520.666 860.888 523.135 860.788C524.367 860.744 525.592 860.688 526.836 860.625C527.945 860.569 529.041 860.506 530.138 860.438C531.186 860.375 532.239 860.306 533.287 860.225C534.212 860.163 535.125 860.094 536.05 860.013C536.32 859.994 536.583 859.975 536.847 859.95C537.521 859.894 538.201 859.831 538.868 859.763C539.481 859.719 540.088 859.656 540.7 859.594C540.982 859.569 541.258 859.538 541.54 859.513C541.76 859.494 541.975 859.469 542.195 859.444C542.667 859.4 543.139 859.344 543.61 859.294C544.027 859.25 544.45 859.206 544.866 859.15C545.283 859.106 545.706 859.063 546.122 859.006C547.188 858.888 548.248 858.756 549.314 858.613C551.434 858.344 553.554 858.044 555.674 857.725C555.833 857.7 555.98 857.681 556.127 857.656C556.697 857.569 557.254 857.481 557.812 857.388C558.449 857.3 559.086 857.194 559.711 857.088C559.736 857.081 559.772 857.081 559.809 857.069C560.777 856.906 561.739 856.75 562.707 856.569C563.528 856.425 564.355 856.275 565.176 856.113C565.605 856.031 566.04 855.95 566.469 855.875C566.965 855.788 567.455 855.688 567.951 855.588C571.223 854.95 574.482 854.244 577.729 853.488C578.924 853.2 580.113 852.919 581.295 852.631C583.666 852.044 586.037 851.431 588.396 850.781C589.339 850.525 590.289 850.256 591.233 849.988C591.894 849.8 592.556 849.606 593.224 849.406C593.26 849.4 593.285 849.388 593.322 849.381C594.106 849.15 594.89 848.919 595.674 848.681C596.863 848.325 598.045 847.95 599.234 847.581C600.312 847.244 601.39 846.894 602.463 846.538C603.412 846.225 604.362 845.906 605.305 845.588C605.593 845.488 605.881 845.394 606.157 845.294C607.002 845 607.848 844.706 608.687 844.406C609.159 844.244 609.618 844.075 610.072 843.906C611.475 843.406 612.859 842.894 614.256 842.356C616.027 841.688 617.797 841.006 619.556 840.294C620.34 839.981 621.136 839.663 621.921 839.331C622.705 839.013 623.483 838.681 624.267 838.35C625.051 838.019 625.829 837.694 626.614 837.356C661.676 822.231 693.142 800.6 720.142 773.056C720.927 772.256 721.705 771.456 722.464 770.656C723.126 769.969 723.775 769.288 724.419 768.6C724.664 768.35 724.897 768.094 725.136 767.844C726.557 766.313 727.972 764.775 729.357 763.225C729.577 762.994 729.786 762.756 729.994 762.513C730.227 762.244 730.466 761.981 730.692 761.719C731.262 761.088 731.82 760.444 732.377 759.813C733.033 759.056 733.688 758.3 734.319 757.544C734.405 757.444 734.491 757.338 734.583 757.244C736.127 755.438 737.634 753.625 739.116 751.781C739.656 751.113 740.195 750.438 740.728 749.763C740.997 749.425 741.261 749.088 741.53 748.75C744.52 744.969 747.4 741.125 750.187 737.213C750.763 736.413 751.327 735.6 751.897 734.794C753.251 732.863 754.574 730.906 755.879 728.938C714.555 747.15 669.065 757.394 621.277 757.781L621.247 757.788Z" fill="url(#paint2_linear_2_218)"/>
<path d="M620.322 757.794C619.709 757.794 619.09 757.8 618.471 757.8H618.343C617.761 757.8 617.173 757.794 616.59 757.794C616.278 757.794 615.966 757.787 615.647 757.787C602.542 757.619 589.719 756.238 577.276 753.775C556.145 761.206 533.74 765.038 510.919 764.925C457.311 764.638 406.993 742.994 369.321 703.944C332.126 665.388 311.835 613.088 311.859 558.988L311.988 318.944C312.037 265.875 269.886 222.831 217.877 222.8L217.688 560.581C217.688 561.806 217.712 563.037 217.73 564.262C217.749 565.6 217.749 566.931 217.773 568.256C217.798 569.262 217.841 570.269 217.877 571.275C217.933 572.788 217.975 574.306 218.043 575.819C218.08 576.6 218.141 577.375 218.184 578.156C218.282 579.894 218.374 581.625 218.496 583.363C218.533 583.863 218.582 584.356 218.619 584.856C218.778 586.869 218.931 588.869 219.133 590.869C219.152 591.044 219.176 591.225 219.195 591.394C222.142 621.1 229.383 649.994 240.84 677.631C251.96 704.456 266.67 729.213 284.713 751.525C285.16 752.075 285.619 752.619 286.073 753.169C287.139 754.456 288.192 755.756 289.283 757.037C290.128 758.031 290.998 759.019 291.862 760.006C292.567 760.825 293.265 761.644 293.988 762.45C295.14 763.738 296.316 765.019 297.493 766.294C297.946 766.781 298.381 767.281 298.834 767.769C300.176 769.2 301.536 770.613 302.909 772.031C303.215 772.35 303.521 772.669 303.821 772.994C305.083 774.281 306.37 775.55 307.651 776.812C308.085 777.237 308.502 777.675 308.943 778.1C310.009 779.144 311.1 780.144 312.172 781.169C312.846 781.8 313.495 782.444 314.169 783.062C314.911 783.75 315.658 784.412 316.412 785.094C317.441 786.025 318.47 786.981 319.505 787.894C319.775 788.131 320.057 788.363 320.326 788.594C343.393 808.831 369.229 825.181 397.387 837.338C431.806 852.188 468.198 860.094 505.662 860.894C507.764 860.938 509.865 860.975 511.979 860.975C551.673 860.975 590.228 853.019 626.565 837.338C661.627 822.213 693.093 800.581 720.093 773.038C724.927 768.106 729.565 763.031 734.019 757.819C734.184 757.625 734.362 757.437 734.528 757.231C735.931 755.575 737.315 753.906 738.688 752.213C738.81 752.063 738.939 751.913 739.061 751.756C745.016 744.4 750.61 736.781 755.83 728.912C714.506 747.125 669.016 757.369 621.228 757.756C620.922 757.756 620.61 757.763 620.303 757.763L620.322 757.787V757.794Z" fill="url(#paint3_linear_2_218)"/>
<path d="M732.591 675.806C701.915 693.094 666.638 702.931 629.107 702.937C580.823 702.956 536.258 686.681 500.411 659.219C499.976 659.075 499.541 658.95 499.112 658.812C511.721 669.819 525.585 679.344 540.43 687.137C545.436 689.769 550.558 692.2 555.777 694.431C560.642 696.506 565.586 698.4 570.622 700.106C570.481 700.237 570.353 700.375 570.212 700.5C602.143 712.437 636.924 718.131 673.047 716.219C709.727 714.269 744.25 704.656 775.183 688.969C777.113 687.987 778.657 686.356 779.533 684.344C779.533 684.337 779.539 684.325 779.551 684.306C779.98 683.356 780.397 682.4 780.801 681.444C781.353 680.181 781.892 678.919 782.413 677.644C782.988 676.25 783.564 674.85 784.116 673.444C784.465 672.575 784.802 671.7 785.145 670.831C785.605 669.631 786.07 668.431 786.511 667.219C786.683 666.762 786.854 666.312 787.008 665.856C787.253 665.219 787.485 664.575 787.712 663.937C788.19 662.612 788.662 661.275 789.115 659.944C789.489 658.856 789.856 657.775 790.212 656.681C790.23 656.644 790.236 656.612 790.248 656.562C790.641 655.381 791.027 654.194 791.4 653.006C791.786 651.825 792.148 650.631 792.509 649.437C792.858 648.306 793.189 647.175 793.52 646.037C793.545 645.975 793.563 645.912 793.575 645.85C793.888 644.781 794.194 643.712 794.488 642.65C794.555 642.381 794.635 642.119 794.709 641.85C795.309 639.669 795.885 637.481 796.436 635.294C796.767 633.969 797.092 632.644 797.404 631.306C797.686 630.131 797.956 628.956 798.213 627.781C798.483 626.562 798.752 625.35 799.01 624.131C799.199 623.212 799.396 622.287 799.579 621.362C799.726 620.669 799.867 619.969 799.996 619.262C800.039 619.056 800.076 618.856 800.112 618.65C800.272 617.85 800.419 617.056 800.566 616.256C800.621 615.956 800.67 615.644 800.731 615.337C782.529 640.075 759.315 660.762 732.616 675.794H732.609L732.591 675.806Z" fill="url(#paint4_linear_2_218)"/>
</g>
<defs>
<linearGradient id="paint0_linear_2_218" x1="519.716" y1="715.513" x2="811.031" y2="619.388" gradientUnits="userSpaceOnUse">
<stop stop-color="#FFE400"/>
<stop offset="1" stop-color="#FFB600"/>
</linearGradient>
<linearGradient id="paint1_linear_2_218" x1="597.978" y1="640.787" x2="821.386" y2="236.444" gradientUnits="userSpaceOnUse">
<stop stop-color="#3A86EC"/>
<stop offset="1" stop-color="#1D62FF"/>
</linearGradient>
<linearGradient id="paint2_linear_2_218" x1="582.796" y1="855.625" x2="219.81" y2="235.594" gradientUnits="userSpaceOnUse">
<stop stop-color="#1F5DE2"/>
<stop offset="1" stop-color="#3BCBFC"/>
</linearGradient>
<linearGradient id="paint3_linear_2_218" x1="582.631" y1="855.713" x2="221.163" y2="236.553" gradientUnits="userSpaceOnUse">
<stop stop-color="#2E6AF0"/>
<stop offset="1" stop-color="#67D5F5"/>
</linearGradient>
<linearGradient id="paint4_linear_2_218" x1="499.106" y1="665.969" x2="800.713" y2="665.969" gradientUnits="userSpaceOnUse">
<stop stop-color="white" stop-opacity="0.19"/>
<stop offset="1" stop-color="#FFE400"/>
</linearGradient>
<clipPath id="clip0_2_218">
<rect width="588.625" height="640" fill="white" transform="translate(217.688 221)"/>
</clipPath>
</defs>
</svg>
