<svg width="340" height="338" viewBox="0 0 340 338" fill="none" xmlns="http://www.w3.org/2000/svg">
<path d="M336.573 134.414C335.391 129.427 334.209 124.44 332.732 119.453C328.891 106.839 323.572 94.8113 317.072 83.6639L290.481 99.2116C281.026 104.785 276.89 116.226 281.026 126.2C286.64 140.868 289.299 156.415 289.004 171.963C289.004 172.256 289.004 172.256 289.004 172.55C289.004 172.843 289.004 173.43 289.004 173.723C289.004 174.016 289.004 174.31 289.004 174.603C289.004 174.896 289.004 175.19 289.004 175.19C289.004 175.776 289.004 176.07 289.004 176.656C289.004 176.656 289.004 176.656 289.004 176.95C287.526 200.418 278.958 223.006 264.185 241.781C261.526 245.301 258.571 248.528 255.321 251.755C255.321 252.048 255.026 252.048 255.026 252.341L254.73 252.635C238.775 267.596 219.571 278.156 198.888 283.437C198.593 283.437 198.297 283.437 198.002 283.73C177.024 288.717 154.865 287.837 133.592 281.09H133.296C133.001 281.09 133.001 281.09 132.705 280.796C128.569 279.33 124.433 277.863 120.296 275.809C118.228 274.929 116.16 274.049 114.387 272.876L231.389 200.418C247.344 190.737 244.98 166.976 227.253 160.815L224.002 159.642C208.048 154.068 203.911 133.827 216.321 122.68L338.936 9.73928L295.504 34.9675C287.822 39.3678 278.367 38.1944 270.981 32.9141C258.867 24.1135 245.571 16.7797 231.389 11.4994C210.116 3.28554 187.661 -0.528033 164.911 0.0586704C142.751 0.938726 121.478 5.63236 101.387 14.4329C80.9999 23.5268 62.9769 35.8476 47.9084 51.6886C31.9536 67.8229 19.8397 86.8908 11.5669 108.306C-3.50159 146.735 -3.79705 188.684 10.385 226.82C15.1124 239.727 30.4763 245.301 42.5901 238.847L48.2039 235.62C57.6586 230.34 62.0905 219.192 58.545 209.219C48.7948 182.817 48.7948 153.482 59.4314 126.493C70.9543 97.1581 93.1138 73.9833 122.069 61.0759C151.024 48.4617 183.229 47.5817 213.07 59.0224C220.752 61.9559 228.139 65.7695 235.23 70.1698L117.341 138.521C100.796 147.908 103.159 172.256 121.182 178.417C136.251 183.697 140.978 202.765 130.046 214.499L20.7261 331.253L66.2269 303.091C70.0679 306.025 73.9089 308.665 78.0453 311.305C92.8183 320.692 108.773 327.733 125.614 332.426C125.91 332.426 126.205 332.426 126.205 332.72C126.796 332.72 127.387 333.013 127.683 333.013C127.978 333.013 127.978 333.013 128.274 333.013C140.092 335.947 152.206 337.707 164.32 338C166.092 338 167.865 338 169.638 338C183.229 338 196.82 336.533 209.82 333.306C224.593 329.786 238.775 324.212 252.367 316.879C262.708 311.305 272.458 304.558 281.322 296.931C281.617 296.637 281.913 296.344 282.504 296.051C282.799 295.757 283.094 295.464 283.39 295.464L283.685 295.171C283.981 294.877 284.276 294.584 284.572 294.584C297.572 282.85 308.209 269.649 317.072 254.688C317.368 254.395 317.368 254.101 317.368 253.808C317.368 253.515 317.663 253.515 317.663 253.221C320.618 248.234 323.277 242.954 325.641 237.967C330.368 227.7 333.618 216.846 336.277 205.992C336.277 205.698 336.277 205.698 336.277 205.405C336.277 204.818 336.573 204.232 336.573 203.938C336.573 203.351 336.868 202.765 336.868 202.178C336.868 201.885 336.868 201.885 336.868 201.591C336.868 201.298 336.868 201.005 337.164 200.711C339.527 187.51 340.414 173.723 339.823 160.229C339.527 151.135 338.345 142.628 336.573 134.414Z" fill="url(#paint0_linear_15_683)"/>
<defs>
<linearGradient id="paint0_linear_15_683" x1="31.1685" y1="541.223" x2="911.918" y2="387.14" gradientUnits="userSpaceOnUse">
<stop stop-color="#289FEF"/>
<stop offset="1" stop-color="#E0FB00"/>
</linearGradient>
</defs>
</svg>
