<svg width="32" height="32" viewBox="0 0 32 32" fill="none" xmlns="http://www.w3.org/2000/svg">
<path fill-rule="evenodd" clip-rule="evenodd" d="M16 32C24.8366 32 32 24.8366 32 16C32 7.16344 24.8366 0 16 0C7.16344 0 0 7.16344 0 16C0 24.8366 7.16344 32 16 32Z" fill="#FFD000"/>
<path fill-rule="evenodd" clip-rule="evenodd" d="M24 12C24 20.8366 16.8366 28 8 28C7.02147 28 6.06346 27.9122 5.13342 27.7439C1.97635 24.8213 0 20.6415 0 16C0 7.16344 7.16344 0 16 0C16.9785 0 17.9365 0.0878432 18.8666 0.256072C22.0236 3.17869 24 7.35855 24 12Z" fill="#FFE714"/>
<path fill-rule="evenodd" clip-rule="evenodd" d="M16 29.3333C23.3638 29.3333 29.3333 23.3638 29.3333 16C29.3333 8.63619 23.3638 2.66666 16 2.66666C8.63616 2.66666 2.66663 8.63619 2.66663 16C2.66663 23.3638 8.63616 29.3333 16 29.3333Z" fill="#DF9D07"/>
<path fill-rule="evenodd" clip-rule="evenodd" d="M2.683 16.6667C3.03036 9.61258 8.85971 3.99999 16 3.99999C23.1402 3.99999 28.9696 9.61259 29.3169 16.6667C29.3278 16.4458 29.3333 16.2235 29.3333 16C29.3333 8.63619 23.3638 2.66666 16 2.66666C8.63616 2.66666 2.66663 8.63619 2.66663 16C2.66663 16.2235 2.67213 16.4458 2.683 16.6667Z" fill="#CD8103"/>
<path fill-rule="evenodd" clip-rule="evenodd" d="M19.0304 8.07604L16.2439 6.46723C16.0581 6.36 15.8293 6.36 15.6436 6.46723L12.857 8.07604C12.7177 8.15646 12.6319 8.30509 12.6319 8.46594L12.6319 11.7677C12.6319 11.9299 12.7191 12.0795 12.8602 12.1595L15.6479 13.7384C15.8314 13.8424 16.056 13.8424 16.2396 13.7384L19.0272 12.1595C19.1683 12.0795 19.2555 11.9299 19.2555 11.7677L19.2555 8.46594C19.2555 8.30509 19.1697 8.15646 19.0304 8.07604ZM16.49 7.38655C16.49 7.53741 16.2454 7.6597 15.9437 7.6597C15.642 7.6597 15.3974 7.53741 15.3974 7.38655C15.3974 7.23569 15.642 7.1134 15.9437 7.1134C16.2454 7.1134 16.49 7.23569 16.49 7.38655ZM15.9437 8.47916C16.2454 8.47916 16.49 8.35686 16.49 8.206C16.49 8.05515 16.2454 7.93285 15.9437 7.93285C15.642 7.93285 15.3974 8.05515 15.3974 8.206C15.3974 8.35686 15.642 8.47916 15.9437 8.47916ZM16.49 9.02546C16.49 9.17632 16.2454 9.29861 15.9437 9.29861C15.642 9.29861 15.3974 9.17632 15.3974 9.02546C15.3974 8.8746 15.642 8.75231 15.9437 8.75231C16.2454 8.75231 16.49 8.8746 16.49 9.02546ZM17.5826 8.47916C17.8843 8.47916 18.1289 8.35686 18.1289 8.206C18.1289 8.05515 17.8843 7.93285 17.5826 7.93285C17.2809 7.93285 17.0363 8.05515 17.0363 8.206C17.0363 8.35686 17.2809 8.47916 17.5826 8.47916ZM14.8511 8.206C14.8511 8.35686 14.6065 8.47916 14.3048 8.47916C14.0031 8.47916 13.7585 8.35686 13.7585 8.206C13.7585 8.05515 14.0031 7.93285 14.3048 7.93285C14.6065 7.93285 14.8511 8.05515 14.8511 8.206ZM17.5608 10.9699C17.5176 11.3333 17.6147 11.6064 17.7776 11.5799C17.9405 11.5534 18.1049 11.2706 18.1447 10.9483C18.1846 10.626 18.0875 10.3529 17.9279 10.3383C17.7684 10.3237 17.604 10.6065 17.5608 10.9699ZM13.4456 10.8023C13.278 10.8204 13.1318 10.616 13.1189 10.3457C13.106 10.0754 13.2246 9.83736 13.3839 9.81409C13.5433 9.79086 13.69 9.99524 13.7113 10.2707C13.7323 10.5462 13.6132 10.7842 13.4456 10.8023ZM13.7681 11.0193C13.7887 11.2951 13.9461 11.5076 14.1198 11.4938C14.2935 11.48 14.4118 11.2406 14.3836 10.9592C14.3552 10.6781 14.197 10.4659 14.0309 10.4852C13.8648 10.5044 13.7473 10.7435 13.7681 11.0193ZM14.8326 12.2175C14.6537 12.227 14.4867 12.0059 14.4594 11.7239C14.4318 11.4422 14.5486 11.2017 14.7208 11.1865C14.893 11.1715 15.061 11.3919 15.0955 11.6793C15.1295 11.9669 15.0116 12.208 14.8326 12.2175ZM16.1076 9.85155C16.0294 9.88749 15.9397 9.88821 15.861 9.85352L14.2851 9.15866C14.2447 9.14086 14.1974 9.15668 14.1759 9.19519C14.1528 9.23644 14.1675 9.28858 14.2088 9.31165L15.6424 10.1134C15.7316 10.1634 15.7893 10.2553 15.7955 10.3574L15.8972 12.0511C15.9002 12.1019 15.9411 12.1422 15.9919 12.1446C16.0469 12.1472 16.0936 12.1048 16.0962 12.0498L16.1761 10.3562C16.1809 10.2547 16.2367 10.1626 16.3243 10.1113L17.6907 9.31165C17.7288 9.28935 17.7438 9.24178 17.7253 9.20168C17.7055 9.1586 17.6545 9.13975 17.6115 9.15957L16.1076 9.85155ZM11.9737 22.0148L14.5909 16.3309C14.6105 16.2886 14.6403 16.2526 14.677 16.2257C14.7036 16.1959 14.7372 16.1715 14.7768 16.1553C14.7927 16.1488 14.8092 16.1439 14.8261 16.1405C15.217 16.0629 15.5881 16.024 15.9394 16.024C15.9624 16.024 15.9854 16.0242 16.0085 16.0245C16.0317 16.0242 16.0547 16.024 16.0777 16.024C16.429 16.024 16.8001 16.0629 17.191 16.1405C17.2079 16.1439 17.2244 16.1488 17.2403 16.1553C17.2799 16.1715 17.3135 16.1959 17.3401 16.2257C17.3768 16.2526 17.4066 16.2886 17.4262 16.3309L20.0434 22.0148L21.7278 13.938C21.7492 13.8357 21.8276 13.7549 21.9293 13.7305C22.3189 13.637 22.8992 13.5903 23.6701 13.5903C24.3331 13.5903 24.8198 13.6248 25.1303 13.694C25.2758 13.7263 25.3675 13.8704 25.3354 14.0159L22.9822 24.668C22.9353 24.8802 22.7658 25.0437 22.552 25.0829C21.8431 25.2127 21.1341 25.251 20.4251 25.1975C19.8574 25.1546 19.2897 25.053 18.722 24.8926C18.2415 24.7568 17.8505 24.4072 17.6619 23.9449L16.0085 19.891L14.3552 23.9449C14.1666 24.4072 13.7756 24.7568 13.2951 24.8926C12.7274 25.053 12.1597 25.1546 11.592 25.1975C10.883 25.251 10.174 25.2127 9.46506 25.0829C9.25127 25.0437 9.08177 24.8802 9.03489 24.668L6.68171 14.0159C6.64956 13.8704 6.74133 13.7263 6.88679 13.694C7.19732 13.6248 7.68405 13.5903 8.34697 13.5903C9.11788 13.5903 9.69817 13.637 10.0878 13.7305C10.1895 13.7549 10.2679 13.8357 10.2893 13.938L11.9737 22.0148Z" fill="#CD8103"/>
<path fill-rule="evenodd" clip-rule="evenodd" d="M19.0304 6.74269L16.2439 5.13389C16.0581 5.02666 15.8293 5.02666 15.6436 5.13389L12.857 6.74269C12.7177 6.82312 12.6319 6.97175 12.6319 7.13259L12.6319 10.4344C12.6319 10.5965 12.7191 10.7462 12.8602 10.8261L15.6479 12.4051C15.8314 12.5091 16.056 12.5091 16.2396 12.4051L19.0272 10.8261C19.1683 10.7462 19.2555 10.5965 19.2555 10.4344L19.2555 7.13259C19.2555 6.97175 19.1697 6.82312 19.0304 6.74269ZM16.49 6.05321C16.49 6.20406 16.2454 6.32636 15.9437 6.32636C15.642 6.32636 15.3974 6.20406 15.3974 6.05321C15.3974 5.90235 15.642 5.78006 15.9437 5.78006C16.2454 5.78006 16.49 5.90235 16.49 6.05321ZM15.9437 7.14581C16.2454 7.14581 16.49 7.02352 16.49 6.87266C16.49 6.7218 16.2454 6.59951 15.9437 6.59951C15.642 6.59951 15.3974 6.7218 15.3974 6.87266C15.3974 7.02352 15.642 7.14581 15.9437 7.14581ZM16.49 7.69212C16.49 7.84297 16.2454 7.96527 15.9437 7.96527C15.642 7.96527 15.3974 7.84297 15.3974 7.69212C15.3974 7.54126 15.642 7.41896 15.9437 7.41896C16.2454 7.41896 16.49 7.54126 16.49 7.69212ZM17.5826 7.14581C17.8843 7.14581 18.1289 7.02352 18.1289 6.87266C18.1289 6.7218 17.8843 6.59951 17.5826 6.59951C17.2809 6.59951 17.0363 6.7218 17.0363 6.87266C17.0363 7.02352 17.2809 7.14581 17.5826 7.14581ZM14.8511 6.87266C14.8511 7.02352 14.6065 7.14581 14.3048 7.14581C14.0031 7.14581 13.7585 7.02352 13.7585 6.87266C13.7585 6.7218 14.0031 6.59951 14.3048 6.59951C14.6065 6.59951 14.8511 6.7218 14.8511 6.87266ZM17.5608 9.63656C17.5176 9.99999 17.6147 10.2731 17.7776 10.2466C17.9405 10.22 18.1049 9.93726 18.1447 9.61497C18.1846 9.29269 18.0875 9.01958 17.9279 9.00497C17.7684 8.99037 17.604 9.27314 17.5608 9.63656ZM13.4456 9.46894C13.278 9.48704 13.1318 9.28262 13.1189 9.01233C13.106 8.74204 13.2246 8.50402 13.3839 8.48074C13.5433 8.45752 13.69 8.6619 13.7113 8.93731C13.7323 9.21284 13.6132 9.45089 13.4456 9.46894ZM13.7681 9.68593C13.7887 9.96179 13.9461 10.1743 14.1198 10.1605C14.2935 10.1467 14.4118 9.90724 14.3836 9.62589C14.3552 9.34477 14.197 9.1326 14.0309 9.15182C13.8648 9.17109 13.7473 9.41019 13.7681 9.68593ZM14.8326 10.8842C14.6537 10.8936 14.4867 10.6726 14.4594 10.3906C14.4318 10.1088 14.5486 9.86832 14.7208 9.8532C14.893 9.83812 15.061 10.0586 15.0955 10.3459C15.1295 10.6336 15.0116 10.8747 14.8326 10.8842ZM16.1076 8.51821C16.0294 8.55415 15.9397 8.55487 15.861 8.52018L14.2851 7.82532C14.2447 7.80751 14.1974 7.82333 14.1759 7.86185C14.1528 7.9031 14.1675 7.95524 14.2088 7.97831L15.6424 8.78008C15.7316 8.83001 15.7893 8.92195 15.7955 9.02405L15.8972 10.7177C15.9002 10.7685 15.9411 10.8089 15.9919 10.8113C16.0469 10.8139 16.0936 10.7714 16.0962 10.7164L16.1761 9.02285C16.1809 8.9214 16.2367 8.82926 16.3243 8.77796L17.6907 7.97831C17.7288 7.95601 17.7438 7.90844 17.7253 7.86833C17.7055 7.82526 17.6545 7.80641 17.6115 7.82623L16.1076 8.51821ZM11.9737 20.6815L14.5909 14.9976C14.6105 14.9552 14.6403 14.9192 14.677 14.8924C14.7036 14.8625 14.7372 14.8381 14.7768 14.822C14.7927 14.8155 14.8092 14.8105 14.8261 14.8072C15.217 14.7295 15.5881 14.6907 15.9394 14.6907C15.9624 14.6907 15.9854 14.6909 16.0085 14.6912C16.0317 14.6909 16.0547 14.6907 16.0777 14.6907C16.429 14.6907 16.8001 14.7295 17.191 14.8072C17.2079 14.8105 17.2244 14.8155 17.2403 14.822C17.2799 14.8381 17.3135 14.8625 17.3401 14.8924C17.3768 14.9192 17.4066 14.9552 17.4262 14.9976L20.0434 20.6815L21.7278 12.6047C21.7492 12.5024 21.8276 12.4215 21.9293 12.3971C22.3189 12.3037 22.8992 12.2569 23.6701 12.2569C24.3331 12.2569 24.8198 12.2915 25.1303 12.3606C25.2758 12.393 25.3675 12.5371 25.3354 12.6826L22.9822 23.3346C22.9353 23.5469 22.7658 23.7103 22.552 23.7495C21.8431 23.8794 21.1341 23.9176 20.4251 23.8641C19.8574 23.8213 19.2897 23.7197 18.722 23.5592C18.2415 23.4235 17.8505 23.0739 17.6619 22.6116L16.0085 18.5576L14.3552 22.6116C14.1666 23.0739 13.7756 23.4235 13.2951 23.5592C12.7274 23.7197 12.1597 23.8213 11.592 23.8641C10.883 23.9176 10.174 23.8794 9.46506 23.7495C9.25127 23.7103 9.08177 23.5469 9.03489 23.3346L6.68171 12.6826C6.64956 12.5371 6.74133 12.393 6.88679 12.3606C7.19732 12.2915 7.68405 12.2569 8.34697 12.2569C9.11788 12.2569 9.69817 12.3037 10.0878 12.3971C10.1895 12.4215 10.2679 12.5024 10.2893 12.6047L11.9737 20.6815Z" fill="#FFD000"/>
<path fill-rule="evenodd" clip-rule="evenodd" d="M23.9979 12.26C23.8939 12.258 23.7846 12.2569 23.6701 12.2569C22.8992 12.2569 22.3189 12.3037 21.9293 12.3971C21.8276 12.4215 21.7492 12.5024 21.7278 12.6047L20.0434 20.6815L17.4262 14.9976C17.4066 14.9552 17.3768 14.9192 17.3401 14.8924C17.3135 14.8625 17.2799 14.8381 17.2403 14.822C17.2244 14.8155 17.2079 14.8105 17.191 14.8072C16.8001 14.7295 16.429 14.6907 16.0777 14.6907C16.0547 14.6907 16.0317 14.6909 16.0085 14.6912C15.9854 14.6909 15.9624 14.6907 15.9394 14.6907C15.5881 14.6907 15.217 14.7295 14.8261 14.8072C14.8092 14.8105 14.7927 14.8155 14.7768 14.822C14.7372 14.8381 14.7036 14.8625 14.677 14.8924C14.6403 14.9192 14.6105 14.9552 14.5909 14.9976L11.9737 20.6815L10.2893 12.6047C10.2679 12.5024 10.1895 12.4215 10.0878 12.3971C9.69817 12.3037 9.11788 12.2569 8.34697 12.2569C7.68405 12.2569 7.19732 12.2915 6.88679 12.3606C6.74133 12.393 6.64956 12.5371 6.68171 12.6826L9.03489 23.3346C9.08177 23.5469 9.25127 23.7103 9.46506 23.7495C10.174 23.8794 10.883 23.9176 11.592 23.8641C12.1597 23.8213 12.7274 23.7197 13.2951 23.5592C13.7756 23.4235 14.1666 23.0739 14.3552 22.6116L16.0085 18.5576L17.6619 22.6116C17.8505 23.0739 18.2415 23.4235 18.722 23.5592C18.8107 23.5843 18.8994 23.608 18.9882 23.6302C22.0158 20.7686 23.9266 16.7377 23.9979 12.26ZM16.2439 5.13389L19.0304 6.74269C19.1697 6.82312 19.2555 6.97175 19.2555 7.13259V10.4344C19.2555 10.5965 19.1683 10.7462 19.0272 10.8261L16.2396 12.4051C16.056 12.5091 15.8314 12.5091 15.6479 12.4051L12.8602 10.8261C12.7191 10.7462 12.6319 10.5965 12.6319 10.4344L12.6319 7.13259C12.6319 6.97175 12.7177 6.82312 12.857 6.74269L15.6436 5.13389C15.8293 5.02666 16.0581 5.02666 16.2439 5.13389ZM15.9437 6.32636C16.2454 6.32636 16.49 6.20406 16.49 6.05321C16.49 5.90235 16.2454 5.78006 15.9437 5.78006C15.642 5.78006 15.3974 5.90235 15.3974 6.05321C15.3974 6.20406 15.642 6.32636 15.9437 6.32636ZM16.49 6.87266C16.49 7.02352 16.2454 7.14581 15.9437 7.14581C15.642 7.14581 15.3974 7.02352 15.3974 6.87266C15.3974 6.7218 15.642 6.59951 15.9437 6.59951C16.2454 6.59951 16.49 6.7218 16.49 6.87266ZM15.9437 7.96527C16.2454 7.96527 16.49 7.84297 16.49 7.69212C16.49 7.54126 16.2454 7.41896 15.9437 7.41896C15.642 7.41896 15.3974 7.54126 15.3974 7.69212C15.3974 7.84297 15.642 7.96527 15.9437 7.96527ZM18.1289 6.87266C18.1289 7.02352 17.8843 7.14581 17.5826 7.14581C17.2809 7.14581 17.0363 7.02352 17.0363 6.87266C17.0363 6.7218 17.2809 6.59951 17.5826 6.59951C17.8843 6.59951 18.1289 6.7218 18.1289 6.87266ZM14.3048 7.14581C14.6065 7.14581 14.8511 7.02352 14.8511 6.87266C14.8511 6.7218 14.6065 6.59951 14.3048 6.59951C14.0031 6.59951 13.7585 6.7218 13.7585 6.87266C13.7585 7.02352 14.0031 7.14581 14.3048 7.14581ZM17.7776 10.2466C17.6147 10.2731 17.5176 9.99999 17.5608 9.63656C17.604 9.27314 17.7684 8.99037 17.9279 9.00497C18.0875 9.01958 18.1846 9.29269 18.1447 9.61497C18.1049 9.93726 17.9405 10.22 17.7776 10.2466ZM13.1189 9.01233C13.1318 9.28262 13.278 9.48703 13.4456 9.46894C13.6132 9.45089 13.7323 9.21284 13.7113 8.93731C13.69 8.6619 13.5433 8.45752 13.3839 8.48074C13.2246 8.50402 13.106 8.74204 13.1189 9.01233ZM14.1198 10.1605C13.9461 10.1743 13.7887 9.96179 13.7681 9.68593C13.7473 9.41019 13.8648 9.17109 14.0309 9.15182C14.197 9.1326 14.3552 9.34477 14.3836 9.62589C14.4118 9.90724 14.2935 10.1467 14.1198 10.1605ZM14.4594 10.3906C14.4867 10.6726 14.6537 10.8936 14.8326 10.8842C15.0116 10.8747 15.1295 10.6336 15.0955 10.3459C15.061 10.0586 14.893 9.83812 14.7208 9.8532C14.5486 9.86832 14.4318 10.1088 14.4594 10.3906ZM15.861 8.52018C15.9397 8.55487 16.0294 8.55415 16.1076 8.51821L17.6115 7.82623C17.6545 7.80641 17.7055 7.82526 17.7253 7.86833C17.7438 7.90844 17.7288 7.95601 17.6907 7.97831L16.3243 8.77796C16.2367 8.82926 16.1809 8.9214 16.1761 9.02285L16.0962 10.7164C16.0936 10.7714 16.0469 10.8139 15.9919 10.8113C15.9411 10.8089 15.9002 10.7685 15.8972 10.7177L15.7955 9.02405C15.7893 8.92195 15.7316 8.83001 15.6424 8.78008L14.2088 7.97831C14.1675 7.95524 14.1528 7.9031 14.1759 7.86185C14.1974 7.82333 14.2447 7.80751 14.2851 7.82532L15.861 8.52018Z" fill="#FFE714"/>
<path fill-rule="evenodd" clip-rule="evenodd" d="M7.30116 8.07115C7.2085 7.727 6.93968 7.45818 6.59553 7.36552L4.35863 6.76324C4.25996 6.73668 4.25996 6.59669 4.35863 6.57012L6.59553 5.96784C6.93968 5.87518 7.2085 5.60636 7.30116 5.26222L7.90344 3.02531C7.93 2.92665 8.06999 2.92665 8.09656 3.02531L8.69884 5.26222C8.7915 5.60636 9.06032 5.87518 9.40447 5.96784L11.6414 6.57012C11.74 6.59669 11.74 6.73668 11.6414 6.76324L9.40447 7.36552C9.06032 7.45818 8.7915 7.727 8.69884 8.07115L8.09656 10.308C8.07 10.4067 7.93001 10.4067 7.90344 10.308L7.30116 8.07115Z" fill="white"/>
</svg>
